<mxfile host="Electron" agent="Mozilla/5.0 (Windows NT 10.0; Win64; x64) AppleWebKit/537.36 (KHTML, like Gecko) draw.io/25.0.1 Chrome/128.0.6613.186 Electron/32.2.6 Safari/537.36" version="25.0.1" pages="3">
  <diagram id="401oI5VLrsHUc44_uMyA" name="Страница 1">
    <mxGraphModel dx="793" dy="383" grid="1" gridSize="10" guides="1" tooltips="1" connect="1" arrows="1" fold="1" page="1" pageScale="1" pageWidth="1654" pageHeight="1169" math="0" shadow="0">
      <root>
        <mxCell id="0" />
        <mxCell id="1" parent="0" />
        <mxCell id="RqMCuAcDXt-mt3hWwmX9-14" style="rounded=0;orthogonalLoop=1;jettySize=auto;html=1;exitX=0.5;exitY=1;exitDx=0;exitDy=0;entryX=1;entryY=0;entryDx=0;entryDy=0;strokeColor=none;endArrow=none;endFill=0;" parent="1" source="RqMCuAcDXt-mt3hWwmX9-1" target="RqMCuAcDXt-mt3hWwmX9-2" edge="1">
          <mxGeometry relative="1" as="geometry" />
        </mxCell>
        <mxCell id="RqMCuAcDXt-mt3hWwmX9-15" style="edgeStyle=none;orthogonalLoop=1;jettySize=auto;html=1;exitX=0.5;exitY=1;exitDx=0;exitDy=0;entryX=0.5;entryY=0;entryDx=0;entryDy=0;endArrow=none;endFill=0;" parent="1" source="RqMCuAcDXt-mt3hWwmX9-1" target="RqMCuAcDXt-mt3hWwmX9-2" edge="1">
          <mxGeometry relative="1" as="geometry" />
        </mxCell>
        <mxCell id="RqMCuAcDXt-mt3hWwmX9-1" value="S" style="ellipse;whiteSpace=wrap;html=1;aspect=fixed;fontFamily=gost;fontSource=https%3A%2F%2Ffontlibrary.org%2F%2Fface%2Fgostrus-type-a%22%20type%3D%22text%2Fcss;" parent="1" vertex="1">
          <mxGeometry x="320" y="10" width="40" height="40" as="geometry" />
        </mxCell>
        <mxCell id="RqMCuAcDXt-mt3hWwmX9-2" value="t" style="ellipse;whiteSpace=wrap;html=1;aspect=fixed;" parent="1" vertex="1">
          <mxGeometry x="20" y="100" width="40" height="40" as="geometry" />
        </mxCell>
        <mxCell id="RqMCuAcDXt-mt3hWwmX9-16" style="edgeStyle=none;orthogonalLoop=1;jettySize=auto;html=1;exitX=0.5;exitY=0;exitDx=0;exitDy=0;entryX=0.5;entryY=1;entryDx=0;entryDy=0;endArrow=none;endFill=0;" parent="1" source="RqMCuAcDXt-mt3hWwmX9-3" target="RqMCuAcDXt-mt3hWwmX9-1" edge="1">
          <mxGeometry relative="1" as="geometry" />
        </mxCell>
        <mxCell id="RqMCuAcDXt-mt3hWwmX9-3" value="f" style="ellipse;whiteSpace=wrap;html=1;aspect=fixed;fontFamily=Verdana;" parent="1" vertex="1">
          <mxGeometry x="80" y="100" width="40" height="40" as="geometry" />
        </mxCell>
        <mxCell id="RqMCuAcDXt-mt3hWwmX9-17" style="edgeStyle=none;orthogonalLoop=1;jettySize=auto;html=1;exitX=0.5;exitY=0;exitDx=0;exitDy=0;endArrow=none;endFill=0;entryX=0.5;entryY=1;entryDx=0;entryDy=0;" parent="1" source="RqMCuAcDXt-mt3hWwmX9-4" target="RqMCuAcDXt-mt3hWwmX9-1" edge="1">
          <mxGeometry relative="1" as="geometry">
            <mxPoint x="260" y="60" as="targetPoint" />
          </mxGeometry>
        </mxCell>
        <mxCell id="RqMCuAcDXt-mt3hWwmX9-4" value="i" style="ellipse;whiteSpace=wrap;html=1;aspect=fixed;" parent="1" vertex="1">
          <mxGeometry x="140" y="100" width="40" height="40" as="geometry" />
        </mxCell>
        <mxCell id="RqMCuAcDXt-mt3hWwmX9-18" style="edgeStyle=none;orthogonalLoop=1;jettySize=auto;html=1;exitX=0.5;exitY=0;exitDx=0;exitDy=0;endArrow=none;endFill=0;entryX=0.5;entryY=1;entryDx=0;entryDy=0;" parent="1" source="RqMCuAcDXt-mt3hWwmX9-5" target="RqMCuAcDXt-mt3hWwmX9-1" edge="1">
          <mxGeometry relative="1" as="geometry">
            <mxPoint x="260" y="50" as="targetPoint" />
          </mxGeometry>
        </mxCell>
        <mxCell id="RqMCuAcDXt-mt3hWwmX9-5" value="(" style="ellipse;whiteSpace=wrap;html=1;aspect=fixed;" parent="1" vertex="1">
          <mxGeometry x="200" y="100" width="40" height="40" as="geometry" />
        </mxCell>
        <mxCell id="RqMCuAcDXt-mt3hWwmX9-19" style="edgeStyle=none;orthogonalLoop=1;jettySize=auto;html=1;exitX=0.5;exitY=0;exitDx=0;exitDy=0;entryX=0.5;entryY=1;entryDx=0;entryDy=0;endArrow=none;endFill=0;" parent="1" source="RqMCuAcDXt-mt3hWwmX9-6" target="RqMCuAcDXt-mt3hWwmX9-1" edge="1">
          <mxGeometry relative="1" as="geometry" />
        </mxCell>
        <mxCell id="RqMCuAcDXt-mt3hWwmX9-6" value="F" style="ellipse;whiteSpace=wrap;html=1;aspect=fixed;" parent="1" vertex="1">
          <mxGeometry x="260" y="100" width="40" height="40" as="geometry" />
        </mxCell>
        <mxCell id="RqMCuAcDXt-mt3hWwmX9-20" style="edgeStyle=none;orthogonalLoop=1;jettySize=auto;html=1;exitX=0.5;exitY=0;exitDx=0;exitDy=0;endArrow=none;endFill=0;entryX=0.5;entryY=1;entryDx=0;entryDy=0;" parent="1" source="RqMCuAcDXt-mt3hWwmX9-7" target="RqMCuAcDXt-mt3hWwmX9-1" edge="1">
          <mxGeometry relative="1" as="geometry">
            <mxPoint x="260" y="50" as="targetPoint" />
          </mxGeometry>
        </mxCell>
        <mxCell id="RqMCuAcDXt-mt3hWwmX9-7" value=")" style="ellipse;whiteSpace=wrap;html=1;aspect=fixed;" parent="1" vertex="1">
          <mxGeometry x="320" y="100" width="40" height="40" as="geometry" />
        </mxCell>
        <mxCell id="RqMCuAcDXt-mt3hWwmX9-21" style="edgeStyle=none;orthogonalLoop=1;jettySize=auto;html=1;exitX=0.5;exitY=0;exitDx=0;exitDy=0;endArrow=none;endFill=0;entryX=0.5;entryY=1;entryDx=0;entryDy=0;" parent="1" source="RqMCuAcDXt-mt3hWwmX9-9" target="RqMCuAcDXt-mt3hWwmX9-1" edge="1">
          <mxGeometry relative="1" as="geometry">
            <mxPoint x="260" y="50" as="targetPoint" />
          </mxGeometry>
        </mxCell>
        <mxCell id="RqMCuAcDXt-mt3hWwmX9-9" value="{" style="ellipse;whiteSpace=wrap;html=1;aspect=fixed;" parent="1" vertex="1">
          <mxGeometry x="380" y="100" width="40" height="40" as="geometry" />
        </mxCell>
        <mxCell id="RqMCuAcDXt-mt3hWwmX9-22" style="edgeStyle=none;orthogonalLoop=1;jettySize=auto;html=1;exitX=0.5;exitY=0;exitDx=0;exitDy=0;endArrow=none;endFill=0;entryX=0.5;entryY=1;entryDx=0;entryDy=0;" parent="1" source="RqMCuAcDXt-mt3hWwmX9-10" target="RqMCuAcDXt-mt3hWwmX9-1" edge="1">
          <mxGeometry relative="1" as="geometry">
            <mxPoint x="290" y="30" as="targetPoint" />
          </mxGeometry>
        </mxCell>
        <mxCell id="RqMCuAcDXt-mt3hWwmX9-10" value="N" style="ellipse;whiteSpace=wrap;html=1;aspect=fixed;" parent="1" vertex="1">
          <mxGeometry x="440" y="100" width="40" height="40" as="geometry" />
        </mxCell>
        <mxCell id="RqMCuAcDXt-mt3hWwmX9-23" style="edgeStyle=none;orthogonalLoop=1;jettySize=auto;html=1;exitX=0.5;exitY=0;exitDx=0;exitDy=0;endArrow=none;endFill=0;entryX=0.5;entryY=1;entryDx=0;entryDy=0;" parent="1" source="RqMCuAcDXt-mt3hWwmX9-11" target="RqMCuAcDXt-mt3hWwmX9-1" edge="1">
          <mxGeometry relative="1" as="geometry">
            <mxPoint x="260" y="50" as="targetPoint" />
          </mxGeometry>
        </mxCell>
        <mxCell id="RqMCuAcDXt-mt3hWwmX9-11" value="}" style="ellipse;whiteSpace=wrap;html=1;aspect=fixed;" parent="1" vertex="1">
          <mxGeometry x="500" y="100" width="40" height="40" as="geometry" />
        </mxCell>
        <mxCell id="RqMCuAcDXt-mt3hWwmX9-27" style="edgeStyle=none;orthogonalLoop=1;jettySize=auto;html=1;exitX=0.5;exitY=0;exitDx=0;exitDy=0;entryX=0.5;entryY=1;entryDx=0;entryDy=0;endArrow=none;endFill=0;fontFamily=Verdana;" parent="1" source="RqMCuAcDXt-mt3hWwmX9-26" target="RqMCuAcDXt-mt3hWwmX9-1" edge="1">
          <mxGeometry relative="1" as="geometry" />
        </mxCell>
        <mxCell id="RqMCuAcDXt-mt3hWwmX9-26" value="S" style="ellipse;whiteSpace=wrap;html=1;aspect=fixed;" parent="1" vertex="1">
          <mxGeometry x="560" y="100" width="40" height="40" as="geometry" />
        </mxCell>
        <mxCell id="RqMCuAcDXt-mt3hWwmX9-30" style="edgeStyle=none;orthogonalLoop=1;jettySize=auto;html=1;exitX=0.5;exitY=0;exitDx=0;exitDy=0;entryX=0.5;entryY=1;entryDx=0;entryDy=0;endArrow=none;endFill=0;fontFamily=Verdana;" parent="1" source="RqMCuAcDXt-mt3hWwmX9-28" target="RqMCuAcDXt-mt3hWwmX9-6" edge="1">
          <mxGeometry relative="1" as="geometry" />
        </mxCell>
        <mxCell id="RqMCuAcDXt-mt3hWwmX9-28" value="t" style="ellipse;whiteSpace=wrap;html=1;aspect=fixed;" parent="1" vertex="1">
          <mxGeometry x="20" y="170" width="40" height="40" as="geometry" />
        </mxCell>
        <mxCell id="RqMCuAcDXt-mt3hWwmX9-31" style="edgeStyle=none;orthogonalLoop=1;jettySize=auto;html=1;exitX=0.5;exitY=0;exitDx=0;exitDy=0;entryX=0.5;entryY=1;entryDx=0;entryDy=0;endArrow=none;endFill=0;fontFamily=Verdana;" parent="1" source="RqMCuAcDXt-mt3hWwmX9-29" target="RqMCuAcDXt-mt3hWwmX9-6" edge="1">
          <mxGeometry relative="1" as="geometry" />
        </mxCell>
        <mxCell id="RqMCuAcDXt-mt3hWwmX9-29" value="&lt;p&gt;&lt;font&gt;,&lt;/font&gt;&lt;/p&gt;" style="ellipse;whiteSpace=wrap;html=1;aspect=fixed;fontFamily=GOSTRUS;" parent="1" vertex="1">
          <mxGeometry x="120" y="170" width="40" height="40" as="geometry" />
        </mxCell>
        <mxCell id="RqMCuAcDXt-mt3hWwmX9-36" style="edgeStyle=none;orthogonalLoop=1;jettySize=auto;html=1;exitX=0.5;exitY=0;exitDx=0;exitDy=0;entryX=0.5;entryY=1;entryDx=0;entryDy=0;endArrow=none;endFill=0;fontFamily=GOSTRUS;" parent="1" source="RqMCuAcDXt-mt3hWwmX9-32" target="RqMCuAcDXt-mt3hWwmX9-10" edge="1">
          <mxGeometry relative="1" as="geometry" />
        </mxCell>
        <mxCell id="RqMCuAcDXt-mt3hWwmX9-32" value="&lt;p&gt;&lt;font&gt;r&lt;/font&gt;&lt;/p&gt;" style="ellipse;whiteSpace=wrap;html=1;aspect=fixed;fontFamily=GOSTRUS;" parent="1" vertex="1">
          <mxGeometry x="230" y="170" width="40" height="40" as="geometry" />
        </mxCell>
        <mxCell id="RqMCuAcDXt-mt3hWwmX9-38" style="edgeStyle=none;orthogonalLoop=1;jettySize=auto;html=1;exitX=0.5;exitY=0;exitDx=0;exitDy=0;entryX=0.5;entryY=1;entryDx=0;entryDy=0;endArrow=none;endFill=0;fontFamily=GOSTRUS;" parent="1" source="RqMCuAcDXt-mt3hWwmX9-33" target="RqMCuAcDXt-mt3hWwmX9-10" edge="1">
          <mxGeometry relative="1" as="geometry" />
        </mxCell>
        <mxCell id="RqMCuAcDXt-mt3hWwmX9-33" value="&lt;p&gt;&lt;font&gt;E&lt;/font&gt;&lt;/p&gt;" style="ellipse;whiteSpace=wrap;html=1;aspect=fixed;fontFamily=GOSTRUS;" parent="1" vertex="1">
          <mxGeometry x="290" y="170" width="40" height="40" as="geometry" />
        </mxCell>
        <mxCell id="RqMCuAcDXt-mt3hWwmX9-77" style="edgeStyle=none;orthogonalLoop=1;jettySize=auto;html=1;exitX=0.5;exitY=0;exitDx=0;exitDy=0;entryX=0.5;entryY=1;entryDx=0;entryDy=0;endArrow=none;endFill=0;fontFamily=GOSTRUS;" parent="1" source="RqMCuAcDXt-mt3hWwmX9-73" target="RqMCuAcDXt-mt3hWwmX9-26" edge="1">
          <mxGeometry relative="1" as="geometry">
            <mxPoint x="623" y="140" as="targetPoint" />
          </mxGeometry>
        </mxCell>
        <mxCell id="RqMCuAcDXt-mt3hWwmX9-73" value="&lt;p&gt;&lt;font&gt;t&lt;/font&gt;&lt;/p&gt;" style="ellipse;whiteSpace=wrap;html=1;aspect=fixed;fontFamily=GOSTRUS;" parent="1" vertex="1">
          <mxGeometry x="403" y="170" width="40" height="40" as="geometry" />
        </mxCell>
        <mxCell id="RqMCuAcDXt-mt3hWwmX9-78" style="edgeStyle=none;orthogonalLoop=1;jettySize=auto;html=1;exitX=0.5;exitY=0;exitDx=0;exitDy=0;endArrow=none;endFill=0;fontFamily=GOSTRUS;" parent="1" source="RqMCuAcDXt-mt3hWwmX9-74" edge="1">
          <mxGeometry relative="1" as="geometry">
            <mxPoint x="580" y="140" as="targetPoint" />
          </mxGeometry>
        </mxCell>
        <mxCell id="RqMCuAcDXt-mt3hWwmX9-74" value="&lt;p&gt;&lt;font&gt;f&lt;/font&gt;&lt;/p&gt;" style="ellipse;whiteSpace=wrap;html=1;aspect=fixed;fontFamily=GOSTRUS;" parent="1" vertex="1">
          <mxGeometry x="453" y="170" width="40" height="40" as="geometry" />
        </mxCell>
        <mxCell id="RqMCuAcDXt-mt3hWwmX9-79" style="edgeStyle=none;orthogonalLoop=1;jettySize=auto;html=1;exitX=0.5;exitY=0;exitDx=0;exitDy=0;endArrow=none;endFill=0;fontFamily=GOSTRUS;" parent="1" source="RqMCuAcDXt-mt3hWwmX9-75" edge="1">
          <mxGeometry relative="1" as="geometry">
            <mxPoint x="580" y="140" as="targetPoint" />
          </mxGeometry>
        </mxCell>
        <mxCell id="RqMCuAcDXt-mt3hWwmX9-75" value="i" style="ellipse;whiteSpace=wrap;html=1;aspect=fixed;fontFamily=GOSTRUS;" parent="1" vertex="1">
          <mxGeometry x="503" y="170" width="40" height="40" as="geometry" />
        </mxCell>
        <mxCell id="9d-Es3Zle7uiDpjUyZU_-1" style="rounded=0;orthogonalLoop=1;jettySize=auto;html=1;exitX=0.5;exitY=0;exitDx=0;exitDy=0;endArrow=none;endFill=0;" parent="1" source="RqMCuAcDXt-mt3hWwmX9-76" edge="1">
          <mxGeometry relative="1" as="geometry">
            <mxPoint x="580" y="140" as="targetPoint" />
          </mxGeometry>
        </mxCell>
        <mxCell id="RqMCuAcDXt-mt3hWwmX9-76" value="F" style="ellipse;whiteSpace=wrap;html=1;aspect=fixed;fontFamily=GOSTRUS;" parent="1" vertex="1">
          <mxGeometry x="606" y="170" width="40" height="40" as="geometry" />
        </mxCell>
        <mxCell id="RqMCuAcDXt-mt3hWwmX9-84" style="edgeStyle=none;orthogonalLoop=1;jettySize=auto;html=1;exitX=0.5;exitY=0;exitDx=0;exitDy=0;endArrow=none;endFill=0;fontFamily=GOSTRUS;entryX=0.5;entryY=1;entryDx=0;entryDy=0;" parent="1" source="RqMCuAcDXt-mt3hWwmX9-82" target="RqMCuAcDXt-mt3hWwmX9-76" edge="1">
          <mxGeometry relative="1" as="geometry">
            <mxPoint x="613" y="210" as="targetPoint" />
          </mxGeometry>
        </mxCell>
        <mxCell id="RqMCuAcDXt-mt3hWwmX9-82" value="&lt;p&gt;&lt;font&gt;t&lt;/font&gt;&lt;/p&gt;" style="ellipse;whiteSpace=wrap;html=1;aspect=fixed;fontFamily=GOSTRUS;" parent="1" vertex="1">
          <mxGeometry x="353" y="240" width="40" height="40" as="geometry" />
        </mxCell>
        <mxCell id="RqMCuAcDXt-mt3hWwmX9-86" style="edgeStyle=none;orthogonalLoop=1;jettySize=auto;html=1;exitX=0.5;exitY=0;exitDx=0;exitDy=0;entryX=0.5;entryY=1;entryDx=0;entryDy=0;endArrow=none;endFill=0;fontFamily=GOSTRUS;" parent="1" source="RqMCuAcDXt-mt3hWwmX9-83" target="RqMCuAcDXt-mt3hWwmX9-76" edge="1">
          <mxGeometry relative="1" as="geometry" />
        </mxCell>
        <mxCell id="RqMCuAcDXt-mt3hWwmX9-83" value="&lt;p&gt;&lt;font&gt;i&lt;/font&gt;&lt;/p&gt;" style="ellipse;whiteSpace=wrap;html=1;aspect=fixed;fontFamily=GOSTRUS;" parent="1" vertex="1">
          <mxGeometry x="403" y="240" width="40" height="40" as="geometry" />
        </mxCell>
        <mxCell id="2xTq2TT0dQwPNHppPy_b-1" value="F" style="ellipse;whiteSpace=wrap;html=1;aspect=fixed;" parent="1" vertex="1">
          <mxGeometry x="170" y="170" width="40" height="40" as="geometry" />
        </mxCell>
        <mxCell id="2xTq2TT0dQwPNHppPy_b-2" value="" style="endArrow=none;html=1;rounded=0;entryX=0.5;entryY=1;entryDx=0;entryDy=0;exitX=0.5;exitY=0;exitDx=0;exitDy=0;" parent="1" source="2xTq2TT0dQwPNHppPy_b-1" target="RqMCuAcDXt-mt3hWwmX9-6" edge="1">
          <mxGeometry width="50" height="50" relative="1" as="geometry">
            <mxPoint x="320" y="170" as="sourcePoint" />
            <mxPoint x="430" y="190" as="targetPoint" />
          </mxGeometry>
        </mxCell>
        <mxCell id="2xTq2TT0dQwPNHppPy_b-3" value="i" style="ellipse;whiteSpace=wrap;html=1;aspect=fixed;" parent="1" vertex="1">
          <mxGeometry x="70" y="170" width="40" height="40" as="geometry" />
        </mxCell>
        <mxCell id="2xTq2TT0dQwPNHppPy_b-6" value="" style="endArrow=none;html=1;rounded=0;exitX=0.5;exitY=0;exitDx=0;exitDy=0;" parent="1" source="2xTq2TT0dQwPNHppPy_b-3" edge="1">
          <mxGeometry width="50" height="50" relative="1" as="geometry">
            <mxPoint x="240" y="200" as="sourcePoint" />
            <mxPoint x="280" y="140" as="targetPoint" />
          </mxGeometry>
        </mxCell>
        <mxCell id="2xTq2TT0dQwPNHppPy_b-7" value="t" style="ellipse;whiteSpace=wrap;html=1;aspect=fixed;" parent="1" vertex="1">
          <mxGeometry x="120" y="240" width="40" height="40" as="geometry" />
        </mxCell>
        <mxCell id="2xTq2TT0dQwPNHppPy_b-8" value="i" style="ellipse;whiteSpace=wrap;html=1;aspect=fixed;" parent="1" vertex="1">
          <mxGeometry x="170" y="240" width="40" height="40" as="geometry" />
        </mxCell>
        <mxCell id="2xTq2TT0dQwPNHppPy_b-9" value="" style="endArrow=none;html=1;rounded=0;exitX=0.5;exitY=0;exitDx=0;exitDy=0;entryX=0.5;entryY=1;entryDx=0;entryDy=0;" parent="1" source="2xTq2TT0dQwPNHppPy_b-7" target="2xTq2TT0dQwPNHppPy_b-1" edge="1">
          <mxGeometry width="50" height="50" relative="1" as="geometry">
            <mxPoint x="160" y="240" as="sourcePoint" />
            <mxPoint x="190.25" y="210" as="targetPoint" />
          </mxGeometry>
        </mxCell>
        <mxCell id="2xTq2TT0dQwPNHppPy_b-11" value="" style="endArrow=none;html=1;rounded=0;entryX=0.5;entryY=1;entryDx=0;entryDy=0;exitX=0.5;exitY=0;exitDx=0;exitDy=0;" parent="1" source="2xTq2TT0dQwPNHppPy_b-8" target="2xTq2TT0dQwPNHppPy_b-1" edge="1">
          <mxGeometry width="50" height="50" relative="1" as="geometry">
            <mxPoint x="230" y="240" as="sourcePoint" />
            <mxPoint x="280" y="190" as="targetPoint" />
          </mxGeometry>
        </mxCell>
        <mxCell id="2xTq2TT0dQwPNHppPy_b-12" value="&lt;p&gt;&lt;font&gt;i&lt;/font&gt;&lt;/p&gt;" style="ellipse;whiteSpace=wrap;html=1;aspect=fixed;fontFamily=GOSTRUS;" parent="1" vertex="1">
          <mxGeometry x="230" y="240" width="40" height="40" as="geometry" />
        </mxCell>
        <mxCell id="2xTq2TT0dQwPNHppPy_b-13" value="&lt;p&gt;&lt;font&gt;M&lt;/font&gt;&lt;/p&gt;" style="ellipse;whiteSpace=wrap;html=1;aspect=fixed;fontFamily=GOSTRUS;" parent="1" vertex="1">
          <mxGeometry x="290" y="240" width="40" height="40" as="geometry" />
        </mxCell>
        <mxCell id="2xTq2TT0dQwPNHppPy_b-14" value="" style="endArrow=none;html=1;rounded=0;entryX=0.5;entryY=1;entryDx=0;entryDy=0;exitX=0.5;exitY=0;exitDx=0;exitDy=0;" parent="1" source="2xTq2TT0dQwPNHppPy_b-13" target="RqMCuAcDXt-mt3hWwmX9-33" edge="1">
          <mxGeometry width="50" height="50" relative="1" as="geometry">
            <mxPoint x="110" y="290" as="sourcePoint" />
            <mxPoint x="160" y="240" as="targetPoint" />
          </mxGeometry>
        </mxCell>
        <mxCell id="2xTq2TT0dQwPNHppPy_b-15" value="" style="endArrow=none;html=1;rounded=0;entryX=0.5;entryY=1;entryDx=0;entryDy=0;exitX=0.5;exitY=0;exitDx=0;exitDy=0;" parent="1" source="2xTq2TT0dQwPNHppPy_b-12" target="RqMCuAcDXt-mt3hWwmX9-33" edge="1">
          <mxGeometry width="50" height="50" relative="1" as="geometry">
            <mxPoint x="110" y="290" as="sourcePoint" />
            <mxPoint x="160" y="240" as="targetPoint" />
          </mxGeometry>
        </mxCell>
        <mxCell id="2xTq2TT0dQwPNHppPy_b-18" value="&lt;p&gt;&lt;font&gt;v&lt;/font&gt;&lt;/p&gt;" style="ellipse;whiteSpace=wrap;html=1;aspect=fixed;fontFamily=GOSTRUS;" parent="1" vertex="1">
          <mxGeometry x="230" y="300" width="40" height="40" as="geometry" />
        </mxCell>
        <mxCell id="2xTq2TT0dQwPNHppPy_b-19" value="&lt;p&gt;&lt;font&gt;E&lt;/font&gt;&lt;/p&gt;" style="ellipse;whiteSpace=wrap;html=1;aspect=fixed;fontFamily=GOSTRUS;" parent="1" vertex="1">
          <mxGeometry x="290" y="300" width="40" height="40" as="geometry" />
        </mxCell>
        <mxCell id="2xTq2TT0dQwPNHppPy_b-20" value="" style="endArrow=none;html=1;rounded=0;exitX=0.5;exitY=0;exitDx=0;exitDy=0;entryX=0.5;entryY=1;entryDx=0;entryDy=0;" parent="1" source="2xTq2TT0dQwPNHppPy_b-18" target="2xTq2TT0dQwPNHppPy_b-13" edge="1">
          <mxGeometry width="50" height="50" relative="1" as="geometry">
            <mxPoint x="130" y="380" as="sourcePoint" />
            <mxPoint x="270" y="280" as="targetPoint" />
          </mxGeometry>
        </mxCell>
        <mxCell id="2xTq2TT0dQwPNHppPy_b-21" value="" style="endArrow=none;html=1;rounded=0;exitX=0.5;exitY=0;exitDx=0;exitDy=0;entryX=0.5;entryY=1;entryDx=0;entryDy=0;" parent="1" source="2xTq2TT0dQwPNHppPy_b-19" target="2xTq2TT0dQwPNHppPy_b-13" edge="1">
          <mxGeometry width="50" height="50" relative="1" as="geometry">
            <mxPoint x="130" y="380" as="sourcePoint" />
            <mxPoint x="270" y="280" as="targetPoint" />
          </mxGeometry>
        </mxCell>
        <mxCell id="2xTq2TT0dQwPNHppPy_b-22" value="&lt;p&gt;&lt;font&gt;i&lt;/font&gt;&lt;/p&gt;" style="ellipse;whiteSpace=wrap;html=1;aspect=fixed;fontFamily=GOSTRUS;" parent="1" vertex="1">
          <mxGeometry x="290" y="360" width="40" height="40" as="geometry" />
        </mxCell>
        <mxCell id="2xTq2TT0dQwPNHppPy_b-23" value="" style="endArrow=none;html=1;rounded=0;entryX=0.5;entryY=1;entryDx=0;entryDy=0;exitX=0.5;exitY=0;exitDx=0;exitDy=0;" parent="1" source="2xTq2TT0dQwPNHppPy_b-22" target="2xTq2TT0dQwPNHppPy_b-19" edge="1">
          <mxGeometry width="50" height="50" relative="1" as="geometry">
            <mxPoint x="130" y="390" as="sourcePoint" />
            <mxPoint x="180" y="340" as="targetPoint" />
          </mxGeometry>
        </mxCell>
        <mxCell id="smC2VsR5aSr_3LwA0y5b-1" value="N" style="ellipse;whiteSpace=wrap;html=1;aspect=fixed;fontFamily=GOSTRUS;" parent="1" vertex="1">
          <mxGeometry x="763" y="170" width="40" height="40" as="geometry" />
        </mxCell>
        <mxCell id="smC2VsR5aSr_3LwA0y5b-2" value="S" style="ellipse;whiteSpace=wrap;html=1;aspect=fixed;fontFamily=GOSTRUS;" parent="1" vertex="1">
          <mxGeometry x="869" y="170" width="40" height="40" as="geometry" />
        </mxCell>
        <mxCell id="smC2VsR5aSr_3LwA0y5b-3" value="" style="endArrow=none;html=1;rounded=0;entryX=0.5;entryY=0;entryDx=0;entryDy=0;" parent="1" target="smC2VsR5aSr_3LwA0y5b-2" edge="1">
          <mxGeometry width="50" height="50" relative="1" as="geometry">
            <mxPoint x="580" y="140" as="sourcePoint" />
            <mxPoint x="943" y="250" as="targetPoint" />
          </mxGeometry>
        </mxCell>
        <mxCell id="smC2VsR5aSr_3LwA0y5b-4" value="" style="endArrow=none;html=1;rounded=0;entryX=0.5;entryY=0;entryDx=0;entryDy=0;exitX=0.614;exitY=0.986;exitDx=0;exitDy=0;exitPerimeter=0;" parent="1" source="RqMCuAcDXt-mt3hWwmX9-26" target="smC2VsR5aSr_3LwA0y5b-1" edge="1">
          <mxGeometry width="50" height="50" relative="1" as="geometry">
            <mxPoint x="630" y="140" as="sourcePoint" />
            <mxPoint x="943" y="250" as="targetPoint" />
          </mxGeometry>
        </mxCell>
        <mxCell id="smC2VsR5aSr_3LwA0y5b-5" value="&lt;p&gt;F&lt;/p&gt;" style="ellipse;whiteSpace=wrap;html=1;aspect=fixed;fontFamily=GOSTRUS;" parent="1" vertex="1">
          <mxGeometry x="507" y="240" width="40" height="40" as="geometry" />
        </mxCell>
        <mxCell id="smC2VsR5aSr_3LwA0y5b-6" value="" style="endArrow=none;html=1;rounded=0;entryX=0.5;entryY=1;entryDx=0;entryDy=0;exitX=0.5;exitY=0;exitDx=0;exitDy=0;" parent="1" source="smC2VsR5aSr_3LwA0y5b-5" target="RqMCuAcDXt-mt3hWwmX9-76" edge="1">
          <mxGeometry width="50" height="50" relative="1" as="geometry">
            <mxPoint x="466" y="290" as="sourcePoint" />
            <mxPoint x="516" y="240" as="targetPoint" />
          </mxGeometry>
        </mxCell>
        <mxCell id="smC2VsR5aSr_3LwA0y5b-7" value="&lt;p&gt;&lt;font&gt;t&lt;/font&gt;&lt;/p&gt;" style="ellipse;whiteSpace=wrap;html=1;aspect=fixed;fontFamily=GOSTRUS;" parent="1" vertex="1">
          <mxGeometry x="350" y="300" width="40" height="40" as="geometry" />
        </mxCell>
        <mxCell id="smC2VsR5aSr_3LwA0y5b-8" value="&lt;p&gt;&lt;font&gt;i&lt;/font&gt;&lt;/p&gt;" style="ellipse;whiteSpace=wrap;html=1;aspect=fixed;fontFamily=GOSTRUS;" parent="1" vertex="1">
          <mxGeometry x="403" y="300" width="40" height="40" as="geometry" />
        </mxCell>
        <mxCell id="smC2VsR5aSr_3LwA0y5b-9" style="edgeStyle=none;orthogonalLoop=1;jettySize=auto;html=1;exitX=0.5;exitY=0;exitDx=0;exitDy=0;entryX=0.5;entryY=1;entryDx=0;entryDy=0;endArrow=none;endFill=0;fontFamily=GOSTRUS;" parent="1" source="smC2VsR5aSr_3LwA0y5b-7" target="smC2VsR5aSr_3LwA0y5b-5" edge="1">
          <mxGeometry relative="1" as="geometry">
            <mxPoint x="569" y="290" as="targetPoint" />
          </mxGeometry>
        </mxCell>
        <mxCell id="smC2VsR5aSr_3LwA0y5b-10" style="edgeStyle=none;orthogonalLoop=1;jettySize=auto;html=1;exitX=0.5;exitY=0;exitDx=0;exitDy=0;entryX=0.5;entryY=1;entryDx=0;entryDy=0;endArrow=none;endFill=0;fontFamily=GOSTRUS;" parent="1" source="smC2VsR5aSr_3LwA0y5b-8" target="smC2VsR5aSr_3LwA0y5b-5" edge="1">
          <mxGeometry relative="1" as="geometry">
            <mxPoint x="612" y="290" as="targetPoint" />
          </mxGeometry>
        </mxCell>
        <mxCell id="smC2VsR5aSr_3LwA0y5b-11" value="&lt;p&gt;&lt;font&gt;r&lt;/font&gt;&lt;/p&gt;" style="ellipse;whiteSpace=wrap;html=1;aspect=fixed;fontFamily=GOSTRUS;" parent="1" vertex="1">
          <mxGeometry x="570" y="240" width="40" height="40" as="geometry" />
        </mxCell>
        <mxCell id="smC2VsR5aSr_3LwA0y5b-13" style="edgeStyle=none;orthogonalLoop=1;jettySize=auto;html=1;exitX=0.5;exitY=0;exitDx=0;exitDy=0;entryX=0.5;entryY=1;entryDx=0;entryDy=0;endArrow=none;endFill=0;fontFamily=GOSTRUS;" parent="1" source="smC2VsR5aSr_3LwA0y5b-11" target="smC2VsR5aSr_3LwA0y5b-1" edge="1">
          <mxGeometry relative="1" as="geometry">
            <mxPoint x="668" y="210" as="targetPoint" />
          </mxGeometry>
        </mxCell>
        <mxCell id="smC2VsR5aSr_3LwA0y5b-18" value="&lt;p&gt;&lt;font&gt;l&lt;/font&gt;&lt;/p&gt;" style="ellipse;whiteSpace=wrap;html=1;aspect=fixed;fontFamily=GOSTRUS;" parent="1" vertex="1">
          <mxGeometry x="570" y="420" width="40" height="40" as="geometry" />
        </mxCell>
        <mxCell id="smC2VsR5aSr_3LwA0y5b-19" value="&lt;p&gt;&lt;font&gt;M&lt;/font&gt;&lt;/p&gt;" style="ellipse;whiteSpace=wrap;html=1;aspect=fixed;fontFamily=GOSTRUS;" parent="1" vertex="1">
          <mxGeometry x="631" y="420" width="40" height="40" as="geometry" />
        </mxCell>
        <mxCell id="smC2VsR5aSr_3LwA0y5b-20" value="" style="endArrow=none;html=1;rounded=0;entryX=0.5;entryY=1;entryDx=0;entryDy=0;exitX=0.5;exitY=0;exitDx=0;exitDy=0;" parent="1" source="smC2VsR5aSr_3LwA0y5b-18" target="smC2VsR5aSr_3LwA0y5b-51" edge="1">
          <mxGeometry width="50" height="50" relative="1" as="geometry">
            <mxPoint x="547" y="480" as="sourcePoint" />
            <mxPoint x="680" y="400" as="targetPoint" />
          </mxGeometry>
        </mxCell>
        <mxCell id="smC2VsR5aSr_3LwA0y5b-21" value="" style="endArrow=none;html=1;rounded=0;entryX=0.5;entryY=1;entryDx=0;entryDy=0;exitX=0.5;exitY=0;exitDx=0;exitDy=0;" parent="1" source="smC2VsR5aSr_3LwA0y5b-19" target="smC2VsR5aSr_3LwA0y5b-51" edge="1">
          <mxGeometry width="50" height="50" relative="1" as="geometry">
            <mxPoint x="547" y="480" as="sourcePoint" />
            <mxPoint x="680" y="400" as="targetPoint" />
          </mxGeometry>
        </mxCell>
        <mxCell id="smC2VsR5aSr_3LwA0y5b-22" value="&lt;p&gt;&lt;font&gt;E&lt;/font&gt;&lt;/p&gt;" style="ellipse;whiteSpace=wrap;html=1;aspect=fixed;fontFamily=GOSTRUS;" parent="1" vertex="1">
          <mxGeometry x="631" y="240" width="40" height="40" as="geometry" />
        </mxCell>
        <mxCell id="smC2VsR5aSr_3LwA0y5b-23" style="edgeStyle=none;orthogonalLoop=1;jettySize=auto;html=1;exitX=0.5;exitY=0;exitDx=0;exitDy=0;endArrow=none;endFill=0;fontFamily=GOSTRUS;entryX=0.5;entryY=1;entryDx=0;entryDy=0;" parent="1" source="smC2VsR5aSr_3LwA0y5b-22" target="smC2VsR5aSr_3LwA0y5b-1" edge="1">
          <mxGeometry relative="1" as="geometry">
            <mxPoint x="706" y="210" as="targetPoint" />
          </mxGeometry>
        </mxCell>
        <mxCell id="smC2VsR5aSr_3LwA0y5b-24" value="&lt;p&gt;&lt;font&gt;v&lt;/font&gt;&lt;/p&gt;" style="ellipse;whiteSpace=wrap;html=1;aspect=fixed;fontFamily=GOSTRUS;" parent="1" vertex="1">
          <mxGeometry x="570" y="480" width="40" height="40" as="geometry" />
        </mxCell>
        <mxCell id="smC2VsR5aSr_3LwA0y5b-25" value="&lt;p&gt;&lt;font&gt;E&lt;/font&gt;&lt;/p&gt;" style="ellipse;whiteSpace=wrap;html=1;aspect=fixed;fontFamily=GOSTRUS;" parent="1" vertex="1">
          <mxGeometry x="631" y="480" width="40" height="40" as="geometry" />
        </mxCell>
        <mxCell id="smC2VsR5aSr_3LwA0y5b-26" value="" style="endArrow=none;html=1;rounded=0;exitX=0.5;exitY=0;exitDx=0;exitDy=0;entryX=0.5;entryY=1;entryDx=0;entryDy=0;" parent="1" source="smC2VsR5aSr_3LwA0y5b-24" target="smC2VsR5aSr_3LwA0y5b-19" edge="1">
          <mxGeometry width="50" height="50" relative="1" as="geometry">
            <mxPoint x="510" y="560" as="sourcePoint" />
            <mxPoint x="650" y="460" as="targetPoint" />
          </mxGeometry>
        </mxCell>
        <mxCell id="smC2VsR5aSr_3LwA0y5b-27" value="" style="endArrow=none;html=1;rounded=0;exitX=0.5;exitY=0;exitDx=0;exitDy=0;entryX=0.5;entryY=1;entryDx=0;entryDy=0;" parent="1" source="smC2VsR5aSr_3LwA0y5b-25" target="smC2VsR5aSr_3LwA0y5b-19" edge="1">
          <mxGeometry width="50" height="50" relative="1" as="geometry">
            <mxPoint x="510" y="560" as="sourcePoint" />
            <mxPoint x="650" y="460" as="targetPoint" />
          </mxGeometry>
        </mxCell>
        <mxCell id="smC2VsR5aSr_3LwA0y5b-28" value="&lt;p&gt;&lt;font&gt;l&lt;/font&gt;&lt;/p&gt;" style="ellipse;whiteSpace=wrap;html=1;aspect=fixed;fontFamily=GOSTRUS;" parent="1" vertex="1">
          <mxGeometry x="631" y="540" width="40" height="40" as="geometry" />
        </mxCell>
        <mxCell id="smC2VsR5aSr_3LwA0y5b-29" value="" style="endArrow=none;html=1;rounded=0;entryX=0.5;entryY=1;entryDx=0;entryDy=0;exitX=0.5;exitY=0;exitDx=0;exitDy=0;" parent="1" source="smC2VsR5aSr_3LwA0y5b-28" target="smC2VsR5aSr_3LwA0y5b-25" edge="1">
          <mxGeometry width="50" height="50" relative="1" as="geometry">
            <mxPoint x="660" y="540" as="sourcePoint" />
            <mxPoint x="560" y="520" as="targetPoint" />
          </mxGeometry>
        </mxCell>
        <mxCell id="smC2VsR5aSr_3LwA0y5b-30" value="&lt;p&gt;m&lt;/p&gt;" style="ellipse;whiteSpace=wrap;html=1;aspect=fixed;fontFamily=GOSTRUS;" parent="1" vertex="1">
          <mxGeometry x="749" y="240" width="40" height="40" as="geometry" />
        </mxCell>
        <mxCell id="smC2VsR5aSr_3LwA0y5b-31" value="{" style="ellipse;whiteSpace=wrap;html=1;aspect=fixed;" parent="1" vertex="1">
          <mxGeometry x="809" y="240" width="40" height="40" as="geometry" />
        </mxCell>
        <mxCell id="smC2VsR5aSr_3LwA0y5b-32" value="N" style="ellipse;whiteSpace=wrap;html=1;aspect=fixed;" parent="1" vertex="1">
          <mxGeometry x="869" y="240" width="40" height="40" as="geometry" />
        </mxCell>
        <mxCell id="smC2VsR5aSr_3LwA0y5b-33" value="}" style="ellipse;whiteSpace=wrap;html=1;aspect=fixed;" parent="1" vertex="1">
          <mxGeometry x="929" y="240" width="40" height="40" as="geometry" />
        </mxCell>
        <mxCell id="smC2VsR5aSr_3LwA0y5b-34" style="edgeStyle=none;orthogonalLoop=1;jettySize=auto;html=1;exitX=0.5;exitY=0;exitDx=0;exitDy=0;endArrow=none;endFill=0;entryX=0.5;entryY=1;entryDx=0;entryDy=0;" parent="1" source="smC2VsR5aSr_3LwA0y5b-33" target="smC2VsR5aSr_3LwA0y5b-2" edge="1">
          <mxGeometry relative="1" as="geometry">
            <mxPoint x="766" y="190" as="targetPoint" />
          </mxGeometry>
        </mxCell>
        <mxCell id="smC2VsR5aSr_3LwA0y5b-35" style="edgeStyle=none;orthogonalLoop=1;jettySize=auto;html=1;exitX=0.5;exitY=0;exitDx=0;exitDy=0;endArrow=none;endFill=0;entryX=0.5;entryY=1;entryDx=0;entryDy=0;" parent="1" source="smC2VsR5aSr_3LwA0y5b-32" target="smC2VsR5aSr_3LwA0y5b-2" edge="1">
          <mxGeometry relative="1" as="geometry">
            <mxPoint x="766" y="190" as="targetPoint" />
          </mxGeometry>
        </mxCell>
        <mxCell id="smC2VsR5aSr_3LwA0y5b-36" style="edgeStyle=none;orthogonalLoop=1;jettySize=auto;html=1;exitX=0.5;exitY=0;exitDx=0;exitDy=0;endArrow=none;endFill=0;entryX=0.5;entryY=1;entryDx=0;entryDy=0;" parent="1" source="smC2VsR5aSr_3LwA0y5b-31" target="smC2VsR5aSr_3LwA0y5b-2" edge="1">
          <mxGeometry relative="1" as="geometry">
            <mxPoint x="766" y="210" as="targetPoint" />
          </mxGeometry>
        </mxCell>
        <mxCell id="smC2VsR5aSr_3LwA0y5b-37" value="" style="endArrow=none;html=1;rounded=0;entryX=0.5;entryY=1;entryDx=0;entryDy=0;exitX=0.5;exitY=0;exitDx=0;exitDy=0;" parent="1" source="smC2VsR5aSr_3LwA0y5b-30" target="smC2VsR5aSr_3LwA0y5b-2" edge="1">
          <mxGeometry width="50" height="50" relative="1" as="geometry">
            <mxPoint x="756" y="250" as="sourcePoint" />
            <mxPoint x="806" y="200" as="targetPoint" />
          </mxGeometry>
        </mxCell>
        <mxCell id="smC2VsR5aSr_3LwA0y5b-38" value="N" style="ellipse;whiteSpace=wrap;html=1;aspect=fixed;" parent="1" vertex="1">
          <mxGeometry x="691" y="300" width="40" height="40" as="geometry" />
        </mxCell>
        <mxCell id="smC2VsR5aSr_3LwA0y5b-39" style="edgeStyle=none;orthogonalLoop=1;jettySize=auto;html=1;exitX=0.5;exitY=0;exitDx=0;exitDy=0;endArrow=none;endFill=0;entryX=0.5;entryY=1;entryDx=0;entryDy=0;" parent="1" source="smC2VsR5aSr_3LwA0y5b-38" target="smC2VsR5aSr_3LwA0y5b-32" edge="1">
          <mxGeometry relative="1" as="geometry">
            <mxPoint x="893" y="280" as="targetPoint" />
            <mxPoint x="757" y="300" as="sourcePoint" />
          </mxGeometry>
        </mxCell>
        <mxCell id="smC2VsR5aSr_3LwA0y5b-40" style="edgeStyle=none;orthogonalLoop=1;jettySize=auto;html=1;exitX=0.5;exitY=0;exitDx=0;exitDy=0;endArrow=none;endFill=0;entryX=0.5;entryY=1;entryDx=0;entryDy=0;" parent="1" source="smC2VsR5aSr_3LwA0y5b-41" target="smC2VsR5aSr_3LwA0y5b-32" edge="1">
          <mxGeometry relative="1" as="geometry">
            <mxPoint x="847" y="280" as="targetPoint" />
          </mxGeometry>
        </mxCell>
        <mxCell id="smC2VsR5aSr_3LwA0y5b-41" value="t" style="ellipse;whiteSpace=wrap;html=1;aspect=fixed;" parent="1" vertex="1">
          <mxGeometry x="631" y="300" width="40" height="40" as="geometry" />
        </mxCell>
        <mxCell id="smC2VsR5aSr_3LwA0y5b-42" style="edgeStyle=none;orthogonalLoop=1;jettySize=auto;html=1;exitX=0.5;exitY=0;exitDx=0;exitDy=0;endArrow=none;endFill=0;entryX=0.5;entryY=1;entryDx=0;entryDy=0;" parent="1" source="smC2VsR5aSr_3LwA0y5b-43" target="smC2VsR5aSr_3LwA0y5b-32" edge="1">
          <mxGeometry relative="1" as="geometry">
            <mxPoint x="847" y="280" as="targetPoint" />
          </mxGeometry>
        </mxCell>
        <mxCell id="smC2VsR5aSr_3LwA0y5b-43" value="d" style="ellipse;whiteSpace=wrap;html=1;aspect=fixed;" parent="1" vertex="1">
          <mxGeometry x="571" y="300" width="40" height="40" as="geometry" />
        </mxCell>
        <mxCell id="smC2VsR5aSr_3LwA0y5b-46" style="edgeStyle=none;orthogonalLoop=1;jettySize=auto;html=1;exitX=0.5;exitY=0;exitDx=0;exitDy=0;entryX=0.5;entryY=1;entryDx=0;entryDy=0;endArrow=none;endFill=0;fontFamily=GOSTRUS;" parent="1" source="smC2VsR5aSr_3LwA0y5b-47" target="smC2VsR5aSr_3LwA0y5b-38" edge="1">
          <mxGeometry relative="1" as="geometry">
            <mxPoint x="527.5" y="330" as="targetPoint" />
          </mxGeometry>
        </mxCell>
        <mxCell id="smC2VsR5aSr_3LwA0y5b-47" value="&lt;p&gt;&lt;font&gt;i&lt;/font&gt;&lt;/p&gt;" style="ellipse;whiteSpace=wrap;html=1;aspect=fixed;fontFamily=GOSTRUS;" parent="1" vertex="1">
          <mxGeometry x="571" y="360" width="40" height="40" as="geometry" />
        </mxCell>
        <mxCell id="smC2VsR5aSr_3LwA0y5b-48" style="edgeStyle=none;orthogonalLoop=1;jettySize=auto;html=1;exitX=0.5;exitY=0;exitDx=0;exitDy=0;entryX=0.5;entryY=1;entryDx=0;entryDy=0;endArrow=none;endFill=0;fontFamily=GOSTRUS;" parent="1" source="smC2VsR5aSr_3LwA0y5b-49" target="smC2VsR5aSr_3LwA0y5b-38" edge="1">
          <mxGeometry relative="1" as="geometry">
            <mxPoint x="527.5" y="330" as="targetPoint" />
          </mxGeometry>
        </mxCell>
        <mxCell id="smC2VsR5aSr_3LwA0y5b-49" value="&lt;p&gt;&lt;font&gt;=&lt;/font&gt;&lt;/p&gt;" style="ellipse;whiteSpace=wrap;html=1;aspect=fixed;fontFamily=GOSTRUS;" parent="1" vertex="1">
          <mxGeometry x="631" y="360" width="40" height="40" as="geometry" />
        </mxCell>
        <mxCell id="smC2VsR5aSr_3LwA0y5b-50" style="edgeStyle=none;orthogonalLoop=1;jettySize=auto;html=1;exitX=0.5;exitY=0;exitDx=0;exitDy=0;entryX=0.5;entryY=1;entryDx=0;entryDy=0;endArrow=none;endFill=0;fontFamily=GOSTRUS;" parent="1" source="smC2VsR5aSr_3LwA0y5b-51" target="smC2VsR5aSr_3LwA0y5b-38" edge="1">
          <mxGeometry relative="1" as="geometry">
            <mxPoint x="527.5" y="330" as="targetPoint" />
          </mxGeometry>
        </mxCell>
        <mxCell id="smC2VsR5aSr_3LwA0y5b-51" value="E" style="ellipse;whiteSpace=wrap;html=1;aspect=fixed;fontFamily=GOSTRUS;" parent="1" vertex="1">
          <mxGeometry x="691" y="360" width="40" height="40" as="geometry" />
        </mxCell>
        <mxCell id="smC2VsR5aSr_3LwA0y5b-52" style="rounded=0;orthogonalLoop=1;jettySize=auto;html=1;exitX=0.5;exitY=0;exitDx=0;exitDy=0;entryX=0.5;entryY=1;entryDx=0;entryDy=0;endArrow=none;endFill=0;" parent="1" source="smC2VsR5aSr_3LwA0y5b-53" target="smC2VsR5aSr_3LwA0y5b-38" edge="1">
          <mxGeometry relative="1" as="geometry">
            <mxPoint x="527.5" y="330" as="targetPoint" />
          </mxGeometry>
        </mxCell>
        <mxCell id="smC2VsR5aSr_3LwA0y5b-53" value=";" style="ellipse;whiteSpace=wrap;html=1;aspect=fixed;fontFamily=GOSTRUS;" parent="1" vertex="1">
          <mxGeometry x="751" y="360" width="40" height="40" as="geometry" />
        </mxCell>
        <mxCell id="smC2VsR5aSr_3LwA0y5b-54" value="" style="endArrow=none;html=1;rounded=0;exitX=0.5;exitY=1;exitDx=0;exitDy=0;entryX=0.5;entryY=0;entryDx=0;entryDy=0;" parent="1" source="smC2VsR5aSr_3LwA0y5b-38" target="smC2VsR5aSr_3LwA0y5b-55" edge="1">
          <mxGeometry width="50" height="50" relative="1" as="geometry">
            <mxPoint x="527.5" y="330" as="sourcePoint" />
            <mxPoint x="811" y="360" as="targetPoint" />
          </mxGeometry>
        </mxCell>
        <mxCell id="smC2VsR5aSr_3LwA0y5b-55" value="N" style="ellipse;whiteSpace=wrap;html=1;aspect=fixed;" parent="1" vertex="1">
          <mxGeometry x="811" y="360" width="40" height="40" as="geometry" />
        </mxCell>
        <mxCell id="smC2VsR5aSr_3LwA0y5b-56" value="N" style="ellipse;whiteSpace=wrap;html=1;aspect=fixed;" parent="1" vertex="1">
          <mxGeometry x="811" y="420" width="40" height="40" as="geometry" />
        </mxCell>
        <mxCell id="smC2VsR5aSr_3LwA0y5b-57" value="t" style="ellipse;whiteSpace=wrap;html=1;aspect=fixed;" parent="1" vertex="1">
          <mxGeometry x="751" y="420" width="40" height="40" as="geometry" />
        </mxCell>
        <mxCell id="smC2VsR5aSr_3LwA0y5b-58" value="d" style="ellipse;whiteSpace=wrap;html=1;aspect=fixed;" parent="1" vertex="1">
          <mxGeometry x="691" y="420" width="40" height="40" as="geometry" />
        </mxCell>
        <mxCell id="smC2VsR5aSr_3LwA0y5b-59" value="&lt;p&gt;&lt;font&gt;i&lt;/font&gt;&lt;/p&gt;" style="ellipse;whiteSpace=wrap;html=1;aspect=fixed;fontFamily=GOSTRUS;" parent="1" vertex="1">
          <mxGeometry x="466" y="300" width="40" height="40" as="geometry" />
        </mxCell>
        <mxCell id="smC2VsR5aSr_3LwA0y5b-60" value="&lt;p&gt;&lt;font&gt;M&lt;/font&gt;&lt;/p&gt;" style="ellipse;whiteSpace=wrap;html=1;aspect=fixed;fontFamily=GOSTRUS;" parent="1" vertex="1">
          <mxGeometry x="516" y="300" width="40" height="40" as="geometry" />
        </mxCell>
        <mxCell id="smC2VsR5aSr_3LwA0y5b-61" value="" style="endArrow=none;html=1;rounded=0;entryX=0.5;entryY=1;entryDx=0;entryDy=0;exitX=0.5;exitY=0;exitDx=0;exitDy=0;" parent="1" source="smC2VsR5aSr_3LwA0y5b-60" target="smC2VsR5aSr_3LwA0y5b-22" edge="1">
          <mxGeometry width="50" height="50" relative="1" as="geometry">
            <mxPoint x="517" y="360" as="sourcePoint" />
            <mxPoint x="657" y="280" as="targetPoint" />
          </mxGeometry>
        </mxCell>
        <mxCell id="smC2VsR5aSr_3LwA0y5b-62" value="" style="endArrow=none;html=1;rounded=0;exitX=0.5;exitY=0;exitDx=0;exitDy=0;" parent="1" source="smC2VsR5aSr_3LwA0y5b-59" edge="1">
          <mxGeometry width="50" height="50" relative="1" as="geometry">
            <mxPoint x="517" y="360" as="sourcePoint" />
            <mxPoint x="653" y="280" as="targetPoint" />
          </mxGeometry>
        </mxCell>
        <mxCell id="smC2VsR5aSr_3LwA0y5b-63" value="&lt;p&gt;&lt;font&gt;v&lt;/font&gt;&lt;/p&gt;" style="ellipse;whiteSpace=wrap;html=1;aspect=fixed;fontFamily=GOSTRUS;" parent="1" vertex="1">
          <mxGeometry x="461" y="360" width="40" height="40" as="geometry" />
        </mxCell>
        <mxCell id="smC2VsR5aSr_3LwA0y5b-64" value="&lt;p&gt;&lt;font&gt;E&lt;/font&gt;&lt;/p&gt;" style="ellipse;whiteSpace=wrap;html=1;aspect=fixed;fontFamily=GOSTRUS;" parent="1" vertex="1">
          <mxGeometry x="516" y="360" width="40" height="40" as="geometry" />
        </mxCell>
        <mxCell id="smC2VsR5aSr_3LwA0y5b-65" value="" style="endArrow=none;html=1;rounded=0;exitX=0.5;exitY=0;exitDx=0;exitDy=0;" parent="1" edge="1">
          <mxGeometry width="50" height="50" relative="1" as="geometry">
            <mxPoint x="486" y="360" as="sourcePoint" />
            <mxPoint x="536" y="340" as="targetPoint" />
          </mxGeometry>
        </mxCell>
        <mxCell id="smC2VsR5aSr_3LwA0y5b-66" value="" style="endArrow=none;html=1;rounded=0;exitX=0.5;exitY=0;exitDx=0;exitDy=0;" parent="1" edge="1">
          <mxGeometry width="50" height="50" relative="1" as="geometry">
            <mxPoint x="536" y="360" as="sourcePoint" />
            <mxPoint x="536" y="340" as="targetPoint" />
          </mxGeometry>
        </mxCell>
        <mxCell id="smC2VsR5aSr_3LwA0y5b-67" value="&lt;p&gt;&lt;font&gt;i&lt;/font&gt;&lt;/p&gt;" style="ellipse;whiteSpace=wrap;html=1;aspect=fixed;fontFamily=GOSTRUS;" parent="1" vertex="1">
          <mxGeometry x="516" y="420" width="40" height="40" as="geometry" />
        </mxCell>
        <mxCell id="smC2VsR5aSr_3LwA0y5b-68" value="" style="endArrow=none;html=1;rounded=0;entryX=0.5;entryY=1;entryDx=0;entryDy=0;exitX=0.5;exitY=0;exitDx=0;exitDy=0;" parent="1" source="smC2VsR5aSr_3LwA0y5b-67" target="smC2VsR5aSr_3LwA0y5b-64" edge="1">
          <mxGeometry width="50" height="50" relative="1" as="geometry">
            <mxPoint x="365" y="450" as="sourcePoint" />
            <mxPoint x="415" y="400" as="targetPoint" />
          </mxGeometry>
        </mxCell>
        <mxCell id="smC2VsR5aSr_3LwA0y5b-69" value="" style="endArrow=none;html=1;rounded=0;entryX=0.5;entryY=1;entryDx=0;entryDy=0;exitX=0.5;exitY=0;exitDx=0;exitDy=0;" parent="1" source="smC2VsR5aSr_3LwA0y5b-58" target="smC2VsR5aSr_3LwA0y5b-55" edge="1">
          <mxGeometry width="50" height="50" relative="1" as="geometry">
            <mxPoint x="740" y="420" as="sourcePoint" />
            <mxPoint x="790" y="370" as="targetPoint" />
          </mxGeometry>
        </mxCell>
        <mxCell id="smC2VsR5aSr_3LwA0y5b-70" value="" style="endArrow=none;html=1;rounded=0;exitX=0.5;exitY=0;exitDx=0;exitDy=0;" parent="1" source="smC2VsR5aSr_3LwA0y5b-57" edge="1">
          <mxGeometry width="50" height="50" relative="1" as="geometry">
            <mxPoint x="750" y="430" as="sourcePoint" />
            <mxPoint x="830" y="400" as="targetPoint" />
          </mxGeometry>
        </mxCell>
        <mxCell id="smC2VsR5aSr_3LwA0y5b-71" value="" style="endArrow=none;html=1;rounded=0;entryX=0.5;entryY=1;entryDx=0;entryDy=0;exitX=0.5;exitY=0;exitDx=0;exitDy=0;" parent="1" source="smC2VsR5aSr_3LwA0y5b-56" target="smC2VsR5aSr_3LwA0y5b-55" edge="1">
          <mxGeometry width="50" height="50" relative="1" as="geometry">
            <mxPoint x="810" y="430" as="sourcePoint" />
            <mxPoint x="810" y="410" as="targetPoint" />
          </mxGeometry>
        </mxCell>
        <mxCell id="smC2VsR5aSr_3LwA0y5b-72" style="edgeStyle=none;orthogonalLoop=1;jettySize=auto;html=1;exitX=0.5;exitY=0;exitDx=0;exitDy=0;entryX=0.5;entryY=1;entryDx=0;entryDy=0;endArrow=none;endFill=0;fontFamily=GOSTRUS;" parent="1" source="smC2VsR5aSr_3LwA0y5b-73" edge="1">
          <mxGeometry relative="1" as="geometry">
            <mxPoint x="831" y="460" as="targetPoint" />
          </mxGeometry>
        </mxCell>
        <mxCell id="smC2VsR5aSr_3LwA0y5b-73" value="&lt;p&gt;&lt;font&gt;i&lt;/font&gt;&lt;/p&gt;" style="ellipse;whiteSpace=wrap;html=1;aspect=fixed;fontFamily=GOSTRUS;" parent="1" vertex="1">
          <mxGeometry x="691" y="480" width="40" height="40" as="geometry" />
        </mxCell>
        <mxCell id="smC2VsR5aSr_3LwA0y5b-74" style="edgeStyle=none;orthogonalLoop=1;jettySize=auto;html=1;exitX=0.5;exitY=0;exitDx=0;exitDy=0;entryX=0.5;entryY=1;entryDx=0;entryDy=0;endArrow=none;endFill=0;fontFamily=GOSTRUS;" parent="1" source="smC2VsR5aSr_3LwA0y5b-75" edge="1">
          <mxGeometry relative="1" as="geometry">
            <mxPoint x="831" y="460" as="targetPoint" />
          </mxGeometry>
        </mxCell>
        <mxCell id="smC2VsR5aSr_3LwA0y5b-75" value="&lt;p&gt;&lt;font&gt;=&lt;/font&gt;&lt;/p&gt;" style="ellipse;whiteSpace=wrap;html=1;aspect=fixed;fontFamily=GOSTRUS;" parent="1" vertex="1">
          <mxGeometry x="751" y="480" width="40" height="40" as="geometry" />
        </mxCell>
        <mxCell id="smC2VsR5aSr_3LwA0y5b-76" style="edgeStyle=none;orthogonalLoop=1;jettySize=auto;html=1;exitX=0.5;exitY=0;exitDx=0;exitDy=0;entryX=0.5;entryY=1;entryDx=0;entryDy=0;endArrow=none;endFill=0;fontFamily=GOSTRUS;" parent="1" source="smC2VsR5aSr_3LwA0y5b-77" edge="1">
          <mxGeometry relative="1" as="geometry">
            <mxPoint x="831" y="460" as="targetPoint" />
          </mxGeometry>
        </mxCell>
        <mxCell id="smC2VsR5aSr_3LwA0y5b-77" value="E" style="ellipse;whiteSpace=wrap;html=1;aspect=fixed;fontFamily=GOSTRUS;" parent="1" vertex="1">
          <mxGeometry x="811" y="480" width="40" height="40" as="geometry" />
        </mxCell>
        <mxCell id="smC2VsR5aSr_3LwA0y5b-78" style="rounded=0;orthogonalLoop=1;jettySize=auto;html=1;exitX=0.5;exitY=0;exitDx=0;exitDy=0;entryX=0.5;entryY=1;entryDx=0;entryDy=0;endArrow=none;endFill=0;" parent="1" source="smC2VsR5aSr_3LwA0y5b-79" edge="1">
          <mxGeometry relative="1" as="geometry">
            <mxPoint x="831" y="460" as="targetPoint" />
          </mxGeometry>
        </mxCell>
        <mxCell id="smC2VsR5aSr_3LwA0y5b-79" value=";" style="ellipse;whiteSpace=wrap;html=1;aspect=fixed;fontFamily=GOSTRUS;" parent="1" vertex="1">
          <mxGeometry x="871" y="480" width="40" height="40" as="geometry" />
        </mxCell>
        <mxCell id="smC2VsR5aSr_3LwA0y5b-80" value="" style="endArrow=none;html=1;rounded=0;exitX=0.5;exitY=1;exitDx=0;exitDy=0;entryX=0.5;entryY=0;entryDx=0;entryDy=0;" parent="1" target="smC2VsR5aSr_3LwA0y5b-81" edge="1">
          <mxGeometry width="50" height="50" relative="1" as="geometry">
            <mxPoint x="831" y="460" as="sourcePoint" />
            <mxPoint x="931" y="480" as="targetPoint" />
          </mxGeometry>
        </mxCell>
        <mxCell id="smC2VsR5aSr_3LwA0y5b-81" value="N" style="ellipse;whiteSpace=wrap;html=1;aspect=fixed;" parent="1" vertex="1">
          <mxGeometry x="931" y="480" width="40" height="40" as="geometry" />
        </mxCell>
        <mxCell id="smC2VsR5aSr_3LwA0y5b-82" value="&lt;p&gt;&lt;font&gt;~&lt;/font&gt;&lt;/p&gt;" style="ellipse;whiteSpace=wrap;html=1;aspect=fixed;fontFamily=GOSTRUS;" parent="1" vertex="1">
          <mxGeometry x="691" y="539.31" width="40" height="40" as="geometry" />
        </mxCell>
        <mxCell id="smC2VsR5aSr_3LwA0y5b-83" value="E" style="ellipse;whiteSpace=wrap;html=1;aspect=fixed;fontFamily=GOSTRUS;" parent="1" vertex="1">
          <mxGeometry x="751" y="539.31" width="40" height="40" as="geometry" />
        </mxCell>
        <mxCell id="smC2VsR5aSr_3LwA0y5b-84" style="edgeStyle=none;orthogonalLoop=1;jettySize=auto;html=1;exitX=0.5;exitY=0;exitDx=0;exitDy=0;entryX=0.5;entryY=1;entryDx=0;entryDy=0;endArrow=none;endFill=0;fontFamily=GOSTRUS;" parent="1" source="smC2VsR5aSr_3LwA0y5b-82" edge="1">
          <mxGeometry relative="1" as="geometry">
            <mxPoint x="831" y="520" as="targetPoint" />
            <mxPoint x="771" y="540" as="sourcePoint" />
          </mxGeometry>
        </mxCell>
        <mxCell id="smC2VsR5aSr_3LwA0y5b-85" style="edgeStyle=none;orthogonalLoop=1;jettySize=auto;html=1;exitX=0.5;exitY=0;exitDx=0;exitDy=0;entryX=0.5;entryY=1;entryDx=0;entryDy=0;endArrow=none;endFill=0;fontFamily=GOSTRUS;" parent="1" source="smC2VsR5aSr_3LwA0y5b-83" edge="1">
          <mxGeometry relative="1" as="geometry">
            <mxPoint x="831" y="520" as="targetPoint" />
            <mxPoint x="831" y="540" as="sourcePoint" />
          </mxGeometry>
        </mxCell>
        <mxCell id="smC2VsR5aSr_3LwA0y5b-86" value="&lt;p&gt;&lt;font&gt;l&lt;/font&gt;&lt;/p&gt;" style="ellipse;whiteSpace=wrap;html=1;aspect=fixed;fontFamily=GOSTRUS;" parent="1" vertex="1">
          <mxGeometry x="751" y="599.31" width="40" height="40" as="geometry" />
        </mxCell>
        <mxCell id="smC2VsR5aSr_3LwA0y5b-87" value="" style="endArrow=none;html=1;rounded=0;entryX=0.5;entryY=1;entryDx=0;entryDy=0;exitX=0.5;exitY=0;exitDx=0;exitDy=0;" parent="1" edge="1">
          <mxGeometry width="50" height="50" relative="1" as="geometry">
            <mxPoint x="771" y="599.3099999999997" as="sourcePoint" />
            <mxPoint x="771" y="579.31" as="targetPoint" />
          </mxGeometry>
        </mxCell>
        <mxCell id="smC2VsR5aSr_3LwA0y5b-88" value="N" style="ellipse;whiteSpace=wrap;html=1;aspect=fixed;" parent="1" vertex="1">
          <mxGeometry x="931" y="540" width="40" height="40" as="geometry" />
        </mxCell>
        <mxCell id="smC2VsR5aSr_3LwA0y5b-89" value="t" style="ellipse;whiteSpace=wrap;html=1;aspect=fixed;" parent="1" vertex="1">
          <mxGeometry x="871" y="540" width="40" height="40" as="geometry" />
        </mxCell>
        <mxCell id="smC2VsR5aSr_3LwA0y5b-90" value="d" style="ellipse;whiteSpace=wrap;html=1;aspect=fixed;" parent="1" vertex="1">
          <mxGeometry x="811" y="540" width="40" height="40" as="geometry" />
        </mxCell>
        <mxCell id="smC2VsR5aSr_3LwA0y5b-91" style="edgeStyle=none;orthogonalLoop=1;jettySize=auto;html=1;exitX=0.5;exitY=0;exitDx=0;exitDy=0;entryX=0.5;entryY=1;entryDx=0;entryDy=0;endArrow=none;endFill=0;fontFamily=GOSTRUS;" parent="1" source="smC2VsR5aSr_3LwA0y5b-92" target="smC2VsR5aSr_3LwA0y5b-88" edge="1">
          <mxGeometry relative="1" as="geometry">
            <mxPoint x="964" y="580" as="targetPoint" />
            <mxPoint x="844" y="599.9999999999998" as="sourcePoint" />
          </mxGeometry>
        </mxCell>
        <mxCell id="smC2VsR5aSr_3LwA0y5b-92" value="&lt;p&gt;&lt;font&gt;i&lt;/font&gt;&lt;/p&gt;" style="ellipse;whiteSpace=wrap;html=1;aspect=fixed;fontFamily=GOSTRUS;" parent="1" vertex="1">
          <mxGeometry x="811" y="600" width="40" height="40" as="geometry" />
        </mxCell>
        <mxCell id="smC2VsR5aSr_3LwA0y5b-93" style="edgeStyle=none;orthogonalLoop=1;jettySize=auto;html=1;exitX=0.5;exitY=0;exitDx=0;exitDy=0;endArrow=none;endFill=0;fontFamily=GOSTRUS;" parent="1" source="smC2VsR5aSr_3LwA0y5b-94" edge="1">
          <mxGeometry relative="1" as="geometry">
            <mxPoint x="951" y="580" as="targetPoint" />
            <mxPoint x="904" y="599.9999999999998" as="sourcePoint" />
          </mxGeometry>
        </mxCell>
        <mxCell id="smC2VsR5aSr_3LwA0y5b-94" value="&lt;p&gt;&lt;font&gt;=&lt;/font&gt;&lt;/p&gt;" style="ellipse;whiteSpace=wrap;html=1;aspect=fixed;fontFamily=GOSTRUS;" parent="1" vertex="1">
          <mxGeometry x="871" y="600" width="40" height="40" as="geometry" />
        </mxCell>
        <mxCell id="smC2VsR5aSr_3LwA0y5b-95" style="edgeStyle=none;orthogonalLoop=1;jettySize=auto;html=1;exitX=0.5;exitY=0;exitDx=0;exitDy=0;entryX=0.5;entryY=1;entryDx=0;entryDy=0;endArrow=none;endFill=0;fontFamily=GOSTRUS;" parent="1" source="smC2VsR5aSr_3LwA0y5b-96" target="smC2VsR5aSr_3LwA0y5b-88" edge="1">
          <mxGeometry relative="1" as="geometry">
            <mxPoint x="964" y="580" as="targetPoint" />
            <mxPoint x="964" y="599.9999999999998" as="sourcePoint" />
          </mxGeometry>
        </mxCell>
        <mxCell id="smC2VsR5aSr_3LwA0y5b-96" value="E" style="ellipse;whiteSpace=wrap;html=1;aspect=fixed;fontFamily=GOSTRUS;" parent="1" vertex="1">
          <mxGeometry x="931" y="600" width="40" height="40" as="geometry" />
        </mxCell>
        <mxCell id="smC2VsR5aSr_3LwA0y5b-97" style="rounded=0;orthogonalLoop=1;jettySize=auto;html=1;exitX=0.5;exitY=0;exitDx=0;exitDy=0;entryX=0.5;entryY=1;entryDx=0;entryDy=0;endArrow=none;endFill=0;" parent="1" source="smC2VsR5aSr_3LwA0y5b-98" target="smC2VsR5aSr_3LwA0y5b-88" edge="1">
          <mxGeometry relative="1" as="geometry">
            <mxPoint x="964" y="580" as="targetPoint" />
            <mxPoint x="1024" y="599.9999999999998" as="sourcePoint" />
          </mxGeometry>
        </mxCell>
        <mxCell id="smC2VsR5aSr_3LwA0y5b-98" value=";" style="ellipse;whiteSpace=wrap;html=1;aspect=fixed;fontFamily=GOSTRUS;" parent="1" vertex="1">
          <mxGeometry x="991" y="600" width="40" height="40" as="geometry" />
        </mxCell>
        <mxCell id="smC2VsR5aSr_3LwA0y5b-99" value="" style="endArrow=none;html=1;rounded=0;exitX=0.5;exitY=1;exitDx=0;exitDy=0;entryX=0.5;entryY=0;entryDx=0;entryDy=0;" parent="1" source="smC2VsR5aSr_3LwA0y5b-88" target="smC2VsR5aSr_3LwA0y5b-100" edge="1">
          <mxGeometry width="50" height="50" relative="1" as="geometry">
            <mxPoint x="964" y="580" as="sourcePoint" />
            <mxPoint x="1084" y="599.9999999999998" as="targetPoint" />
          </mxGeometry>
        </mxCell>
        <mxCell id="smC2VsR5aSr_3LwA0y5b-100" value="N" style="ellipse;whiteSpace=wrap;html=1;aspect=fixed;" parent="1" vertex="1">
          <mxGeometry x="1051" y="600" width="40" height="40" as="geometry" />
        </mxCell>
        <mxCell id="smC2VsR5aSr_3LwA0y5b-106" value="" style="endArrow=none;html=1;rounded=0;exitX=0.5;exitY=0;exitDx=0;exitDy=0;" parent="1" source="smC2VsR5aSr_3LwA0y5b-89" edge="1">
          <mxGeometry width="50" height="50" relative="1" as="geometry">
            <mxPoint x="951" y="540" as="sourcePoint" />
            <mxPoint x="951" y="520" as="targetPoint" />
          </mxGeometry>
        </mxCell>
        <mxCell id="smC2VsR5aSr_3LwA0y5b-107" value="" style="endArrow=none;html=1;rounded=0;entryX=0.5;entryY=1;entryDx=0;entryDy=0;exitX=0.425;exitY=0.01;exitDx=0;exitDy=0;exitPerimeter=0;" parent="1" source="smC2VsR5aSr_3LwA0y5b-90" target="smC2VsR5aSr_3LwA0y5b-81" edge="1">
          <mxGeometry width="50" height="50" relative="1" as="geometry">
            <mxPoint x="891" y="540" as="sourcePoint" />
            <mxPoint x="971" y="580" as="targetPoint" />
          </mxGeometry>
        </mxCell>
        <mxCell id="smC2VsR5aSr_3LwA0y5b-108" value="W" style="ellipse;whiteSpace=wrap;html=1;aspect=fixed;" parent="1" vertex="1">
          <mxGeometry x="931" y="670" width="40" height="40" as="geometry" />
        </mxCell>
        <mxCell id="smC2VsR5aSr_3LwA0y5b-109" value="(" style="ellipse;whiteSpace=wrap;html=1;aspect=fixed;" parent="1" vertex="1">
          <mxGeometry x="871" y="670" width="40" height="40" as="geometry" />
        </mxCell>
        <mxCell id="smC2VsR5aSr_3LwA0y5b-110" value="i" style="ellipse;whiteSpace=wrap;html=1;aspect=fixed;" parent="1" vertex="1">
          <mxGeometry x="811" y="670" width="40" height="40" as="geometry" />
        </mxCell>
        <mxCell id="smC2VsR5aSr_3LwA0y5b-112" value="" style="endArrow=none;html=1;rounded=0;exitX=0.5;exitY=0;exitDx=0;exitDy=0;entryX=0.5;entryY=1;entryDx=0;entryDy=0;" parent="1" source="smC2VsR5aSr_3LwA0y5b-109" target="smC2VsR5aSr_3LwA0y5b-96" edge="1">
          <mxGeometry width="50" height="50" relative="1" as="geometry">
            <mxPoint x="874" y="760" as="sourcePoint" />
            <mxPoint x="964" y="640" as="targetPoint" />
          </mxGeometry>
        </mxCell>
        <mxCell id="smC2VsR5aSr_3LwA0y5b-113" value="" style="endArrow=none;html=1;rounded=0;exitX=0.5;exitY=0;exitDx=0;exitDy=0;entryX=0.5;entryY=1;entryDx=0;entryDy=0;" parent="1" source="smC2VsR5aSr_3LwA0y5b-110" target="smC2VsR5aSr_3LwA0y5b-96" edge="1">
          <mxGeometry width="50" height="50" relative="1" as="geometry">
            <mxPoint x="874" y="760" as="sourcePoint" />
            <mxPoint x="964" y="641" as="targetPoint" />
          </mxGeometry>
        </mxCell>
        <mxCell id="smC2VsR5aSr_3LwA0y5b-114" value="" style="endArrow=none;html=1;rounded=0;entryX=0.5;entryY=1;entryDx=0;entryDy=0;exitX=0.5;exitY=0;exitDx=0;exitDy=0;" parent="1" source="smC2VsR5aSr_3LwA0y5b-108" target="smC2VsR5aSr_3LwA0y5b-96" edge="1">
          <mxGeometry width="50" height="50" relative="1" as="geometry">
            <mxPoint x="864" y="670" as="sourcePoint" />
            <mxPoint x="914" y="620" as="targetPoint" />
          </mxGeometry>
        </mxCell>
        <mxCell id="smC2VsR5aSr_3LwA0y5b-115" value=")" style="ellipse;whiteSpace=wrap;html=1;aspect=fixed;" parent="1" vertex="1">
          <mxGeometry x="991" y="670" width="40" height="40" as="geometry" />
        </mxCell>
        <mxCell id="smC2VsR5aSr_3LwA0y5b-116" value="" style="endArrow=none;html=1;rounded=0;entryX=0.5;entryY=1;entryDx=0;entryDy=0;exitX=0.5;exitY=0;exitDx=0;exitDy=0;" parent="1" source="smC2VsR5aSr_3LwA0y5b-115" target="smC2VsR5aSr_3LwA0y5b-96" edge="1">
          <mxGeometry width="50" height="50" relative="1" as="geometry">
            <mxPoint x="974" y="680" as="sourcePoint" />
            <mxPoint x="974" y="650" as="targetPoint" />
          </mxGeometry>
        </mxCell>
        <mxCell id="smC2VsR5aSr_3LwA0y5b-117" value="W" style="ellipse;whiteSpace=wrap;html=1;aspect=fixed;" parent="1" vertex="1">
          <mxGeometry x="931" y="730" width="40" height="40" as="geometry" />
        </mxCell>
        <mxCell id="smC2VsR5aSr_3LwA0y5b-118" value="" style="endArrow=none;html=1;rounded=0;exitX=0.5;exitY=0;exitDx=0;exitDy=0;entryX=0.5;entryY=1;entryDx=0;entryDy=0;" parent="1" source="smC2VsR5aSr_3LwA0y5b-117" target="smC2VsR5aSr_3LwA0y5b-108" edge="1">
          <mxGeometry width="50" height="50" relative="1" as="geometry">
            <mxPoint x="914" y="750" as="sourcePoint" />
            <mxPoint x="964" y="710" as="targetPoint" />
          </mxGeometry>
        </mxCell>
        <mxCell id="smC2VsR5aSr_3LwA0y5b-119" value="" style="endArrow=none;html=1;rounded=0;exitX=0.5;exitY=0;exitDx=0;exitDy=0;" parent="1" source="smC2VsR5aSr_3LwA0y5b-121" edge="1">
          <mxGeometry width="50" height="50" relative="1" as="geometry">
            <mxPoint x="804" y="740" as="sourcePoint" />
            <mxPoint x="951" y="710" as="targetPoint" />
          </mxGeometry>
        </mxCell>
        <mxCell id="smC2VsR5aSr_3LwA0y5b-120" value="" style="endArrow=none;html=1;rounded=0;exitX=0.5;exitY=0;exitDx=0;exitDy=0;entryX=0.5;entryY=1;entryDx=0;entryDy=0;" parent="1" source="smC2VsR5aSr_3LwA0y5b-122" target="smC2VsR5aSr_3LwA0y5b-108" edge="1">
          <mxGeometry width="50" height="50" relative="1" as="geometry">
            <mxPoint x="814" y="830" as="sourcePoint" />
            <mxPoint x="904" y="710" as="targetPoint" />
          </mxGeometry>
        </mxCell>
        <mxCell id="smC2VsR5aSr_3LwA0y5b-121" value="," style="ellipse;whiteSpace=wrap;html=1;aspect=fixed;" parent="1" vertex="1">
          <mxGeometry x="871" y="730" width="40" height="40" as="geometry" />
        </mxCell>
        <mxCell id="smC2VsR5aSr_3LwA0y5b-122" value="l" style="ellipse;whiteSpace=wrap;html=1;aspect=fixed;" parent="1" vertex="1">
          <mxGeometry x="811" y="730" width="40" height="40" as="geometry" />
        </mxCell>
        <mxCell id="smC2VsR5aSr_3LwA0y5b-124" value="l" style="ellipse;whiteSpace=wrap;html=1;aspect=fixed;" parent="1" vertex="1">
          <mxGeometry x="931" y="790" width="40" height="40" as="geometry" />
        </mxCell>
        <mxCell id="smC2VsR5aSr_3LwA0y5b-125" value="" style="endArrow=none;html=1;rounded=0;exitX=0.5;exitY=0;exitDx=0;exitDy=0;entryX=0.5;entryY=1;entryDx=0;entryDy=0;" parent="1" source="smC2VsR5aSr_3LwA0y5b-124" target="smC2VsR5aSr_3LwA0y5b-117" edge="1">
          <mxGeometry width="50" height="50" relative="1" as="geometry">
            <mxPoint x="941" y="880" as="sourcePoint" />
            <mxPoint x="1091" y="760" as="targetPoint" />
          </mxGeometry>
        </mxCell>
        <mxCell id="smC2VsR5aSr_3LwA0y5b-126" value="1" style="ellipse;whiteSpace=wrap;html=1;aspect=fixed;" parent="1" vertex="1">
          <mxGeometry x="1051" y="670" width="40" height="40" as="geometry" />
        </mxCell>
        <mxCell id="smC2VsR5aSr_3LwA0y5b-128" value="" style="endArrow=none;html=1;rounded=0;entryX=0.5;entryY=1;entryDx=0;entryDy=0;exitX=0.5;exitY=0;exitDx=0;exitDy=0;" parent="1" source="smC2VsR5aSr_3LwA0y5b-126" target="smC2VsR5aSr_3LwA0y5b-100" edge="1">
          <mxGeometry width="50" height="50" relative="1" as="geometry">
            <mxPoint x="894" y="730" as="sourcePoint" />
            <mxPoint x="944" y="680" as="targetPoint" />
          </mxGeometry>
        </mxCell>
        <mxCell id="Fz-uCakBXzszXXzngKk_-26" style="edgeStyle=orthogonalEdgeStyle;rounded=0;orthogonalLoop=1;jettySize=auto;html=1;exitX=0.5;exitY=1;exitDx=0;exitDy=0;" parent="1" source="smC2VsR5aSr_3LwA0y5b-86" target="smC2VsR5aSr_3LwA0y5b-86" edge="1">
          <mxGeometry relative="1" as="geometry" />
        </mxCell>
        <mxCell id="o-H8rBdyljYCooTNFQek-1" value="" style="endArrow=none;html=1;rounded=0;entryX=0.5;entryY=1;entryDx=0;entryDy=0;exitX=0.5;exitY=0;exitDx=0;exitDy=0;" parent="1" source="smC2VsR5aSr_3LwA0y5b-88" target="smC2VsR5aSr_3LwA0y5b-81" edge="1">
          <mxGeometry width="50" height="50" relative="1" as="geometry">
            <mxPoint x="1031" y="640" as="sourcePoint" />
            <mxPoint x="1081" y="590" as="targetPoint" />
          </mxGeometry>
        </mxCell>
        <mxCell id="UwWSrgh_34Im9D_Ohkau-1" value="(" style="ellipse;whiteSpace=wrap;html=1;aspect=fixed;fontFamily=GOSTRUS;" parent="1" vertex="1">
          <mxGeometry x="553" y="170" width="40" height="40" as="geometry" />
        </mxCell>
        <mxCell id="UwWSrgh_34Im9D_Ohkau-2" value=")" style="ellipse;whiteSpace=wrap;html=1;aspect=fixed;fontFamily=GOSTRUS;" parent="1" vertex="1">
          <mxGeometry x="653" y="170" width="40" height="40" as="geometry" />
        </mxCell>
        <mxCell id="UwWSrgh_34Im9D_Ohkau-3" value="{" style="ellipse;whiteSpace=wrap;html=1;aspect=fixed;fontFamily=GOSTRUS;" parent="1" vertex="1">
          <mxGeometry x="709" y="170" width="40" height="40" as="geometry" />
        </mxCell>
        <mxCell id="UwWSrgh_34Im9D_Ohkau-4" value="}" style="ellipse;whiteSpace=wrap;html=1;aspect=fixed;fontFamily=GOSTRUS;" parent="1" vertex="1">
          <mxGeometry x="813" y="170" width="40" height="40" as="geometry" />
        </mxCell>
        <mxCell id="UwWSrgh_34Im9D_Ohkau-5" value="&lt;p&gt;&lt;font&gt;,&lt;/font&gt;&lt;/p&gt;" style="ellipse;whiteSpace=wrap;html=1;aspect=fixed;fontFamily=GOSTRUS;" parent="1" vertex="1">
          <mxGeometry x="456" y="240" width="40" height="40" as="geometry" />
        </mxCell>
        <mxCell id="UwWSrgh_34Im9D_Ohkau-6" value="" style="endArrow=none;html=1;rounded=0;entryX=0.5;entryY=1;entryDx=0;entryDy=0;exitX=0.5;exitY=0;exitDx=0;exitDy=0;" parent="1" source="UwWSrgh_34Im9D_Ohkau-5" target="RqMCuAcDXt-mt3hWwmX9-76" edge="1">
          <mxGeometry width="50" height="50" relative="1" as="geometry">
            <mxPoint x="563" y="240" as="sourcePoint" />
            <mxPoint x="613" y="190" as="targetPoint" />
          </mxGeometry>
        </mxCell>
        <mxCell id="WzHsNia8xYOOwwKLfPbl-1" value="" style="endArrow=none;html=1;rounded=0;" parent="1" edge="1">
          <mxGeometry width="50" height="50" relative="1" as="geometry">
            <mxPoint x="630" y="170" as="sourcePoint" />
            <mxPoint x="580" y="140" as="targetPoint" />
          </mxGeometry>
        </mxCell>
        <mxCell id="WzHsNia8xYOOwwKLfPbl-2" value="" style="endArrow=none;html=1;rounded=0;exitX=0.5;exitY=0;exitDx=0;exitDy=0;" parent="1" source="UwWSrgh_34Im9D_Ohkau-3" edge="1">
          <mxGeometry width="50" height="50" relative="1" as="geometry">
            <mxPoint x="690" y="430" as="sourcePoint" />
            <mxPoint x="580" y="140" as="targetPoint" />
          </mxGeometry>
        </mxCell>
        <mxCell id="Lw3u6O5GY3syX5bIl5rI-1" value="&lt;p&gt;&lt;font&gt;;&lt;/font&gt;&lt;/p&gt;" style="ellipse;whiteSpace=wrap;html=1;aspect=fixed;fontFamily=GOSTRUS;" vertex="1" parent="1">
          <mxGeometry x="350" y="170" width="40" height="40" as="geometry" />
        </mxCell>
        <mxCell id="Lw3u6O5GY3syX5bIl5rI-2" value="" style="endArrow=none;html=1;rounded=0;entryX=0.5;entryY=1;entryDx=0;entryDy=0;exitX=0.5;exitY=0;exitDx=0;exitDy=0;" edge="1" parent="1" source="Lw3u6O5GY3syX5bIl5rI-1" target="RqMCuAcDXt-mt3hWwmX9-10">
          <mxGeometry width="50" height="50" relative="1" as="geometry">
            <mxPoint x="530" y="390" as="sourcePoint" />
            <mxPoint x="580" y="340" as="targetPoint" />
          </mxGeometry>
        </mxCell>
        <mxCell id="Lw3u6O5GY3syX5bIl5rI-3" value=";" style="ellipse;whiteSpace=wrap;html=1;aspect=fixed;" vertex="1" parent="1">
          <mxGeometry x="691" y="240" width="40" height="40" as="geometry" />
        </mxCell>
        <mxCell id="Lw3u6O5GY3syX5bIl5rI-4" value="" style="endArrow=none;html=1;rounded=0;exitX=0.5;exitY=0;exitDx=0;exitDy=0;" edge="1" parent="1" source="Lw3u6O5GY3syX5bIl5rI-3">
          <mxGeometry width="50" height="50" relative="1" as="geometry">
            <mxPoint x="740" y="370" as="sourcePoint" />
            <mxPoint x="780" y="210" as="targetPoint" />
          </mxGeometry>
        </mxCell>
      </root>
    </mxGraphModel>
  </diagram>
  <diagram name="Страница2" id="OU0TXSynTUM3gxKgyjr2">
    <mxGraphModel dx="855" dy="548" grid="1" gridSize="10" guides="1" tooltips="1" connect="1" arrows="1" fold="1" page="1" pageScale="1" pageWidth="1654" pageHeight="1169" math="0" shadow="0">
      <root>
        <mxCell id="AGziPY1m4EIGYf3XqmNb-0" />
        <mxCell id="AGziPY1m4EIGYf3XqmNb-1" parent="AGziPY1m4EIGYf3XqmNb-0" />
        <mxCell id="AGziPY1m4EIGYf3XqmNb-175" value="1" style="ellipse;whiteSpace=wrap;html=1;aspect=fixed;" parent="AGziPY1m4EIGYf3XqmNb-1" vertex="1">
          <mxGeometry x="130" y="120" width="40" height="40" as="geometry" />
        </mxCell>
        <mxCell id="AGziPY1m4EIGYf3XqmNb-176" style="edgeStyle=none;orthogonalLoop=1;jettySize=auto;html=1;exitX=0.5;exitY=0;exitDx=0;exitDy=0;entryX=0.5;entryY=1;entryDx=0;entryDy=0;endArrow=none;endFill=0;fontFamily=GOSTRUS;" parent="AGziPY1m4EIGYf3XqmNb-1" source="AGziPY1m4EIGYf3XqmNb-177" target="AGziPY1m4EIGYf3XqmNb-175" edge="1">
          <mxGeometry relative="1" as="geometry">
            <mxPoint x="270" y="170" as="targetPoint" />
          </mxGeometry>
        </mxCell>
        <mxCell id="AGziPY1m4EIGYf3XqmNb-177" value="&lt;p&gt;&lt;font&gt;p&lt;/font&gt;&lt;/p&gt;" style="ellipse;whiteSpace=wrap;html=1;aspect=fixed;fontFamily=GOSTRUS;" parent="AGziPY1m4EIGYf3XqmNb-1" vertex="1">
          <mxGeometry x="130" y="190" width="40" height="40" as="geometry" />
        </mxCell>
        <mxCell id="AGziPY1m4EIGYf3XqmNb-178" style="edgeStyle=none;orthogonalLoop=1;jettySize=auto;html=1;exitX=0.5;exitY=0;exitDx=0;exitDy=0;entryX=0.5;entryY=1;entryDx=0;entryDy=0;endArrow=none;endFill=0;fontFamily=GOSTRUS;" parent="AGziPY1m4EIGYf3XqmNb-1" source="AGziPY1m4EIGYf3XqmNb-179" target="AGziPY1m4EIGYf3XqmNb-175" edge="1">
          <mxGeometry relative="1" as="geometry">
            <mxPoint x="270" y="170" as="targetPoint" />
          </mxGeometry>
        </mxCell>
        <mxCell id="AGziPY1m4EIGYf3XqmNb-179" value="&lt;p&gt;&lt;font&gt;E&lt;/font&gt;&lt;/p&gt;" style="ellipse;whiteSpace=wrap;html=1;aspect=fixed;fontFamily=GOSTRUS;" parent="AGziPY1m4EIGYf3XqmNb-1" vertex="1">
          <mxGeometry x="190" y="190" width="40" height="40" as="geometry" />
        </mxCell>
        <mxCell id="AGziPY1m4EIGYf3XqmNb-180" style="edgeStyle=none;orthogonalLoop=1;jettySize=auto;html=1;exitX=0.5;exitY=0;exitDx=0;exitDy=0;endArrow=none;endFill=0;fontFamily=GOSTRUS;" parent="AGziPY1m4EIGYf3XqmNb-1" source="AGziPY1m4EIGYf3XqmNb-181" edge="1">
          <mxGeometry relative="1" as="geometry">
            <mxPoint x="150" y="160" as="targetPoint" />
          </mxGeometry>
        </mxCell>
        <mxCell id="AGziPY1m4EIGYf3XqmNb-181" value=";" style="ellipse;whiteSpace=wrap;html=1;aspect=fixed;fontFamily=GOSTRUS;" parent="AGziPY1m4EIGYf3XqmNb-1" vertex="1">
          <mxGeometry x="250" y="190" width="40" height="40" as="geometry" />
        </mxCell>
        <mxCell id="AGziPY1m4EIGYf3XqmNb-182" style="rounded=0;orthogonalLoop=1;jettySize=auto;html=1;exitX=0.5;exitY=0;exitDx=0;exitDy=0;entryX=0.5;entryY=1;entryDx=0;entryDy=0;endArrow=none;endFill=0;" parent="AGziPY1m4EIGYf3XqmNb-1" source="AGziPY1m4EIGYf3XqmNb-183" target="AGziPY1m4EIGYf3XqmNb-175" edge="1">
          <mxGeometry relative="1" as="geometry">
            <mxPoint x="270" y="170" as="targetPoint" />
          </mxGeometry>
        </mxCell>
        <mxCell id="AGziPY1m4EIGYf3XqmNb-183" value="N" style="ellipse;whiteSpace=wrap;html=1;aspect=fixed;fontFamily=GOSTRUS;" parent="AGziPY1m4EIGYf3XqmNb-1" vertex="1">
          <mxGeometry x="310" y="190" width="40" height="40" as="geometry" />
        </mxCell>
        <mxCell id="AGziPY1m4EIGYf3XqmNb-184" value=")" style="ellipse;whiteSpace=wrap;html=1;aspect=fixed;fontFamily=GOSTRUS;" parent="AGziPY1m4EIGYf3XqmNb-1" vertex="1">
          <mxGeometry x="250" y="250" width="40" height="40" as="geometry" />
        </mxCell>
        <mxCell id="AGziPY1m4EIGYf3XqmNb-185" style="rounded=0;orthogonalLoop=1;jettySize=auto;html=1;exitX=0.5;exitY=0;exitDx=0;exitDy=0;entryX=0.5;entryY=1;entryDx=0;entryDy=0;endArrow=none;endFill=0;" parent="AGziPY1m4EIGYf3XqmNb-1" source="AGziPY1m4EIGYf3XqmNb-184" target="AGziPY1m4EIGYf3XqmNb-179" edge="1">
          <mxGeometry relative="1" as="geometry">
            <mxPoint x="90" y="220" as="targetPoint" />
          </mxGeometry>
        </mxCell>
        <mxCell id="AGziPY1m4EIGYf3XqmNb-186" value="E" style="ellipse;whiteSpace=wrap;html=1;aspect=fixed;fontFamily=GOSTRUS;" parent="AGziPY1m4EIGYf3XqmNb-1" vertex="1">
          <mxGeometry x="190" y="250" width="40" height="40" as="geometry" />
        </mxCell>
        <mxCell id="AGziPY1m4EIGYf3XqmNb-187" style="edgeStyle=none;orthogonalLoop=1;jettySize=auto;html=1;exitX=0.5;exitY=0;exitDx=0;exitDy=0;endArrow=none;endFill=0;fontFamily=GOSTRUS;entryX=0.5;entryY=1;entryDx=0;entryDy=0;" parent="AGziPY1m4EIGYf3XqmNb-1" source="AGziPY1m4EIGYf3XqmNb-186" target="AGziPY1m4EIGYf3XqmNb-179" edge="1">
          <mxGeometry relative="1" as="geometry">
            <mxPoint x="90" y="220" as="targetPoint" />
          </mxGeometry>
        </mxCell>
        <mxCell id="AGziPY1m4EIGYf3XqmNb-188" style="edgeStyle=none;orthogonalLoop=1;jettySize=auto;html=1;exitX=0.5;exitY=0;exitDx=0;exitDy=0;entryX=0.5;entryY=1;entryDx=0;entryDy=0;endArrow=none;endFill=0;fontFamily=GOSTRUS;" parent="AGziPY1m4EIGYf3XqmNb-1" source="AGziPY1m4EIGYf3XqmNb-189" target="AGziPY1m4EIGYf3XqmNb-179" edge="1">
          <mxGeometry relative="1" as="geometry">
            <mxPoint x="90" y="220" as="targetPoint" />
          </mxGeometry>
        </mxCell>
        <mxCell id="AGziPY1m4EIGYf3XqmNb-189" value="&lt;p&gt;&lt;font&gt;(&lt;/font&gt;&lt;/p&gt;" style="ellipse;whiteSpace=wrap;html=1;aspect=fixed;fontFamily=GOSTRUS;" parent="AGziPY1m4EIGYf3XqmNb-1" vertex="1">
          <mxGeometry x="130" y="250" width="40" height="40" as="geometry" />
        </mxCell>
        <mxCell id="AGziPY1m4EIGYf3XqmNb-190" value="i" style="ellipse;whiteSpace=wrap;html=1;aspect=fixed;fontFamily=GOSTRUS;" parent="AGziPY1m4EIGYf3XqmNb-1" vertex="1">
          <mxGeometry x="190" y="310" width="40" height="40" as="geometry" />
        </mxCell>
        <mxCell id="AGziPY1m4EIGYf3XqmNb-191" style="edgeStyle=none;orthogonalLoop=1;jettySize=auto;html=1;exitX=0.5;exitY=0;exitDx=0;exitDy=0;endArrow=none;endFill=0;fontFamily=GOSTRUS;entryX=0.5;entryY=1;entryDx=0;entryDy=0;" parent="AGziPY1m4EIGYf3XqmNb-1" source="AGziPY1m4EIGYf3XqmNb-190" edge="1">
          <mxGeometry relative="1" as="geometry">
            <mxPoint x="210" y="290" as="targetPoint" />
          </mxGeometry>
        </mxCell>
        <mxCell id="AGziPY1m4EIGYf3XqmNb-192" value=";" style="ellipse;whiteSpace=wrap;html=1;aspect=fixed;" parent="AGziPY1m4EIGYf3XqmNb-1" vertex="1">
          <mxGeometry x="430" y="250" width="40" height="40" as="geometry" />
        </mxCell>
        <mxCell id="AGziPY1m4EIGYf3XqmNb-193" value="E" style="ellipse;whiteSpace=wrap;html=1;aspect=fixed;" parent="AGziPY1m4EIGYf3XqmNb-1" vertex="1">
          <mxGeometry x="370" y="250" width="40" height="40" as="geometry" />
        </mxCell>
        <mxCell id="AGziPY1m4EIGYf3XqmNb-194" value="" style="endArrow=none;html=1;rounded=0;entryX=0.5;entryY=1;entryDx=0;entryDy=0;" parent="AGziPY1m4EIGYf3XqmNb-1" source="AGziPY1m4EIGYf3XqmNb-198" target="AGziPY1m4EIGYf3XqmNb-183" edge="1">
          <mxGeometry width="50" height="50" relative="1" as="geometry">
            <mxPoint x="330" y="270" as="sourcePoint" />
            <mxPoint x="390" y="250" as="targetPoint" />
          </mxGeometry>
        </mxCell>
        <mxCell id="AGziPY1m4EIGYf3XqmNb-195" value="" style="endArrow=none;html=1;rounded=0;entryX=0.5;entryY=1;entryDx=0;entryDy=0;" parent="AGziPY1m4EIGYf3XqmNb-1" source="AGziPY1m4EIGYf3XqmNb-193" target="AGziPY1m4EIGYf3XqmNb-183" edge="1">
          <mxGeometry width="50" height="50" relative="1" as="geometry">
            <mxPoint x="340" y="280" as="sourcePoint" />
            <mxPoint x="390" y="250" as="targetPoint" />
          </mxGeometry>
        </mxCell>
        <mxCell id="AGziPY1m4EIGYf3XqmNb-196" value="" style="endArrow=none;html=1;rounded=0;entryX=0.5;entryY=1;entryDx=0;entryDy=0;exitX=0.5;exitY=0;exitDx=0;exitDy=0;" parent="AGziPY1m4EIGYf3XqmNb-1" source="AGziPY1m4EIGYf3XqmNb-192" target="AGziPY1m4EIGYf3XqmNb-183" edge="1">
          <mxGeometry width="50" height="50" relative="1" as="geometry">
            <mxPoint x="400" y="280" as="sourcePoint" />
            <mxPoint x="390" y="250" as="targetPoint" />
          </mxGeometry>
        </mxCell>
        <mxCell id="AGziPY1m4EIGYf3XqmNb-197" value="" style="endArrow=none;html=1;rounded=0;entryX=0.5;entryY=1;entryDx=0;entryDy=0;" parent="AGziPY1m4EIGYf3XqmNb-1" target="AGziPY1m4EIGYf3XqmNb-198" edge="1">
          <mxGeometry width="50" height="50" relative="1" as="geometry">
            <mxPoint x="330" y="270" as="sourcePoint" />
            <mxPoint x="330" y="230" as="targetPoint" />
          </mxGeometry>
        </mxCell>
        <mxCell id="AGziPY1m4EIGYf3XqmNb-198" value="p" style="ellipse;whiteSpace=wrap;html=1;aspect=fixed;" parent="AGziPY1m4EIGYf3XqmNb-1" vertex="1">
          <mxGeometry x="310" y="250" width="40" height="40" as="geometry" />
        </mxCell>
        <mxCell id="AGziPY1m4EIGYf3XqmNb-199" value="N" style="ellipse;whiteSpace=wrap;html=1;aspect=fixed;" parent="AGziPY1m4EIGYf3XqmNb-1" vertex="1">
          <mxGeometry x="490" y="250" width="40" height="40" as="geometry" />
        </mxCell>
        <mxCell id="AGziPY1m4EIGYf3XqmNb-200" value="" style="endArrow=none;html=1;rounded=0;entryX=0.5;entryY=0;entryDx=0;entryDy=0;exitX=0.5;exitY=1;exitDx=0;exitDy=0;" parent="AGziPY1m4EIGYf3XqmNb-1" source="AGziPY1m4EIGYf3XqmNb-183" target="AGziPY1m4EIGYf3XqmNb-199" edge="1">
          <mxGeometry width="50" height="50" relative="1" as="geometry">
            <mxPoint x="380" y="330" as="sourcePoint" />
            <mxPoint x="430" y="280" as="targetPoint" />
          </mxGeometry>
        </mxCell>
        <mxCell id="AGziPY1m4EIGYf3XqmNb-201" value=")" style="ellipse;whiteSpace=wrap;html=1;aspect=fixed;fontFamily=GOSTRUS;" parent="AGziPY1m4EIGYf3XqmNb-1" vertex="1">
          <mxGeometry x="370" y="310" width="40" height="40" as="geometry" />
        </mxCell>
        <mxCell id="AGziPY1m4EIGYf3XqmNb-202" style="rounded=0;orthogonalLoop=1;jettySize=auto;html=1;exitX=0.5;exitY=0;exitDx=0;exitDy=0;entryX=0.5;entryY=1;entryDx=0;entryDy=0;endArrow=none;endFill=0;" parent="AGziPY1m4EIGYf3XqmNb-1" source="AGziPY1m4EIGYf3XqmNb-201" edge="1">
          <mxGeometry relative="1" as="geometry">
            <mxPoint x="390" y="290" as="targetPoint" />
          </mxGeometry>
        </mxCell>
        <mxCell id="AGziPY1m4EIGYf3XqmNb-203" value="E" style="ellipse;whiteSpace=wrap;html=1;aspect=fixed;fontFamily=GOSTRUS;" parent="AGziPY1m4EIGYf3XqmNb-1" vertex="1">
          <mxGeometry x="310" y="310" width="40" height="40" as="geometry" />
        </mxCell>
        <mxCell id="AGziPY1m4EIGYf3XqmNb-204" style="edgeStyle=none;orthogonalLoop=1;jettySize=auto;html=1;exitX=0.5;exitY=0;exitDx=0;exitDy=0;endArrow=none;endFill=0;fontFamily=GOSTRUS;entryX=0.5;entryY=1;entryDx=0;entryDy=0;" parent="AGziPY1m4EIGYf3XqmNb-1" source="AGziPY1m4EIGYf3XqmNb-203" edge="1">
          <mxGeometry relative="1" as="geometry">
            <mxPoint x="390" y="290" as="targetPoint" />
          </mxGeometry>
        </mxCell>
        <mxCell id="AGziPY1m4EIGYf3XqmNb-205" style="edgeStyle=none;orthogonalLoop=1;jettySize=auto;html=1;exitX=0.5;exitY=0;exitDx=0;exitDy=0;entryX=0.5;entryY=1;entryDx=0;entryDy=0;endArrow=none;endFill=0;fontFamily=GOSTRUS;" parent="AGziPY1m4EIGYf3XqmNb-1" source="AGziPY1m4EIGYf3XqmNb-206" edge="1">
          <mxGeometry relative="1" as="geometry">
            <mxPoint x="390" y="290" as="targetPoint" />
          </mxGeometry>
        </mxCell>
        <mxCell id="AGziPY1m4EIGYf3XqmNb-206" value="&lt;p&gt;&lt;font&gt;(&lt;/font&gt;&lt;/p&gt;" style="ellipse;whiteSpace=wrap;html=1;aspect=fixed;fontFamily=GOSTRUS;" parent="AGziPY1m4EIGYf3XqmNb-1" vertex="1">
          <mxGeometry x="250" y="310" width="40" height="40" as="geometry" />
        </mxCell>
        <mxCell id="AGziPY1m4EIGYf3XqmNb-207" value="i" style="ellipse;whiteSpace=wrap;html=1;aspect=fixed;fontFamily=GOSTRUS;" parent="AGziPY1m4EIGYf3XqmNb-1" vertex="1">
          <mxGeometry x="310" y="370" width="40" height="40" as="geometry" />
        </mxCell>
        <mxCell id="AGziPY1m4EIGYf3XqmNb-208" style="edgeStyle=none;orthogonalLoop=1;jettySize=auto;html=1;exitX=0.5;exitY=0;exitDx=0;exitDy=0;endArrow=none;endFill=0;fontFamily=GOSTRUS;entryX=0.5;entryY=1;entryDx=0;entryDy=0;" parent="AGziPY1m4EIGYf3XqmNb-1" source="AGziPY1m4EIGYf3XqmNb-207" edge="1">
          <mxGeometry relative="1" as="geometry">
            <mxPoint x="330" y="350" as="targetPoint" />
          </mxGeometry>
        </mxCell>
        <mxCell id="AGziPY1m4EIGYf3XqmNb-209" value=";" style="ellipse;whiteSpace=wrap;html=1;aspect=fixed;" parent="AGziPY1m4EIGYf3XqmNb-1" vertex="1">
          <mxGeometry x="550" y="310" width="40" height="40" as="geometry" />
        </mxCell>
        <mxCell id="AGziPY1m4EIGYf3XqmNb-210" value="E" style="ellipse;whiteSpace=wrap;html=1;aspect=fixed;" parent="AGziPY1m4EIGYf3XqmNb-1" vertex="1">
          <mxGeometry x="490" y="310" width="40" height="40" as="geometry" />
        </mxCell>
        <mxCell id="AGziPY1m4EIGYf3XqmNb-211" value="" style="endArrow=none;html=1;rounded=0;entryX=0.5;entryY=1;entryDx=0;entryDy=0;" parent="AGziPY1m4EIGYf3XqmNb-1" source="AGziPY1m4EIGYf3XqmNb-215" target="AGziPY1m4EIGYf3XqmNb-199" edge="1">
          <mxGeometry width="50" height="50" relative="1" as="geometry">
            <mxPoint x="480" y="420" as="sourcePoint" />
            <mxPoint x="480" y="380" as="targetPoint" />
          </mxGeometry>
        </mxCell>
        <mxCell id="AGziPY1m4EIGYf3XqmNb-212" value="" style="endArrow=none;html=1;rounded=0;" parent="AGziPY1m4EIGYf3XqmNb-1" source="AGziPY1m4EIGYf3XqmNb-210" edge="1">
          <mxGeometry width="50" height="50" relative="1" as="geometry">
            <mxPoint x="490" y="430" as="sourcePoint" />
            <mxPoint x="510" y="290" as="targetPoint" />
          </mxGeometry>
        </mxCell>
        <mxCell id="AGziPY1m4EIGYf3XqmNb-213" value="" style="endArrow=none;html=1;rounded=0;exitX=0.5;exitY=0;exitDx=0;exitDy=0;" parent="AGziPY1m4EIGYf3XqmNb-1" source="AGziPY1m4EIGYf3XqmNb-209" edge="1">
          <mxGeometry width="50" height="50" relative="1" as="geometry">
            <mxPoint x="550" y="430" as="sourcePoint" />
            <mxPoint x="510" y="290" as="targetPoint" />
          </mxGeometry>
        </mxCell>
        <mxCell id="AGziPY1m4EIGYf3XqmNb-214" value="" style="endArrow=none;html=1;rounded=0;entryX=0.5;entryY=1;entryDx=0;entryDy=0;" parent="AGziPY1m4EIGYf3XqmNb-1" target="AGziPY1m4EIGYf3XqmNb-215" edge="1">
          <mxGeometry width="50" height="50" relative="1" as="geometry">
            <mxPoint x="450" y="330" as="sourcePoint" />
            <mxPoint x="450" y="290" as="targetPoint" />
          </mxGeometry>
        </mxCell>
        <mxCell id="AGziPY1m4EIGYf3XqmNb-215" value="p" style="ellipse;whiteSpace=wrap;html=1;aspect=fixed;" parent="AGziPY1m4EIGYf3XqmNb-1" vertex="1">
          <mxGeometry x="430" y="310" width="40" height="40" as="geometry" />
        </mxCell>
        <mxCell id="AGziPY1m4EIGYf3XqmNb-216" value="N" style="ellipse;whiteSpace=wrap;html=1;aspect=fixed;" parent="AGziPY1m4EIGYf3XqmNb-1" vertex="1">
          <mxGeometry x="610" y="310" width="40" height="40" as="geometry" />
        </mxCell>
        <mxCell id="AGziPY1m4EIGYf3XqmNb-217" value="" style="endArrow=none;html=1;rounded=0;entryX=0.5;entryY=0;entryDx=0;entryDy=0;exitX=0.5;exitY=1;exitDx=0;exitDy=0;" parent="AGziPY1m4EIGYf3XqmNb-1" source="AGziPY1m4EIGYf3XqmNb-199" target="AGziPY1m4EIGYf3XqmNb-216" edge="1">
          <mxGeometry width="50" height="50" relative="1" as="geometry">
            <mxPoint x="480" y="380" as="sourcePoint" />
            <mxPoint x="580" y="430" as="targetPoint" />
          </mxGeometry>
        </mxCell>
        <mxCell id="AGziPY1m4EIGYf3XqmNb-218" value=")" style="ellipse;whiteSpace=wrap;html=1;aspect=fixed;fontFamily=GOSTRUS;" parent="AGziPY1m4EIGYf3XqmNb-1" vertex="1">
          <mxGeometry x="490" y="370" width="40" height="40" as="geometry" />
        </mxCell>
        <mxCell id="AGziPY1m4EIGYf3XqmNb-219" style="rounded=0;orthogonalLoop=1;jettySize=auto;html=1;exitX=0.5;exitY=0;exitDx=0;exitDy=0;entryX=0.5;entryY=1;entryDx=0;entryDy=0;endArrow=none;endFill=0;" parent="AGziPY1m4EIGYf3XqmNb-1" source="AGziPY1m4EIGYf3XqmNb-218" edge="1">
          <mxGeometry relative="1" as="geometry">
            <mxPoint x="510" y="350" as="targetPoint" />
          </mxGeometry>
        </mxCell>
        <mxCell id="AGziPY1m4EIGYf3XqmNb-220" value="E" style="ellipse;whiteSpace=wrap;html=1;aspect=fixed;fontFamily=GOSTRUS;" parent="AGziPY1m4EIGYf3XqmNb-1" vertex="1">
          <mxGeometry x="430" y="370" width="40" height="40" as="geometry" />
        </mxCell>
        <mxCell id="AGziPY1m4EIGYf3XqmNb-221" style="edgeStyle=none;orthogonalLoop=1;jettySize=auto;html=1;exitX=0.5;exitY=0;exitDx=0;exitDy=0;endArrow=none;endFill=0;fontFamily=GOSTRUS;entryX=0.5;entryY=1;entryDx=0;entryDy=0;" parent="AGziPY1m4EIGYf3XqmNb-1" source="AGziPY1m4EIGYf3XqmNb-220" edge="1">
          <mxGeometry relative="1" as="geometry">
            <mxPoint x="510" y="350" as="targetPoint" />
          </mxGeometry>
        </mxCell>
        <mxCell id="AGziPY1m4EIGYf3XqmNb-222" style="edgeStyle=none;orthogonalLoop=1;jettySize=auto;html=1;exitX=0.5;exitY=0;exitDx=0;exitDy=0;entryX=0.5;entryY=1;entryDx=0;entryDy=0;endArrow=none;endFill=0;fontFamily=GOSTRUS;" parent="AGziPY1m4EIGYf3XqmNb-1" source="AGziPY1m4EIGYf3XqmNb-223" edge="1">
          <mxGeometry relative="1" as="geometry">
            <mxPoint x="510" y="350" as="targetPoint" />
          </mxGeometry>
        </mxCell>
        <mxCell id="AGziPY1m4EIGYf3XqmNb-223" value="&lt;p&gt;&lt;font&gt;(&lt;/font&gt;&lt;/p&gt;" style="ellipse;whiteSpace=wrap;html=1;aspect=fixed;fontFamily=GOSTRUS;" parent="AGziPY1m4EIGYf3XqmNb-1" vertex="1">
          <mxGeometry x="370" y="370" width="40" height="40" as="geometry" />
        </mxCell>
        <mxCell id="AGziPY1m4EIGYf3XqmNb-224" value="i" style="ellipse;whiteSpace=wrap;html=1;aspect=fixed;fontFamily=GOSTRUS;" parent="AGziPY1m4EIGYf3XqmNb-1" vertex="1">
          <mxGeometry x="430" y="430" width="40" height="40" as="geometry" />
        </mxCell>
        <mxCell id="AGziPY1m4EIGYf3XqmNb-225" value="N" style="ellipse;whiteSpace=wrap;html=1;aspect=fixed;" parent="AGziPY1m4EIGYf3XqmNb-1" vertex="1">
          <mxGeometry x="673" y="370" width="40" height="40" as="geometry" />
        </mxCell>
        <mxCell id="AGziPY1m4EIGYf3XqmNb-226" style="edgeStyle=none;orthogonalLoop=1;jettySize=auto;html=1;exitX=0.5;exitY=0;exitDx=0;exitDy=0;endArrow=none;endFill=0;entryX=0.5;entryY=1;entryDx=0;entryDy=0;" parent="AGziPY1m4EIGYf3XqmNb-1" source="AGziPY1m4EIGYf3XqmNb-225" target="AGziPY1m4EIGYf3XqmNb-216" edge="1">
          <mxGeometry relative="1" as="geometry">
            <mxPoint x="753" y="350" as="targetPoint" />
          </mxGeometry>
        </mxCell>
        <mxCell id="AGziPY1m4EIGYf3XqmNb-227" style="edgeStyle=none;orthogonalLoop=1;jettySize=auto;html=1;exitX=0.5;exitY=0;exitDx=0;exitDy=0;endArrow=none;endFill=0;entryX=0.5;entryY=1;entryDx=0;entryDy=0;" parent="AGziPY1m4EIGYf3XqmNb-1" source="AGziPY1m4EIGYf3XqmNb-228" target="AGziPY1m4EIGYf3XqmNb-216" edge="1">
          <mxGeometry relative="1" as="geometry">
            <mxPoint x="753" y="350" as="targetPoint" />
          </mxGeometry>
        </mxCell>
        <mxCell id="AGziPY1m4EIGYf3XqmNb-228" value="t" style="ellipse;whiteSpace=wrap;html=1;aspect=fixed;" parent="AGziPY1m4EIGYf3XqmNb-1" vertex="1">
          <mxGeometry x="610" y="370" width="40" height="40" as="geometry" />
        </mxCell>
        <mxCell id="AGziPY1m4EIGYf3XqmNb-229" style="edgeStyle=none;orthogonalLoop=1;jettySize=auto;html=1;exitX=0.5;exitY=0;exitDx=0;exitDy=0;endArrow=none;endFill=0;entryX=0.5;entryY=1;entryDx=0;entryDy=0;" parent="AGziPY1m4EIGYf3XqmNb-1" source="AGziPY1m4EIGYf3XqmNb-230" target="AGziPY1m4EIGYf3XqmNb-216" edge="1">
          <mxGeometry relative="1" as="geometry">
            <mxPoint x="753" y="350" as="targetPoint" />
          </mxGeometry>
        </mxCell>
        <mxCell id="AGziPY1m4EIGYf3XqmNb-230" value="d" style="ellipse;whiteSpace=wrap;html=1;aspect=fixed;" parent="AGziPY1m4EIGYf3XqmNb-1" vertex="1">
          <mxGeometry x="550" y="370" width="40" height="40" as="geometry" />
        </mxCell>
        <mxCell id="AGziPY1m4EIGYf3XqmNb-231" style="edgeStyle=none;orthogonalLoop=1;jettySize=auto;html=1;exitX=0.5;exitY=0;exitDx=0;exitDy=0;entryX=0.5;entryY=1;entryDx=0;entryDy=0;endArrow=none;endFill=0;fontFamily=GOSTRUS;" parent="AGziPY1m4EIGYf3XqmNb-1" source="AGziPY1m4EIGYf3XqmNb-232" target="AGziPY1m4EIGYf3XqmNb-225" edge="1">
          <mxGeometry relative="1" as="geometry">
            <mxPoint x="509.5" y="400" as="targetPoint" />
          </mxGeometry>
        </mxCell>
        <mxCell id="AGziPY1m4EIGYf3XqmNb-232" value="&lt;p&gt;&lt;font&gt;i&lt;/font&gt;&lt;/p&gt;" style="ellipse;whiteSpace=wrap;html=1;aspect=fixed;fontFamily=GOSTRUS;" parent="AGziPY1m4EIGYf3XqmNb-1" vertex="1">
          <mxGeometry x="490" y="430" width="40" height="40" as="geometry" />
        </mxCell>
        <mxCell id="AGziPY1m4EIGYf3XqmNb-233" style="edgeStyle=none;orthogonalLoop=1;jettySize=auto;html=1;exitX=0.5;exitY=0;exitDx=0;exitDy=0;entryX=0.5;entryY=1;entryDx=0;entryDy=0;endArrow=none;endFill=0;fontFamily=GOSTRUS;" parent="AGziPY1m4EIGYf3XqmNb-1" source="AGziPY1m4EIGYf3XqmNb-234" target="AGziPY1m4EIGYf3XqmNb-225" edge="1">
          <mxGeometry relative="1" as="geometry">
            <mxPoint x="509.5" y="400" as="targetPoint" />
          </mxGeometry>
        </mxCell>
        <mxCell id="AGziPY1m4EIGYf3XqmNb-234" value="&lt;p&gt;&lt;font&gt;=&lt;/font&gt;&lt;/p&gt;" style="ellipse;whiteSpace=wrap;html=1;aspect=fixed;fontFamily=GOSTRUS;" parent="AGziPY1m4EIGYf3XqmNb-1" vertex="1">
          <mxGeometry x="547" y="430" width="40" height="40" as="geometry" />
        </mxCell>
        <mxCell id="AGziPY1m4EIGYf3XqmNb-235" style="edgeStyle=none;orthogonalLoop=1;jettySize=auto;html=1;exitX=0.5;exitY=0;exitDx=0;exitDy=0;entryX=0.5;entryY=1;entryDx=0;entryDy=0;endArrow=none;endFill=0;fontFamily=GOSTRUS;" parent="AGziPY1m4EIGYf3XqmNb-1" source="AGziPY1m4EIGYf3XqmNb-236" target="AGziPY1m4EIGYf3XqmNb-225" edge="1">
          <mxGeometry relative="1" as="geometry">
            <mxPoint x="509.5" y="400" as="targetPoint" />
          </mxGeometry>
        </mxCell>
        <mxCell id="AGziPY1m4EIGYf3XqmNb-236" value="E" style="ellipse;whiteSpace=wrap;html=1;aspect=fixed;fontFamily=GOSTRUS;" parent="AGziPY1m4EIGYf3XqmNb-1" vertex="1">
          <mxGeometry x="610" y="430" width="40" height="40" as="geometry" />
        </mxCell>
        <mxCell id="AGziPY1m4EIGYf3XqmNb-237" style="rounded=0;orthogonalLoop=1;jettySize=auto;html=1;exitX=0.5;exitY=0;exitDx=0;exitDy=0;entryX=0.5;entryY=1;entryDx=0;entryDy=0;endArrow=none;endFill=0;" parent="AGziPY1m4EIGYf3XqmNb-1" source="AGziPY1m4EIGYf3XqmNb-238" target="AGziPY1m4EIGYf3XqmNb-225" edge="1">
          <mxGeometry relative="1" as="geometry">
            <mxPoint x="509.5" y="400" as="targetPoint" />
          </mxGeometry>
        </mxCell>
        <mxCell id="AGziPY1m4EIGYf3XqmNb-238" value=";" style="ellipse;whiteSpace=wrap;html=1;aspect=fixed;fontFamily=GOSTRUS;" parent="AGziPY1m4EIGYf3XqmNb-1" vertex="1">
          <mxGeometry x="673" y="430" width="40" height="40" as="geometry" />
        </mxCell>
        <mxCell id="AGziPY1m4EIGYf3XqmNb-239" value="" style="endArrow=none;html=1;rounded=0;exitX=0.5;exitY=1;exitDx=0;exitDy=0;entryX=0.5;entryY=0;entryDx=0;entryDy=0;" parent="AGziPY1m4EIGYf3XqmNb-1" source="AGziPY1m4EIGYf3XqmNb-225" target="AGziPY1m4EIGYf3XqmNb-240" edge="1">
          <mxGeometry width="50" height="50" relative="1" as="geometry">
            <mxPoint x="569.5" y="400" as="sourcePoint" />
            <mxPoint x="853" y="430" as="targetPoint" />
          </mxGeometry>
        </mxCell>
        <mxCell id="AGziPY1m4EIGYf3XqmNb-240" value="N" style="ellipse;whiteSpace=wrap;html=1;aspect=fixed;" parent="AGziPY1m4EIGYf3XqmNb-1" vertex="1">
          <mxGeometry x="730" y="430" width="40" height="40" as="geometry" />
        </mxCell>
        <mxCell id="AGziPY1m4EIGYf3XqmNb-241" value="W" style="ellipse;whiteSpace=wrap;html=1;aspect=fixed;" parent="AGziPY1m4EIGYf3XqmNb-1" vertex="1">
          <mxGeometry x="610" y="500" width="40" height="40" as="geometry" />
        </mxCell>
        <mxCell id="AGziPY1m4EIGYf3XqmNb-242" value="(" style="ellipse;whiteSpace=wrap;html=1;aspect=fixed;" parent="AGziPY1m4EIGYf3XqmNb-1" vertex="1">
          <mxGeometry x="550" y="500" width="40" height="40" as="geometry" />
        </mxCell>
        <mxCell id="AGziPY1m4EIGYf3XqmNb-243" value="R" style="ellipse;whiteSpace=wrap;html=1;aspect=fixed;" parent="AGziPY1m4EIGYf3XqmNb-1" vertex="1">
          <mxGeometry x="490" y="500" width="40" height="40" as="geometry" />
        </mxCell>
        <mxCell id="AGziPY1m4EIGYf3XqmNb-244" value="" style="endArrow=none;html=1;rounded=0;exitX=0.5;exitY=0;exitDx=0;exitDy=0;" parent="AGziPY1m4EIGYf3XqmNb-1" source="AGziPY1m4EIGYf3XqmNb-242" edge="1">
          <mxGeometry width="50" height="50" relative="1" as="geometry">
            <mxPoint x="540" y="590" as="sourcePoint" />
            <mxPoint x="630" y="470" as="targetPoint" />
          </mxGeometry>
        </mxCell>
        <mxCell id="AGziPY1m4EIGYf3XqmNb-245" value="" style="endArrow=none;html=1;rounded=0;exitX=0.5;exitY=0;exitDx=0;exitDy=0;entryX=0.5;entryY=1;entryDx=0;entryDy=0;" parent="AGziPY1m4EIGYf3XqmNb-1" source="AGziPY1m4EIGYf3XqmNb-243" edge="1">
          <mxGeometry width="50" height="50" relative="1" as="geometry">
            <mxPoint x="540" y="590" as="sourcePoint" />
            <mxPoint x="630" y="470" as="targetPoint" />
          </mxGeometry>
        </mxCell>
        <mxCell id="AGziPY1m4EIGYf3XqmNb-246" value="" style="endArrow=none;html=1;rounded=0;entryX=0.5;entryY=1;entryDx=0;entryDy=0;exitX=0.5;exitY=0;exitDx=0;exitDy=0;" parent="AGziPY1m4EIGYf3XqmNb-1" source="AGziPY1m4EIGYf3XqmNb-241" edge="1">
          <mxGeometry width="50" height="50" relative="1" as="geometry">
            <mxPoint x="530" y="500" as="sourcePoint" />
            <mxPoint x="630" y="470" as="targetPoint" />
          </mxGeometry>
        </mxCell>
        <mxCell id="AGziPY1m4EIGYf3XqmNb-247" value=")" style="ellipse;whiteSpace=wrap;html=1;aspect=fixed;" parent="AGziPY1m4EIGYf3XqmNb-1" vertex="1">
          <mxGeometry x="670" y="500" width="40" height="40" as="geometry" />
        </mxCell>
        <mxCell id="AGziPY1m4EIGYf3XqmNb-248" value="" style="endArrow=none;html=1;rounded=0;entryX=0.5;entryY=1;entryDx=0;entryDy=0;exitX=0.5;exitY=0;exitDx=0;exitDy=0;" parent="AGziPY1m4EIGYf3XqmNb-1" source="AGziPY1m4EIGYf3XqmNb-247" edge="1">
          <mxGeometry width="50" height="50" relative="1" as="geometry">
            <mxPoint x="640" y="510" as="sourcePoint" />
            <mxPoint x="630" y="470" as="targetPoint" />
          </mxGeometry>
        </mxCell>
        <mxCell id="AGziPY1m4EIGYf3XqmNb-249" value="W" style="ellipse;whiteSpace=wrap;html=1;aspect=fixed;" parent="AGziPY1m4EIGYf3XqmNb-1" vertex="1">
          <mxGeometry x="610" y="560" width="40" height="40" as="geometry" />
        </mxCell>
        <mxCell id="AGziPY1m4EIGYf3XqmNb-250" value="" style="endArrow=none;html=1;rounded=0;exitX=0.5;exitY=0;exitDx=0;exitDy=0;" parent="AGziPY1m4EIGYf3XqmNb-1" source="AGziPY1m4EIGYf3XqmNb-249" edge="1">
          <mxGeometry width="50" height="50" relative="1" as="geometry">
            <mxPoint x="580" y="580" as="sourcePoint" />
            <mxPoint x="630" y="540" as="targetPoint" />
          </mxGeometry>
        </mxCell>
        <mxCell id="AGziPY1m4EIGYf3XqmNb-251" value="" style="endArrow=none;html=1;rounded=0;exitX=0.5;exitY=0;exitDx=0;exitDy=0;" parent="AGziPY1m4EIGYf3XqmNb-1" source="AGziPY1m4EIGYf3XqmNb-253" edge="1">
          <mxGeometry width="50" height="50" relative="1" as="geometry">
            <mxPoint x="470" y="570" as="sourcePoint" />
            <mxPoint x="630" y="540" as="targetPoint" />
          </mxGeometry>
        </mxCell>
        <mxCell id="AGziPY1m4EIGYf3XqmNb-252" value="" style="endArrow=none;html=1;rounded=0;exitX=0.5;exitY=0;exitDx=0;exitDy=0;entryX=0.5;entryY=1;entryDx=0;entryDy=0;" parent="AGziPY1m4EIGYf3XqmNb-1" source="AGziPY1m4EIGYf3XqmNb-254" target="AGziPY1m4EIGYf3XqmNb-241" edge="1">
          <mxGeometry width="50" height="50" relative="1" as="geometry">
            <mxPoint x="480" y="660" as="sourcePoint" />
            <mxPoint x="570" y="540" as="targetPoint" />
          </mxGeometry>
        </mxCell>
        <mxCell id="AGziPY1m4EIGYf3XqmNb-253" value="," style="ellipse;whiteSpace=wrap;html=1;aspect=fixed;" parent="AGziPY1m4EIGYf3XqmNb-1" vertex="1">
          <mxGeometry x="557" y="560" width="40" height="40" as="geometry" />
        </mxCell>
        <mxCell id="AGziPY1m4EIGYf3XqmNb-254" value="i" style="ellipse;whiteSpace=wrap;html=1;aspect=fixed;" parent="AGziPY1m4EIGYf3XqmNb-1" vertex="1">
          <mxGeometry x="497" y="560" width="40" height="40" as="geometry" />
        </mxCell>
        <mxCell id="AGziPY1m4EIGYf3XqmNb-255" value="i" style="ellipse;whiteSpace=wrap;html=1;aspect=fixed;" parent="AGziPY1m4EIGYf3XqmNb-1" vertex="1">
          <mxGeometry x="610" y="620" width="40" height="40" as="geometry" />
        </mxCell>
        <mxCell id="AGziPY1m4EIGYf3XqmNb-256" value="" style="endArrow=none;html=1;rounded=0;exitX=0.5;exitY=0;exitDx=0;exitDy=0;entryX=0.5;entryY=1;entryDx=0;entryDy=0;" parent="AGziPY1m4EIGYf3XqmNb-1" source="AGziPY1m4EIGYf3XqmNb-255" target="AGziPY1m4EIGYf3XqmNb-249" edge="1">
          <mxGeometry width="50" height="50" relative="1" as="geometry">
            <mxPoint x="523" y="830" as="sourcePoint" />
            <mxPoint x="673" y="710" as="targetPoint" />
          </mxGeometry>
        </mxCell>
        <mxCell id="AGziPY1m4EIGYf3XqmNb-257" value="N" style="ellipse;whiteSpace=wrap;html=1;aspect=fixed;" parent="AGziPY1m4EIGYf3XqmNb-1" vertex="1">
          <mxGeometry x="853" y="500" width="40" height="40" as="geometry" />
        </mxCell>
        <mxCell id="AGziPY1m4EIGYf3XqmNb-258" style="edgeStyle=none;orthogonalLoop=1;jettySize=auto;html=1;exitX=0.5;exitY=0;exitDx=0;exitDy=0;endArrow=none;endFill=0;entryX=0.5;entryY=1;entryDx=0;entryDy=0;" parent="AGziPY1m4EIGYf3XqmNb-1" source="AGziPY1m4EIGYf3XqmNb-257" target="AGziPY1m4EIGYf3XqmNb-240" edge="1">
          <mxGeometry relative="1" as="geometry">
            <mxPoint x="750" y="480" as="targetPoint" />
          </mxGeometry>
        </mxCell>
        <mxCell id="AGziPY1m4EIGYf3XqmNb-259" style="edgeStyle=none;orthogonalLoop=1;jettySize=auto;html=1;exitX=0.5;exitY=0;exitDx=0;exitDy=0;endArrow=none;endFill=0;entryX=0.5;entryY=1;entryDx=0;entryDy=0;" parent="AGziPY1m4EIGYf3XqmNb-1" source="AGziPY1m4EIGYf3XqmNb-260" target="AGziPY1m4EIGYf3XqmNb-240" edge="1">
          <mxGeometry relative="1" as="geometry">
            <mxPoint x="750" y="480" as="targetPoint" />
          </mxGeometry>
        </mxCell>
        <mxCell id="AGziPY1m4EIGYf3XqmNb-260" value="t" style="ellipse;whiteSpace=wrap;html=1;aspect=fixed;" parent="AGziPY1m4EIGYf3XqmNb-1" vertex="1">
          <mxGeometry x="790" y="500" width="40" height="40" as="geometry" />
        </mxCell>
        <mxCell id="AGziPY1m4EIGYf3XqmNb-261" style="edgeStyle=none;orthogonalLoop=1;jettySize=auto;html=1;exitX=0.5;exitY=0;exitDx=0;exitDy=0;endArrow=none;endFill=0;entryX=0.5;entryY=1;entryDx=0;entryDy=0;" parent="AGziPY1m4EIGYf3XqmNb-1" source="AGziPY1m4EIGYf3XqmNb-262" target="AGziPY1m4EIGYf3XqmNb-240" edge="1">
          <mxGeometry relative="1" as="geometry">
            <mxPoint x="750" y="480" as="targetPoint" />
          </mxGeometry>
        </mxCell>
        <mxCell id="AGziPY1m4EIGYf3XqmNb-262" value="d" style="ellipse;whiteSpace=wrap;html=1;aspect=fixed;" parent="AGziPY1m4EIGYf3XqmNb-1" vertex="1">
          <mxGeometry x="730" y="500" width="40" height="40" as="geometry" />
        </mxCell>
        <mxCell id="AGziPY1m4EIGYf3XqmNb-263" style="edgeStyle=none;orthogonalLoop=1;jettySize=auto;html=1;exitX=0.5;exitY=0;exitDx=0;exitDy=0;entryX=0.5;entryY=1;entryDx=0;entryDy=0;endArrow=none;endFill=0;fontFamily=GOSTRUS;" parent="AGziPY1m4EIGYf3XqmNb-1" source="AGziPY1m4EIGYf3XqmNb-264" target="AGziPY1m4EIGYf3XqmNb-257" edge="1">
          <mxGeometry relative="1" as="geometry">
            <mxPoint x="689.5" y="530" as="targetPoint" />
          </mxGeometry>
        </mxCell>
        <mxCell id="AGziPY1m4EIGYf3XqmNb-264" value="&lt;p&gt;&lt;font&gt;i&lt;/font&gt;&lt;/p&gt;" style="ellipse;whiteSpace=wrap;html=1;aspect=fixed;fontFamily=GOSTRUS;" parent="AGziPY1m4EIGYf3XqmNb-1" vertex="1">
          <mxGeometry x="670" y="560" width="40" height="40" as="geometry" />
        </mxCell>
        <mxCell id="AGziPY1m4EIGYf3XqmNb-265" style="edgeStyle=none;orthogonalLoop=1;jettySize=auto;html=1;exitX=0.5;exitY=0;exitDx=0;exitDy=0;entryX=0.5;entryY=1;entryDx=0;entryDy=0;endArrow=none;endFill=0;fontFamily=GOSTRUS;" parent="AGziPY1m4EIGYf3XqmNb-1" source="AGziPY1m4EIGYf3XqmNb-266" target="AGziPY1m4EIGYf3XqmNb-257" edge="1">
          <mxGeometry relative="1" as="geometry">
            <mxPoint x="689.5" y="530" as="targetPoint" />
          </mxGeometry>
        </mxCell>
        <mxCell id="AGziPY1m4EIGYf3XqmNb-266" value="&lt;p&gt;&lt;font&gt;=&lt;/font&gt;&lt;/p&gt;" style="ellipse;whiteSpace=wrap;html=1;aspect=fixed;fontFamily=GOSTRUS;" parent="AGziPY1m4EIGYf3XqmNb-1" vertex="1">
          <mxGeometry x="727" y="560" width="40" height="40" as="geometry" />
        </mxCell>
        <mxCell id="AGziPY1m4EIGYf3XqmNb-267" style="edgeStyle=none;orthogonalLoop=1;jettySize=auto;html=1;exitX=0.5;exitY=0;exitDx=0;exitDy=0;entryX=0.5;entryY=1;entryDx=0;entryDy=0;endArrow=none;endFill=0;fontFamily=GOSTRUS;" parent="AGziPY1m4EIGYf3XqmNb-1" source="AGziPY1m4EIGYf3XqmNb-268" target="AGziPY1m4EIGYf3XqmNb-257" edge="1">
          <mxGeometry relative="1" as="geometry">
            <mxPoint x="689.5" y="530" as="targetPoint" />
          </mxGeometry>
        </mxCell>
        <mxCell id="AGziPY1m4EIGYf3XqmNb-268" value="E" style="ellipse;whiteSpace=wrap;html=1;aspect=fixed;fontFamily=GOSTRUS;" parent="AGziPY1m4EIGYf3XqmNb-1" vertex="1">
          <mxGeometry x="790" y="560" width="40" height="40" as="geometry" />
        </mxCell>
        <mxCell id="AGziPY1m4EIGYf3XqmNb-269" style="rounded=0;orthogonalLoop=1;jettySize=auto;html=1;exitX=0.5;exitY=0;exitDx=0;exitDy=0;entryX=0.5;entryY=1;entryDx=0;entryDy=0;endArrow=none;endFill=0;" parent="AGziPY1m4EIGYf3XqmNb-1" source="AGziPY1m4EIGYf3XqmNb-270" target="AGziPY1m4EIGYf3XqmNb-257" edge="1">
          <mxGeometry relative="1" as="geometry">
            <mxPoint x="689.5" y="530" as="targetPoint" />
          </mxGeometry>
        </mxCell>
        <mxCell id="AGziPY1m4EIGYf3XqmNb-270" value=";" style="ellipse;whiteSpace=wrap;html=1;aspect=fixed;fontFamily=GOSTRUS;" parent="AGziPY1m4EIGYf3XqmNb-1" vertex="1">
          <mxGeometry x="853" y="560" width="40" height="40" as="geometry" />
        </mxCell>
        <mxCell id="AGziPY1m4EIGYf3XqmNb-271" value="" style="endArrow=none;html=1;rounded=0;exitX=0.5;exitY=1;exitDx=0;exitDy=0;entryX=0.5;entryY=0;entryDx=0;entryDy=0;" parent="AGziPY1m4EIGYf3XqmNb-1" source="AGziPY1m4EIGYf3XqmNb-257" target="AGziPY1m4EIGYf3XqmNb-272" edge="1">
          <mxGeometry width="50" height="50" relative="1" as="geometry">
            <mxPoint x="689.5" y="530" as="sourcePoint" />
            <mxPoint x="973" y="560" as="targetPoint" />
          </mxGeometry>
        </mxCell>
        <mxCell id="AGziPY1m4EIGYf3XqmNb-272" value="N" style="ellipse;whiteSpace=wrap;html=1;aspect=fixed;" parent="AGziPY1m4EIGYf3XqmNb-1" vertex="1">
          <mxGeometry x="910" y="560" width="40" height="40" as="geometry" />
        </mxCell>
        <mxCell id="AGziPY1m4EIGYf3XqmNb-273" value="W" style="ellipse;whiteSpace=wrap;html=1;aspect=fixed;" parent="AGziPY1m4EIGYf3XqmNb-1" vertex="1">
          <mxGeometry x="790" y="620" width="40" height="40" as="geometry" />
        </mxCell>
        <mxCell id="AGziPY1m4EIGYf3XqmNb-274" value="(" style="ellipse;whiteSpace=wrap;html=1;aspect=fixed;" parent="AGziPY1m4EIGYf3XqmNb-1" vertex="1">
          <mxGeometry x="733" y="620" width="40" height="40" as="geometry" />
        </mxCell>
        <mxCell id="AGziPY1m4EIGYf3XqmNb-275" value="M" style="ellipse;whiteSpace=wrap;html=1;aspect=fixed;" parent="AGziPY1m4EIGYf3XqmNb-1" vertex="1">
          <mxGeometry x="673" y="620" width="40" height="40" as="geometry" />
        </mxCell>
        <mxCell id="AGziPY1m4EIGYf3XqmNb-276" value="" style="endArrow=none;html=1;rounded=0;exitX=0.5;exitY=0;exitDx=0;exitDy=0;" parent="AGziPY1m4EIGYf3XqmNb-1" source="AGziPY1m4EIGYf3XqmNb-274" edge="1">
          <mxGeometry width="50" height="50" relative="1" as="geometry">
            <mxPoint x="720" y="720" as="sourcePoint" />
            <mxPoint x="810" y="600" as="targetPoint" />
          </mxGeometry>
        </mxCell>
        <mxCell id="AGziPY1m4EIGYf3XqmNb-277" value="" style="endArrow=none;html=1;rounded=0;exitX=0.5;exitY=0;exitDx=0;exitDy=0;entryX=0.5;entryY=1;entryDx=0;entryDy=0;" parent="AGziPY1m4EIGYf3XqmNb-1" source="AGziPY1m4EIGYf3XqmNb-275" edge="1">
          <mxGeometry width="50" height="50" relative="1" as="geometry">
            <mxPoint x="720" y="720" as="sourcePoint" />
            <mxPoint x="810" y="600" as="targetPoint" />
          </mxGeometry>
        </mxCell>
        <mxCell id="AGziPY1m4EIGYf3XqmNb-278" value="" style="endArrow=none;html=1;rounded=0;entryX=0.5;entryY=1;entryDx=0;entryDy=0;exitX=0.5;exitY=0;exitDx=0;exitDy=0;" parent="AGziPY1m4EIGYf3XqmNb-1" source="AGziPY1m4EIGYf3XqmNb-273" edge="1">
          <mxGeometry width="50" height="50" relative="1" as="geometry">
            <mxPoint x="710" y="630" as="sourcePoint" />
            <mxPoint x="810" y="600" as="targetPoint" />
          </mxGeometry>
        </mxCell>
        <mxCell id="AGziPY1m4EIGYf3XqmNb-279" value=")" style="ellipse;whiteSpace=wrap;html=1;aspect=fixed;" parent="AGziPY1m4EIGYf3XqmNb-1" vertex="1">
          <mxGeometry x="853" y="620" width="40" height="40" as="geometry" />
        </mxCell>
        <mxCell id="AGziPY1m4EIGYf3XqmNb-280" value="" style="endArrow=none;html=1;rounded=0;entryX=0.5;entryY=1;entryDx=0;entryDy=0;exitX=0.5;exitY=0;exitDx=0;exitDy=0;" parent="AGziPY1m4EIGYf3XqmNb-1" source="AGziPY1m4EIGYf3XqmNb-279" edge="1">
          <mxGeometry width="50" height="50" relative="1" as="geometry">
            <mxPoint x="820" y="640" as="sourcePoint" />
            <mxPoint x="810" y="600" as="targetPoint" />
          </mxGeometry>
        </mxCell>
        <mxCell id="AGziPY1m4EIGYf3XqmNb-281" value="" style="endArrow=none;html=1;rounded=0;exitX=0.5;exitY=0;exitDx=0;exitDy=0;" parent="AGziPY1m4EIGYf3XqmNb-1" source="AGziPY1m4EIGYf3XqmNb-282" edge="1">
          <mxGeometry width="50" height="50" relative="1" as="geometry">
            <mxPoint x="813.0000000000002" y="690.0000000000002" as="sourcePoint" />
            <mxPoint x="810" y="660" as="targetPoint" />
          </mxGeometry>
        </mxCell>
        <mxCell id="AGziPY1m4EIGYf3XqmNb-282" value="i" style="ellipse;whiteSpace=wrap;html=1;aspect=fixed;" parent="AGziPY1m4EIGYf3XqmNb-1" vertex="1">
          <mxGeometry x="790" y="680" width="40" height="40" as="geometry" />
        </mxCell>
        <mxCell id="AGziPY1m4EIGYf3XqmNb-283" value=";" style="ellipse;whiteSpace=wrap;html=1;aspect=fixed;" parent="AGziPY1m4EIGYf3XqmNb-1" vertex="1">
          <mxGeometry x="1025" y="620" width="40" height="40" as="geometry" />
        </mxCell>
        <mxCell id="AGziPY1m4EIGYf3XqmNb-284" value="E" style="ellipse;whiteSpace=wrap;html=1;aspect=fixed;" parent="AGziPY1m4EIGYf3XqmNb-1" vertex="1">
          <mxGeometry x="970" y="620" width="40" height="40" as="geometry" />
        </mxCell>
        <mxCell id="AGziPY1m4EIGYf3XqmNb-285" value="" style="endArrow=none;html=1;rounded=0;entryX=0.5;entryY=1;entryDx=0;entryDy=0;" parent="AGziPY1m4EIGYf3XqmNb-1" target="AGziPY1m4EIGYf3XqmNb-286" edge="1">
          <mxGeometry width="50" height="50" relative="1" as="geometry">
            <mxPoint x="930" y="640" as="sourcePoint" />
            <mxPoint x="930" y="600" as="targetPoint" />
          </mxGeometry>
        </mxCell>
        <mxCell id="AGziPY1m4EIGYf3XqmNb-286" value="p" style="ellipse;whiteSpace=wrap;html=1;aspect=fixed;" parent="AGziPY1m4EIGYf3XqmNb-1" vertex="1">
          <mxGeometry x="910" y="620" width="40" height="40" as="geometry" />
        </mxCell>
        <mxCell id="AGziPY1m4EIGYf3XqmNb-287" value=")" style="ellipse;whiteSpace=wrap;html=1;aspect=fixed;fontFamily=GOSTRUS;" parent="AGziPY1m4EIGYf3XqmNb-1" vertex="1">
          <mxGeometry x="970" y="680" width="40" height="40" as="geometry" />
        </mxCell>
        <mxCell id="AGziPY1m4EIGYf3XqmNb-288" style="rounded=0;orthogonalLoop=1;jettySize=auto;html=1;exitX=0.5;exitY=0;exitDx=0;exitDy=0;entryX=0.5;entryY=1;entryDx=0;entryDy=0;endArrow=none;endFill=0;" parent="AGziPY1m4EIGYf3XqmNb-1" source="AGziPY1m4EIGYf3XqmNb-287" edge="1">
          <mxGeometry relative="1" as="geometry">
            <mxPoint x="990" y="660" as="targetPoint" />
          </mxGeometry>
        </mxCell>
        <mxCell id="AGziPY1m4EIGYf3XqmNb-289" value="E" style="ellipse;whiteSpace=wrap;html=1;aspect=fixed;fontFamily=GOSTRUS;" parent="AGziPY1m4EIGYf3XqmNb-1" vertex="1">
          <mxGeometry x="913" y="680" width="40" height="40" as="geometry" />
        </mxCell>
        <mxCell id="AGziPY1m4EIGYf3XqmNb-290" style="edgeStyle=none;orthogonalLoop=1;jettySize=auto;html=1;exitX=0.5;exitY=0;exitDx=0;exitDy=0;endArrow=none;endFill=0;fontFamily=GOSTRUS;entryX=0.5;entryY=1;entryDx=0;entryDy=0;" parent="AGziPY1m4EIGYf3XqmNb-1" source="AGziPY1m4EIGYf3XqmNb-289" edge="1">
          <mxGeometry relative="1" as="geometry">
            <mxPoint x="990" y="660" as="targetPoint" />
          </mxGeometry>
        </mxCell>
        <mxCell id="AGziPY1m4EIGYf3XqmNb-291" style="edgeStyle=none;orthogonalLoop=1;jettySize=auto;html=1;exitX=0.5;exitY=0;exitDx=0;exitDy=0;entryX=0.5;entryY=1;entryDx=0;entryDy=0;endArrow=none;endFill=0;fontFamily=GOSTRUS;" parent="AGziPY1m4EIGYf3XqmNb-1" source="AGziPY1m4EIGYf3XqmNb-292" edge="1">
          <mxGeometry relative="1" as="geometry">
            <mxPoint x="990" y="660" as="targetPoint" />
          </mxGeometry>
        </mxCell>
        <mxCell id="AGziPY1m4EIGYf3XqmNb-292" value="&lt;p&gt;&lt;font&gt;(&lt;/font&gt;&lt;/p&gt;" style="ellipse;whiteSpace=wrap;html=1;aspect=fixed;fontFamily=GOSTRUS;" parent="AGziPY1m4EIGYf3XqmNb-1" vertex="1">
          <mxGeometry x="853" y="680" width="40" height="40" as="geometry" />
        </mxCell>
        <mxCell id="AGziPY1m4EIGYf3XqmNb-293" value="i" style="ellipse;whiteSpace=wrap;html=1;aspect=fixed;fontFamily=GOSTRUS;" parent="AGziPY1m4EIGYf3XqmNb-1" vertex="1">
          <mxGeometry x="913" y="740" width="40" height="40" as="geometry" />
        </mxCell>
        <mxCell id="AGziPY1m4EIGYf3XqmNb-294" style="edgeStyle=none;orthogonalLoop=1;jettySize=auto;html=1;exitX=0.5;exitY=0;exitDx=0;exitDy=0;endArrow=none;endFill=0;fontFamily=GOSTRUS;entryX=0.5;entryY=1;entryDx=0;entryDy=0;" parent="AGziPY1m4EIGYf3XqmNb-1" source="AGziPY1m4EIGYf3XqmNb-293" edge="1">
          <mxGeometry relative="1" as="geometry">
            <mxPoint x="933" y="720" as="targetPoint" />
          </mxGeometry>
        </mxCell>
        <mxCell id="AGziPY1m4EIGYf3XqmNb-295" value="" style="endArrow=none;html=1;rounded=0;entryX=0.5;entryY=1;entryDx=0;entryDy=0;exitX=0.5;exitY=0;exitDx=0;exitDy=0;" parent="AGziPY1m4EIGYf3XqmNb-1" source="AGziPY1m4EIGYf3XqmNb-284" target="AGziPY1m4EIGYf3XqmNb-272" edge="1">
          <mxGeometry width="50" height="50" relative="1" as="geometry">
            <mxPoint x="1000" y="630" as="sourcePoint" />
            <mxPoint x="932.9999999999998" y="600" as="targetPoint" />
          </mxGeometry>
        </mxCell>
        <mxCell id="AGziPY1m4EIGYf3XqmNb-296" value="" style="endArrow=none;html=1;rounded=0;exitX=0.5;exitY=0;exitDx=0;exitDy=0;entryX=0.5;entryY=1;entryDx=0;entryDy=0;" parent="AGziPY1m4EIGYf3XqmNb-1" source="AGziPY1m4EIGYf3XqmNb-286" target="AGziPY1m4EIGYf3XqmNb-272" edge="1">
          <mxGeometry width="50" height="50" relative="1" as="geometry">
            <mxPoint x="1010" y="640" as="sourcePoint" />
            <mxPoint x="932.0799999999999" y="600.3199999999999" as="targetPoint" />
          </mxGeometry>
        </mxCell>
        <mxCell id="AGziPY1m4EIGYf3XqmNb-297" value="" style="endArrow=none;html=1;rounded=0;exitX=0.5;exitY=0;exitDx=0;exitDy=0;" parent="AGziPY1m4EIGYf3XqmNb-1" source="AGziPY1m4EIGYf3XqmNb-283" edge="1">
          <mxGeometry width="50" height="50" relative="1" as="geometry">
            <mxPoint x="949" y="640" as="sourcePoint" />
            <mxPoint x="930" y="600" as="targetPoint" />
          </mxGeometry>
        </mxCell>
        <mxCell id="AGziPY1m4EIGYf3XqmNb-298" value="2" style="ellipse;whiteSpace=wrap;html=1;aspect=fixed;" parent="AGziPY1m4EIGYf3XqmNb-1" vertex="1">
          <mxGeometry x="1197" y="740" width="40" height="40" as="geometry" />
        </mxCell>
        <mxCell id="AGziPY1m4EIGYf3XqmNb-307" value="" style="endArrow=none;html=1;rounded=0;entryX=0.5;entryY=1;entryDx=0;entryDy=0;exitX=0.5;exitY=0;exitDx=0;exitDy=0;" parent="AGziPY1m4EIGYf3XqmNb-1" source="AGziPY1m4EIGYf3XqmNb-224" target="AGziPY1m4EIGYf3XqmNb-220" edge="1">
          <mxGeometry width="50" height="50" relative="1" as="geometry">
            <mxPoint x="380" y="420" as="sourcePoint" />
            <mxPoint x="430" y="370" as="targetPoint" />
          </mxGeometry>
        </mxCell>
        <mxCell id="AGziPY1m4EIGYf3XqmNb-308" value="N" style="ellipse;whiteSpace=wrap;html=1;aspect=fixed;" parent="AGziPY1m4EIGYf3XqmNb-1" vertex="1">
          <mxGeometry x="1084" y="620" width="40" height="40" as="geometry" />
        </mxCell>
        <mxCell id="AGziPY1m4EIGYf3XqmNb-309" value="" style="endArrow=none;html=1;rounded=0;entryX=0.5;entryY=0;entryDx=0;entryDy=0;" parent="AGziPY1m4EIGYf3XqmNb-1" target="AGziPY1m4EIGYf3XqmNb-308" edge="1">
          <mxGeometry width="50" height="50" relative="1" as="geometry">
            <mxPoint x="934" y="600" as="sourcePoint" />
            <mxPoint x="1054" y="660" as="targetPoint" />
          </mxGeometry>
        </mxCell>
        <mxCell id="AGziPY1m4EIGYf3XqmNb-310" value=";" style="ellipse;whiteSpace=wrap;html=1;aspect=fixed;" parent="AGziPY1m4EIGYf3XqmNb-1" vertex="1">
          <mxGeometry x="1138" y="680" width="40" height="40" as="geometry" />
        </mxCell>
        <mxCell id="AGziPY1m4EIGYf3XqmNb-311" value="E" style="ellipse;whiteSpace=wrap;html=1;aspect=fixed;" parent="AGziPY1m4EIGYf3XqmNb-1" vertex="1">
          <mxGeometry x="1083" y="680" width="40" height="40" as="geometry" />
        </mxCell>
        <mxCell id="AGziPY1m4EIGYf3XqmNb-312" value="" style="endArrow=none;html=1;rounded=0;entryX=0.5;entryY=1;entryDx=0;entryDy=0;" parent="AGziPY1m4EIGYf3XqmNb-1" target="AGziPY1m4EIGYf3XqmNb-313" edge="1">
          <mxGeometry width="50" height="50" relative="1" as="geometry">
            <mxPoint x="1043" y="700" as="sourcePoint" />
            <mxPoint x="1043" y="660" as="targetPoint" />
          </mxGeometry>
        </mxCell>
        <mxCell id="AGziPY1m4EIGYf3XqmNb-313" value="p" style="ellipse;whiteSpace=wrap;html=1;aspect=fixed;" parent="AGziPY1m4EIGYf3XqmNb-1" vertex="1">
          <mxGeometry x="1027" y="680" width="40" height="40" as="geometry" />
        </mxCell>
        <mxCell id="AGziPY1m4EIGYf3XqmNb-314" value=")" style="ellipse;whiteSpace=wrap;html=1;aspect=fixed;fontFamily=GOSTRUS;" parent="AGziPY1m4EIGYf3XqmNb-1" vertex="1">
          <mxGeometry x="1143" y="740" width="40" height="40" as="geometry" />
        </mxCell>
        <mxCell id="AGziPY1m4EIGYf3XqmNb-315" style="rounded=0;orthogonalLoop=1;jettySize=auto;html=1;exitX=0.5;exitY=0;exitDx=0;exitDy=0;entryX=0.5;entryY=1;entryDx=0;entryDy=0;endArrow=none;endFill=0;" parent="AGziPY1m4EIGYf3XqmNb-1" source="AGziPY1m4EIGYf3XqmNb-314" edge="1">
          <mxGeometry relative="1" as="geometry">
            <mxPoint x="1103" y="720" as="targetPoint" />
          </mxGeometry>
        </mxCell>
        <mxCell id="AGziPY1m4EIGYf3XqmNb-316" value="E" style="ellipse;whiteSpace=wrap;html=1;aspect=fixed;fontFamily=GOSTRUS;" parent="AGziPY1m4EIGYf3XqmNb-1" vertex="1">
          <mxGeometry x="1083" y="740" width="40" height="40" as="geometry" />
        </mxCell>
        <mxCell id="AGziPY1m4EIGYf3XqmNb-317" style="edgeStyle=none;orthogonalLoop=1;jettySize=auto;html=1;exitX=0.5;exitY=0;exitDx=0;exitDy=0;endArrow=none;endFill=0;fontFamily=GOSTRUS;entryX=0.5;entryY=1;entryDx=0;entryDy=0;" parent="AGziPY1m4EIGYf3XqmNb-1" source="AGziPY1m4EIGYf3XqmNb-316" edge="1">
          <mxGeometry relative="1" as="geometry">
            <mxPoint x="1103" y="720" as="targetPoint" />
          </mxGeometry>
        </mxCell>
        <mxCell id="AGziPY1m4EIGYf3XqmNb-318" style="edgeStyle=none;orthogonalLoop=1;jettySize=auto;html=1;exitX=0.5;exitY=0;exitDx=0;exitDy=0;entryX=0.5;entryY=1;entryDx=0;entryDy=0;endArrow=none;endFill=0;fontFamily=GOSTRUS;" parent="AGziPY1m4EIGYf3XqmNb-1" source="AGziPY1m4EIGYf3XqmNb-319" edge="1">
          <mxGeometry relative="1" as="geometry">
            <mxPoint x="1103" y="720" as="targetPoint" />
          </mxGeometry>
        </mxCell>
        <mxCell id="AGziPY1m4EIGYf3XqmNb-319" value="&lt;p&gt;&lt;font&gt;(&lt;/font&gt;&lt;/p&gt;" style="ellipse;whiteSpace=wrap;html=1;aspect=fixed;fontFamily=GOSTRUS;" parent="AGziPY1m4EIGYf3XqmNb-1" vertex="1">
          <mxGeometry x="1023" y="740" width="40" height="40" as="geometry" />
        </mxCell>
        <mxCell id="AGziPY1m4EIGYf3XqmNb-320" value="i" style="ellipse;whiteSpace=wrap;html=1;aspect=fixed;fontFamily=GOSTRUS;" parent="AGziPY1m4EIGYf3XqmNb-1" vertex="1">
          <mxGeometry x="1083" y="800" width="40" height="40" as="geometry" />
        </mxCell>
        <mxCell id="AGziPY1m4EIGYf3XqmNb-321" style="edgeStyle=none;orthogonalLoop=1;jettySize=auto;html=1;exitX=0.5;exitY=0;exitDx=0;exitDy=0;endArrow=none;endFill=0;fontFamily=GOSTRUS;entryX=0.5;entryY=1;entryDx=0;entryDy=0;" parent="AGziPY1m4EIGYf3XqmNb-1" source="AGziPY1m4EIGYf3XqmNb-320" edge="1">
          <mxGeometry relative="1" as="geometry">
            <mxPoint x="1103" y="780" as="targetPoint" />
          </mxGeometry>
        </mxCell>
        <mxCell id="AGziPY1m4EIGYf3XqmNb-322" value="N" style="ellipse;whiteSpace=wrap;html=1;aspect=fixed;" parent="AGziPY1m4EIGYf3XqmNb-1" vertex="1">
          <mxGeometry x="1197" y="680" width="40" height="40" as="geometry" />
        </mxCell>
        <mxCell id="AGziPY1m4EIGYf3XqmNb-323" value="" style="endArrow=none;html=1;rounded=0;entryX=0.5;entryY=1;entryDx=0;entryDy=0;" parent="AGziPY1m4EIGYf3XqmNb-1" target="AGziPY1m4EIGYf3XqmNb-308" edge="1">
          <mxGeometry width="50" height="50" relative="1" as="geometry">
            <mxPoint x="1104" y="680" as="sourcePoint" />
            <mxPoint x="1154" y="650" as="targetPoint" />
          </mxGeometry>
        </mxCell>
        <mxCell id="AGziPY1m4EIGYf3XqmNb-325" value="" style="endArrow=none;html=1;rounded=0;entryX=0.5;entryY=0;entryDx=0;entryDy=0;" parent="AGziPY1m4EIGYf3XqmNb-1" target="AGziPY1m4EIGYf3XqmNb-310" edge="1">
          <mxGeometry width="50" height="50" relative="1" as="geometry">
            <mxPoint x="1104" y="660" as="sourcePoint" />
            <mxPoint x="1154" y="650" as="targetPoint" />
          </mxGeometry>
        </mxCell>
        <mxCell id="AGziPY1m4EIGYf3XqmNb-326" value="" style="endArrow=none;html=1;rounded=0;entryX=0.5;entryY=0;entryDx=0;entryDy=0;" parent="AGziPY1m4EIGYf3XqmNb-1" target="AGziPY1m4EIGYf3XqmNb-322" edge="1">
          <mxGeometry width="50" height="50" relative="1" as="geometry">
            <mxPoint x="1104" y="660" as="sourcePoint" />
            <mxPoint x="1154" y="650" as="targetPoint" />
          </mxGeometry>
        </mxCell>
        <mxCell id="AGziPY1m4EIGYf3XqmNb-327" value="" style="endArrow=none;html=1;rounded=0;entryX=0.5;entryY=1;entryDx=0;entryDy=0;exitX=0.5;exitY=0;exitDx=0;exitDy=0;" parent="AGziPY1m4EIGYf3XqmNb-1" source="AGziPY1m4EIGYf3XqmNb-298" target="AGziPY1m4EIGYf3XqmNb-322" edge="1">
          <mxGeometry width="50" height="50" relative="1" as="geometry">
            <mxPoint x="1197" y="850" as="sourcePoint" />
            <mxPoint x="1247" y="800" as="targetPoint" />
          </mxGeometry>
        </mxCell>
        <mxCell id="w9J-u2O5Tl61E7LAhTc7-0" value="" style="endArrow=none;html=1;rounded=0;entryX=0.5;entryY=1;entryDx=0;entryDy=0;exitX=0.5;exitY=0;exitDx=0;exitDy=0;" parent="AGziPY1m4EIGYf3XqmNb-1" source="AGziPY1m4EIGYf3XqmNb-313" target="AGziPY1m4EIGYf3XqmNb-308" edge="1">
          <mxGeometry width="50" height="50" relative="1" as="geometry">
            <mxPoint x="1000" y="760" as="sourcePoint" />
            <mxPoint x="1050" y="710" as="targetPoint" />
          </mxGeometry>
        </mxCell>
      </root>
    </mxGraphModel>
  </diagram>
  <diagram id="3vA8lXhKywW3rMtStteA" name="Страница — 3">
    <mxGraphModel dx="793" dy="383" grid="1" gridSize="10" guides="1" tooltips="1" connect="1" arrows="1" fold="1" page="1" pageScale="1" pageWidth="827" pageHeight="1169" math="0" shadow="0">
      <root>
        <mxCell id="0" />
        <mxCell id="1" parent="0" />
        <mxCell id="eA6uN4_dBoXAXeZyeOP6-1" value="3" style="ellipse;whiteSpace=wrap;html=1;aspect=fixed;fontFamily=GOSTRUS;" parent="1" vertex="1">
          <mxGeometry x="150" y="355" width="40" height="40" as="geometry" />
        </mxCell>
        <mxCell id="eA6uN4_dBoXAXeZyeOP6-2" value="N" style="ellipse;whiteSpace=wrap;html=1;aspect=fixed;" parent="1" vertex="1">
          <mxGeometry x="270" y="425" width="40" height="40" as="geometry" />
        </mxCell>
        <mxCell id="eA6uN4_dBoXAXeZyeOP6-3" value="t" style="ellipse;whiteSpace=wrap;html=1;aspect=fixed;" parent="1" vertex="1">
          <mxGeometry x="210" y="425" width="40" height="40" as="geometry" />
        </mxCell>
        <mxCell id="eA6uN4_dBoXAXeZyeOP6-4" value="d" style="ellipse;whiteSpace=wrap;html=1;aspect=fixed;" parent="1" vertex="1">
          <mxGeometry x="150" y="425" width="40" height="40" as="geometry" />
        </mxCell>
        <mxCell id="eA6uN4_dBoXAXeZyeOP6-5" style="edgeStyle=none;orthogonalLoop=1;jettySize=auto;html=1;exitX=0.5;exitY=0;exitDx=0;exitDy=0;endArrow=none;endFill=0;fontFamily=GOSTRUS;" parent="1" source="eA6uN4_dBoXAXeZyeOP6-6" edge="1">
          <mxGeometry relative="1" as="geometry">
            <mxPoint x="290" y="465" as="targetPoint" />
          </mxGeometry>
        </mxCell>
        <mxCell id="eA6uN4_dBoXAXeZyeOP6-6" value="&lt;p&gt;&lt;font&gt;i&lt;/font&gt;&lt;/p&gt;" style="ellipse;whiteSpace=wrap;html=1;aspect=fixed;fontFamily=GOSTRUS;" parent="1" vertex="1">
          <mxGeometry x="150" y="485" width="40" height="40" as="geometry" />
        </mxCell>
        <mxCell id="eA6uN4_dBoXAXeZyeOP6-7" style="edgeStyle=none;orthogonalLoop=1;jettySize=auto;html=1;exitX=0.5;exitY=0;exitDx=0;exitDy=0;endArrow=none;endFill=0;fontFamily=GOSTRUS;" parent="1" source="eA6uN4_dBoXAXeZyeOP6-8" edge="1">
          <mxGeometry relative="1" as="geometry">
            <mxPoint x="290" y="465" as="targetPoint" />
          </mxGeometry>
        </mxCell>
        <mxCell id="eA6uN4_dBoXAXeZyeOP6-8" value="&lt;p&gt;&lt;font&gt;=&lt;/font&gt;&lt;/p&gt;" style="ellipse;whiteSpace=wrap;html=1;aspect=fixed;fontFamily=GOSTRUS;" parent="1" vertex="1">
          <mxGeometry x="210" y="485" width="40" height="40" as="geometry" />
        </mxCell>
        <mxCell id="eA6uN4_dBoXAXeZyeOP6-9" style="edgeStyle=none;orthogonalLoop=1;jettySize=auto;html=1;exitX=0.5;exitY=0;exitDx=0;exitDy=0;endArrow=none;endFill=0;fontFamily=GOSTRUS;" parent="1" source="eA6uN4_dBoXAXeZyeOP6-10" edge="1">
          <mxGeometry relative="1" as="geometry">
            <mxPoint x="290" y="465" as="targetPoint" />
          </mxGeometry>
        </mxCell>
        <mxCell id="eA6uN4_dBoXAXeZyeOP6-10" value="E" style="ellipse;whiteSpace=wrap;html=1;aspect=fixed;fontFamily=GOSTRUS;" parent="1" vertex="1">
          <mxGeometry x="270" y="485" width="40" height="40" as="geometry" />
        </mxCell>
        <mxCell id="eA6uN4_dBoXAXeZyeOP6-11" style="rounded=0;orthogonalLoop=1;jettySize=auto;html=1;exitX=0.5;exitY=0;exitDx=0;exitDy=0;entryX=0.5;entryY=1;entryDx=0;entryDy=0;endArrow=none;endFill=0;" parent="1" source="eA6uN4_dBoXAXeZyeOP6-12" target="eA6uN4_dBoXAXeZyeOP6-2" edge="1">
          <mxGeometry relative="1" as="geometry">
            <mxPoint x="290" y="475" as="targetPoint" />
          </mxGeometry>
        </mxCell>
        <mxCell id="eA6uN4_dBoXAXeZyeOP6-12" value=";" style="ellipse;whiteSpace=wrap;html=1;aspect=fixed;fontFamily=GOSTRUS;" parent="1" vertex="1">
          <mxGeometry x="330" y="485" width="40" height="40" as="geometry" />
        </mxCell>
        <mxCell id="eA6uN4_dBoXAXeZyeOP6-13" value="l" style="ellipse;whiteSpace=wrap;html=1;aspect=fixed;" parent="1" vertex="1">
          <mxGeometry x="270" y="545" width="40" height="40" as="geometry" />
        </mxCell>
        <mxCell id="eA6uN4_dBoXAXeZyeOP6-14" value="" style="endArrow=none;html=1;rounded=0;entryX=0.5;entryY=1;entryDx=0;entryDy=0;exitX=0.5;exitY=0;exitDx=0;exitDy=0;" parent="1" source="eA6uN4_dBoXAXeZyeOP6-13" target="eA6uN4_dBoXAXeZyeOP6-10" edge="1">
          <mxGeometry width="50" height="50" relative="1" as="geometry">
            <mxPoint x="300" y="565" as="sourcePoint" />
            <mxPoint x="300" y="535" as="targetPoint" />
          </mxGeometry>
        </mxCell>
        <mxCell id="eA6uN4_dBoXAXeZyeOP6-15" value="" style="endArrow=none;html=1;rounded=0;exitX=0.5;exitY=0;exitDx=0;exitDy=0;" parent="1" source="eA6uN4_dBoXAXeZyeOP6-4" edge="1">
          <mxGeometry width="50" height="50" relative="1" as="geometry">
            <mxPoint x="250" y="565" as="sourcePoint" />
            <mxPoint x="170" y="396" as="targetPoint" />
          </mxGeometry>
        </mxCell>
        <mxCell id="eA6uN4_dBoXAXeZyeOP6-16" value="" style="endArrow=none;html=1;rounded=0;entryX=0.5;entryY=1;entryDx=0;entryDy=0;exitX=0.5;exitY=0;exitDx=0;exitDy=0;" parent="1" source="eA6uN4_dBoXAXeZyeOP6-3" target="eA6uN4_dBoXAXeZyeOP6-1" edge="1">
          <mxGeometry width="50" height="50" relative="1" as="geometry">
            <mxPoint x="240" y="465" as="sourcePoint" />
            <mxPoint x="290" y="415" as="targetPoint" />
          </mxGeometry>
        </mxCell>
        <mxCell id="eA6uN4_dBoXAXeZyeOP6-17" value="" style="endArrow=none;html=1;rounded=0;entryX=0.5;entryY=1;entryDx=0;entryDy=0;exitX=0.5;exitY=0;exitDx=0;exitDy=0;" parent="1" source="eA6uN4_dBoXAXeZyeOP6-2" target="eA6uN4_dBoXAXeZyeOP6-1" edge="1">
          <mxGeometry width="50" height="50" relative="1" as="geometry">
            <mxPoint x="240" y="465" as="sourcePoint" />
            <mxPoint x="290" y="415" as="targetPoint" />
          </mxGeometry>
        </mxCell>
        <mxCell id="eA6uN4_dBoXAXeZyeOP6-18" value="4" style="ellipse;whiteSpace=wrap;html=1;aspect=fixed;fontFamily=GOSTRUS;" parent="1" vertex="1">
          <mxGeometry x="390" y="485" width="40" height="40" as="geometry" />
        </mxCell>
        <mxCell id="eA6uN4_dBoXAXeZyeOP6-19" value="" style="endArrow=none;html=1;rounded=0;entryX=0.5;entryY=0;entryDx=0;entryDy=0;exitX=0.5;exitY=1;exitDx=0;exitDy=0;" parent="1" source="eA6uN4_dBoXAXeZyeOP6-2" target="eA6uN4_dBoXAXeZyeOP6-18" edge="1">
          <mxGeometry width="50" height="50" relative="1" as="geometry">
            <mxPoint x="380" y="445" as="sourcePoint" />
            <mxPoint x="430" y="395" as="targetPoint" />
          </mxGeometry>
        </mxCell>
        <mxCell id="jnJ0B8wt9rF5tkjCsLNv-1" style="rounded=0;orthogonalLoop=1;jettySize=auto;html=1;exitX=0.5;exitY=1;exitDx=0;exitDy=0;entryX=1;entryY=0;entryDx=0;entryDy=0;strokeColor=none;endArrow=none;endFill=0;" parent="1" source="jnJ0B8wt9rF5tkjCsLNv-3" target="jnJ0B8wt9rF5tkjCsLNv-4" edge="1">
          <mxGeometry relative="1" as="geometry" />
        </mxCell>
        <mxCell id="jnJ0B8wt9rF5tkjCsLNv-2" style="edgeStyle=none;orthogonalLoop=1;jettySize=auto;html=1;exitX=0.5;exitY=1;exitDx=0;exitDy=0;entryX=0.5;entryY=0;entryDx=0;entryDy=0;endArrow=none;endFill=0;" parent="1" source="jnJ0B8wt9rF5tkjCsLNv-3" target="jnJ0B8wt9rF5tkjCsLNv-4" edge="1">
          <mxGeometry relative="1" as="geometry" />
        </mxCell>
        <mxCell id="jnJ0B8wt9rF5tkjCsLNv-3" value="4" style="ellipse;whiteSpace=wrap;html=1;aspect=fixed;fontFamily=gost;fontSource=https%3A%2F%2Ffontlibrary.org%2F%2Fface%2Fgostrus-type-a%22%20type%3D%22text%2Fcss;" parent="1" vertex="1">
          <mxGeometry x="540" y="545" width="40" height="40" as="geometry" />
        </mxCell>
        <mxCell id="jnJ0B8wt9rF5tkjCsLNv-4" value="s" style="ellipse;whiteSpace=wrap;html=1;aspect=fixed;" parent="1" vertex="1">
          <mxGeometry x="100" y="625" width="40" height="40" as="geometry" />
        </mxCell>
        <mxCell id="jnJ0B8wt9rF5tkjCsLNv-5" style="edgeStyle=none;orthogonalLoop=1;jettySize=auto;html=1;exitX=0.5;exitY=0;exitDx=0;exitDy=0;entryX=0.5;entryY=1;entryDx=0;entryDy=0;endArrow=none;endFill=0;" parent="1" source="jnJ0B8wt9rF5tkjCsLNv-6" target="jnJ0B8wt9rF5tkjCsLNv-3" edge="1">
          <mxGeometry relative="1" as="geometry" />
        </mxCell>
        <mxCell id="jnJ0B8wt9rF5tkjCsLNv-6" value="(" style="ellipse;whiteSpace=wrap;html=1;aspect=fixed;fontFamily=Verdana;" parent="1" vertex="1">
          <mxGeometry x="160" y="625" width="40" height="40" as="geometry" />
        </mxCell>
        <mxCell id="jnJ0B8wt9rF5tkjCsLNv-7" style="edgeStyle=none;orthogonalLoop=1;jettySize=auto;html=1;exitX=0.5;exitY=0;exitDx=0;exitDy=0;endArrow=none;endFill=0;entryX=0.5;entryY=1;entryDx=0;entryDy=0;" parent="1" source="jnJ0B8wt9rF5tkjCsLNv-8" target="jnJ0B8wt9rF5tkjCsLNv-3" edge="1">
          <mxGeometry relative="1" as="geometry">
            <mxPoint x="340" y="595" as="targetPoint" />
          </mxGeometry>
        </mxCell>
        <mxCell id="jnJ0B8wt9rF5tkjCsLNv-8" value="B" style="ellipse;whiteSpace=wrap;html=1;aspect=fixed;" parent="1" vertex="1">
          <mxGeometry x="220" y="625" width="40" height="40" as="geometry" />
        </mxCell>
        <mxCell id="jnJ0B8wt9rF5tkjCsLNv-9" style="edgeStyle=none;orthogonalLoop=1;jettySize=auto;html=1;exitX=0.5;exitY=0;exitDx=0;exitDy=0;endArrow=none;endFill=0;entryX=0.5;entryY=1;entryDx=0;entryDy=0;" parent="1" source="jnJ0B8wt9rF5tkjCsLNv-10" target="jnJ0B8wt9rF5tkjCsLNv-3" edge="1">
          <mxGeometry relative="1" as="geometry">
            <mxPoint x="340" y="585" as="targetPoint" />
          </mxGeometry>
        </mxCell>
        <mxCell id="jnJ0B8wt9rF5tkjCsLNv-10" value=")" style="ellipse;whiteSpace=wrap;html=1;aspect=fixed;" parent="1" vertex="1">
          <mxGeometry x="280" y="625" width="40" height="40" as="geometry" />
        </mxCell>
        <mxCell id="jnJ0B8wt9rF5tkjCsLNv-11" style="edgeStyle=none;orthogonalLoop=1;jettySize=auto;html=1;exitX=0.5;exitY=0;exitDx=0;exitDy=0;entryX=0.5;entryY=1;entryDx=0;entryDy=0;endArrow=none;endFill=0;" parent="1" source="jnJ0B8wt9rF5tkjCsLNv-12" target="jnJ0B8wt9rF5tkjCsLNv-3" edge="1">
          <mxGeometry relative="1" as="geometry" />
        </mxCell>
        <mxCell id="jnJ0B8wt9rF5tkjCsLNv-12" value="{" style="ellipse;whiteSpace=wrap;html=1;aspect=fixed;" parent="1" vertex="1">
          <mxGeometry x="340" y="625" width="40" height="40" as="geometry" />
        </mxCell>
        <mxCell id="jnJ0B8wt9rF5tkjCsLNv-13" style="edgeStyle=none;orthogonalLoop=1;jettySize=auto;html=1;exitX=0.5;exitY=0;exitDx=0;exitDy=0;endArrow=none;endFill=0;entryX=0.5;entryY=1;entryDx=0;entryDy=0;" parent="1" source="jnJ0B8wt9rF5tkjCsLNv-14" target="jnJ0B8wt9rF5tkjCsLNv-3" edge="1">
          <mxGeometry relative="1" as="geometry">
            <mxPoint x="340" y="585" as="targetPoint" />
          </mxGeometry>
        </mxCell>
        <mxCell id="jnJ0B8wt9rF5tkjCsLNv-14" value="N" style="ellipse;whiteSpace=wrap;html=1;aspect=fixed;" parent="1" vertex="1">
          <mxGeometry x="400" y="625" width="40" height="40" as="geometry" />
        </mxCell>
        <mxCell id="jnJ0B8wt9rF5tkjCsLNv-15" style="edgeStyle=none;orthogonalLoop=1;jettySize=auto;html=1;exitX=0.5;exitY=0;exitDx=0;exitDy=0;endArrow=none;endFill=0;entryX=0.5;entryY=1;entryDx=0;entryDy=0;" parent="1" source="jnJ0B8wt9rF5tkjCsLNv-16" target="jnJ0B8wt9rF5tkjCsLNv-3" edge="1">
          <mxGeometry relative="1" as="geometry">
            <mxPoint x="340" y="585" as="targetPoint" />
          </mxGeometry>
        </mxCell>
        <mxCell id="jnJ0B8wt9rF5tkjCsLNv-16" value="}" style="ellipse;whiteSpace=wrap;html=1;aspect=fixed;" parent="1" vertex="1">
          <mxGeometry x="460" y="625" width="40" height="40" as="geometry" />
        </mxCell>
        <mxCell id="jnJ0B8wt9rF5tkjCsLNv-17" style="edgeStyle=none;orthogonalLoop=1;jettySize=auto;html=1;exitX=0.5;exitY=0;exitDx=0;exitDy=0;endArrow=none;endFill=0;entryX=0.5;entryY=1;entryDx=0;entryDy=0;" parent="1" source="jnJ0B8wt9rF5tkjCsLNv-18" target="jnJ0B8wt9rF5tkjCsLNv-3" edge="1">
          <mxGeometry relative="1" as="geometry">
            <mxPoint x="370" y="565" as="targetPoint" />
          </mxGeometry>
        </mxCell>
        <mxCell id="jnJ0B8wt9rF5tkjCsLNv-18" value="e" style="ellipse;whiteSpace=wrap;html=1;aspect=fixed;" parent="1" vertex="1">
          <mxGeometry x="520" y="625" width="40" height="40" as="geometry" />
        </mxCell>
        <mxCell id="jnJ0B8wt9rF5tkjCsLNv-19" style="edgeStyle=none;orthogonalLoop=1;jettySize=auto;html=1;exitX=0.5;exitY=0;exitDx=0;exitDy=0;endArrow=none;endFill=0;entryX=0.5;entryY=1;entryDx=0;entryDy=0;" parent="1" source="jnJ0B8wt9rF5tkjCsLNv-20" target="jnJ0B8wt9rF5tkjCsLNv-3" edge="1">
          <mxGeometry relative="1" as="geometry">
            <mxPoint x="340" y="585" as="targetPoint" />
          </mxGeometry>
        </mxCell>
        <mxCell id="jnJ0B8wt9rF5tkjCsLNv-20" value="{" style="ellipse;whiteSpace=wrap;html=1;aspect=fixed;" parent="1" vertex="1">
          <mxGeometry x="580" y="625" width="40" height="40" as="geometry" />
        </mxCell>
        <mxCell id="jnJ0B8wt9rF5tkjCsLNv-21" style="edgeStyle=none;orthogonalLoop=1;jettySize=auto;html=1;exitX=0.5;exitY=0;exitDx=0;exitDy=0;entryX=0.5;entryY=1;entryDx=0;entryDy=0;endArrow=none;endFill=0;fontFamily=Verdana;" parent="1" source="jnJ0B8wt9rF5tkjCsLNv-22" target="jnJ0B8wt9rF5tkjCsLNv-3" edge="1">
          <mxGeometry relative="1" as="geometry" />
        </mxCell>
        <mxCell id="jnJ0B8wt9rF5tkjCsLNv-22" value="N" style="ellipse;whiteSpace=wrap;html=1;aspect=fixed;" parent="1" vertex="1">
          <mxGeometry x="640" y="625" width="40" height="40" as="geometry" />
        </mxCell>
        <mxCell id="jnJ0B8wt9rF5tkjCsLNv-23" value="b" style="ellipse;whiteSpace=wrap;html=1;aspect=fixed;" parent="1" vertex="1">
          <mxGeometry x="160" y="690" width="40" height="40" as="geometry" />
        </mxCell>
        <mxCell id="jnJ0B8wt9rF5tkjCsLNv-24" value="i" style="ellipse;whiteSpace=wrap;html=1;aspect=fixed;" parent="1" vertex="1">
          <mxGeometry x="100" y="690" width="40" height="40" as="geometry" />
        </mxCell>
        <mxCell id="jnJ0B8wt9rF5tkjCsLNv-25" value="" style="endArrow=none;html=1;rounded=0;entryX=0.5;entryY=1;entryDx=0;entryDy=0;exitX=0.5;exitY=0;exitDx=0;exitDy=0;" parent="1" source="jnJ0B8wt9rF5tkjCsLNv-24" edge="1">
          <mxGeometry width="50" height="50" relative="1" as="geometry">
            <mxPoint x="186" y="685" as="sourcePoint" />
            <mxPoint x="240" y="665" as="targetPoint" />
          </mxGeometry>
        </mxCell>
        <mxCell id="jnJ0B8wt9rF5tkjCsLNv-26" value="" style="endArrow=none;html=1;rounded=0;exitX=0.5;exitY=0;exitDx=0;exitDy=0;" parent="1" source="jnJ0B8wt9rF5tkjCsLNv-23" edge="1">
          <mxGeometry width="50" height="50" relative="1" as="geometry">
            <mxPoint x="190" y="695" as="sourcePoint" />
            <mxPoint x="240" y="665" as="targetPoint" />
          </mxGeometry>
        </mxCell>
        <mxCell id="jnJ0B8wt9rF5tkjCsLNv-33" style="edgeStyle=none;orthogonalLoop=1;jettySize=auto;html=1;exitX=0.5;exitY=0;exitDx=0;exitDy=0;endArrow=none;endFill=0;entryX=0.5;entryY=1;entryDx=0;entryDy=0;" parent="1" source="jnJ0B8wt9rF5tkjCsLNv-42" edge="1">
          <mxGeometry relative="1" as="geometry">
            <mxPoint x="480" y="665" as="targetPoint" />
          </mxGeometry>
        </mxCell>
        <mxCell id="jnJ0B8wt9rF5tkjCsLNv-34" style="edgeStyle=none;orthogonalLoop=1;jettySize=auto;html=1;exitX=0.5;exitY=0;exitDx=0;exitDy=0;endArrow=none;endFill=0;entryX=0.5;entryY=1;entryDx=0;entryDy=0;" parent="1" source="jnJ0B8wt9rF5tkjCsLNv-35" edge="1">
          <mxGeometry relative="1" as="geometry">
            <mxPoint x="480" y="665" as="targetPoint" />
          </mxGeometry>
        </mxCell>
        <mxCell id="jnJ0B8wt9rF5tkjCsLNv-35" value="=" style="ellipse;whiteSpace=wrap;html=1;aspect=fixed;" parent="1" vertex="1">
          <mxGeometry x="340" y="690" width="40" height="40" as="geometry" />
        </mxCell>
        <mxCell id="jnJ0B8wt9rF5tkjCsLNv-36" style="edgeStyle=none;orthogonalLoop=1;jettySize=auto;html=1;exitX=0.5;exitY=0;exitDx=0;exitDy=0;endArrow=none;endFill=0;entryX=0.5;entryY=1;entryDx=0;entryDy=0;" parent="1" source="jnJ0B8wt9rF5tkjCsLNv-37" edge="1">
          <mxGeometry relative="1" as="geometry">
            <mxPoint x="480" y="665" as="targetPoint" />
          </mxGeometry>
        </mxCell>
        <mxCell id="jnJ0B8wt9rF5tkjCsLNv-37" value="E" style="ellipse;whiteSpace=wrap;html=1;aspect=fixed;" parent="1" vertex="1">
          <mxGeometry x="400" y="690" width="40" height="40" as="geometry" />
        </mxCell>
        <mxCell id="jnJ0B8wt9rF5tkjCsLNv-38" style="edgeStyle=none;orthogonalLoop=1;jettySize=auto;html=1;exitX=0.5;exitY=0;exitDx=0;exitDy=0;endArrow=none;endFill=0;entryX=0.5;entryY=1;entryDx=0;entryDy=0;" parent="1" source="jnJ0B8wt9rF5tkjCsLNv-39" edge="1">
          <mxGeometry relative="1" as="geometry">
            <mxPoint x="480" y="665" as="targetPoint" />
          </mxGeometry>
        </mxCell>
        <mxCell id="jnJ0B8wt9rF5tkjCsLNv-39" value=";" style="ellipse;whiteSpace=wrap;html=1;aspect=fixed;" parent="1" vertex="1">
          <mxGeometry x="460" y="690" width="40" height="40" as="geometry" />
        </mxCell>
        <mxCell id="jnJ0B8wt9rF5tkjCsLNv-40" style="edgeStyle=none;orthogonalLoop=1;jettySize=auto;html=1;exitX=0.5;exitY=0;exitDx=0;exitDy=0;entryX=0.5;entryY=1;entryDx=0;entryDy=0;endArrow=none;endFill=0;fontFamily=Verdana;" parent="1" source="jnJ0B8wt9rF5tkjCsLNv-41" edge="1">
          <mxGeometry relative="1" as="geometry">
            <mxPoint x="480" y="665" as="targetPoint" />
          </mxGeometry>
        </mxCell>
        <mxCell id="jnJ0B8wt9rF5tkjCsLNv-41" value="N" style="ellipse;whiteSpace=wrap;html=1;aspect=fixed;" parent="1" vertex="1">
          <mxGeometry x="520" y="690" width="40" height="40" as="geometry" />
        </mxCell>
        <mxCell id="jnJ0B8wt9rF5tkjCsLNv-42" value="i" style="ellipse;whiteSpace=wrap;html=1;aspect=fixed;" parent="1" vertex="1">
          <mxGeometry x="280" y="690" width="40" height="40" as="geometry" />
        </mxCell>
        <mxCell id="jnJ0B8wt9rF5tkjCsLNv-43" value="l" style="ellipse;whiteSpace=wrap;html=1;aspect=fixed;" parent="1" vertex="1">
          <mxGeometry x="340" y="750" width="40" height="40" as="geometry" />
        </mxCell>
        <mxCell id="jnJ0B8wt9rF5tkjCsLNv-44" style="edgeStyle=none;orthogonalLoop=1;jettySize=auto;html=1;exitX=0.5;exitY=0;exitDx=0;exitDy=0;endArrow=none;endFill=0;entryX=0.5;entryY=1;entryDx=0;entryDy=0;" parent="1" source="jnJ0B8wt9rF5tkjCsLNv-43" edge="1" target="jnJ0B8wt9rF5tkjCsLNv-37">
          <mxGeometry relative="1" as="geometry">
            <mxPoint x="360" y="730" as="targetPoint" />
          </mxGeometry>
        </mxCell>
        <mxCell id="jnJ0B8wt9rF5tkjCsLNv-45" value="p" style="ellipse;whiteSpace=wrap;html=1;aspect=fixed;" parent="1" vertex="1">
          <mxGeometry x="400" y="750" width="40" height="40" as="geometry" />
        </mxCell>
        <mxCell id="jnJ0B8wt9rF5tkjCsLNv-46" value="E" style="ellipse;whiteSpace=wrap;html=1;aspect=fixed;" parent="1" vertex="1">
          <mxGeometry x="460" y="750" width="40" height="40" as="geometry" />
        </mxCell>
        <mxCell id="jnJ0B8wt9rF5tkjCsLNv-47" style="edgeStyle=none;orthogonalLoop=1;jettySize=auto;html=1;exitX=0.5;exitY=0;exitDx=0;exitDy=0;endArrow=none;endFill=0;fontFamily=Verdana;" parent="1" source="jnJ0B8wt9rF5tkjCsLNv-46" edge="1">
          <mxGeometry relative="1" as="geometry">
            <mxPoint x="540" y="730" as="targetPoint" />
          </mxGeometry>
        </mxCell>
        <mxCell id="jnJ0B8wt9rF5tkjCsLNv-48" style="edgeStyle=none;orthogonalLoop=1;jettySize=auto;html=1;exitX=0.5;exitY=0;exitDx=0;exitDy=0;endArrow=none;endFill=0;entryX=0.5;entryY=1;entryDx=0;entryDy=0;" parent="1" source="jnJ0B8wt9rF5tkjCsLNv-45" target="jnJ0B8wt9rF5tkjCsLNv-41" edge="1">
          <mxGeometry relative="1" as="geometry">
            <mxPoint x="360" y="730" as="targetPoint" />
          </mxGeometry>
        </mxCell>
        <mxCell id="jnJ0B8wt9rF5tkjCsLNv-49" value=";" style="ellipse;whiteSpace=wrap;html=1;aspect=fixed;" parent="1" vertex="1">
          <mxGeometry x="520" y="750" width="40" height="40" as="geometry" />
        </mxCell>
        <mxCell id="jnJ0B8wt9rF5tkjCsLNv-50" style="edgeStyle=none;orthogonalLoop=1;jettySize=auto;html=1;exitX=0.5;exitY=0;exitDx=0;exitDy=0;endArrow=none;endFill=0;fontFamily=Verdana;entryX=0.5;entryY=1;entryDx=0;entryDy=0;" parent="1" source="jnJ0B8wt9rF5tkjCsLNv-49" target="jnJ0B8wt9rF5tkjCsLNv-41" edge="1">
          <mxGeometry relative="1" as="geometry">
            <mxPoint x="540" y="730" as="targetPoint" />
          </mxGeometry>
        </mxCell>
        <mxCell id="jnJ0B8wt9rF5tkjCsLNv-51" value="(" style="ellipse;whiteSpace=wrap;html=1;aspect=fixed;" parent="1" vertex="1">
          <mxGeometry x="400" y="810" width="40" height="40" as="geometry" />
        </mxCell>
        <mxCell id="jnJ0B8wt9rF5tkjCsLNv-52" value="E" style="ellipse;whiteSpace=wrap;html=1;aspect=fixed;" parent="1" vertex="1">
          <mxGeometry x="460" y="810" width="40" height="40" as="geometry" />
        </mxCell>
        <mxCell id="jnJ0B8wt9rF5tkjCsLNv-53" style="edgeStyle=none;orthogonalLoop=1;jettySize=auto;html=1;exitX=0.5;exitY=0;exitDx=0;exitDy=0;endArrow=none;endFill=0;fontFamily=Verdana;" parent="1" source="jnJ0B8wt9rF5tkjCsLNv-52" edge="1">
          <mxGeometry relative="1" as="geometry">
            <mxPoint x="480" y="790" as="targetPoint" />
          </mxGeometry>
        </mxCell>
        <mxCell id="jnJ0B8wt9rF5tkjCsLNv-54" style="edgeStyle=none;orthogonalLoop=1;jettySize=auto;html=1;exitX=0.5;exitY=0;exitDx=0;exitDy=0;endArrow=none;endFill=0;entryX=0.5;entryY=1;entryDx=0;entryDy=0;" parent="1" source="jnJ0B8wt9rF5tkjCsLNv-51" edge="1">
          <mxGeometry relative="1" as="geometry">
            <mxPoint x="480" y="790" as="targetPoint" />
          </mxGeometry>
        </mxCell>
        <mxCell id="jnJ0B8wt9rF5tkjCsLNv-55" value=")" style="ellipse;whiteSpace=wrap;html=1;aspect=fixed;" parent="1" vertex="1">
          <mxGeometry x="520" y="810" width="40" height="40" as="geometry" />
        </mxCell>
        <mxCell id="jnJ0B8wt9rF5tkjCsLNv-56" style="edgeStyle=none;orthogonalLoop=1;jettySize=auto;html=1;exitX=0.5;exitY=0;exitDx=0;exitDy=0;endArrow=none;endFill=0;fontFamily=Verdana;entryX=0.5;entryY=1;entryDx=0;entryDy=0;" parent="1" source="jnJ0B8wt9rF5tkjCsLNv-55" edge="1">
          <mxGeometry relative="1" as="geometry">
            <mxPoint x="480" y="790" as="targetPoint" />
          </mxGeometry>
        </mxCell>
        <mxCell id="jnJ0B8wt9rF5tkjCsLNv-57" value="i" style="ellipse;whiteSpace=wrap;html=1;aspect=fixed;" parent="1" vertex="1">
          <mxGeometry x="460" y="870" width="40" height="40" as="geometry" />
        </mxCell>
        <mxCell id="jnJ0B8wt9rF5tkjCsLNv-58" style="edgeStyle=none;orthogonalLoop=1;jettySize=auto;html=1;exitX=0.5;exitY=0;exitDx=0;exitDy=0;endArrow=none;endFill=0;fontFamily=Verdana;" parent="1" edge="1">
          <mxGeometry relative="1" as="geometry">
            <mxPoint x="480" y="850" as="targetPoint" />
            <mxPoint x="480" y="870" as="sourcePoint" />
          </mxGeometry>
        </mxCell>
        <mxCell id="jnJ0B8wt9rF5tkjCsLNv-59" value="p" style="ellipse;whiteSpace=wrap;html=1;aspect=fixed;" parent="1" vertex="1">
          <mxGeometry x="580" y="690" width="40" height="40" as="geometry" />
        </mxCell>
        <mxCell id="jnJ0B8wt9rF5tkjCsLNv-60" value="E" style="ellipse;whiteSpace=wrap;html=1;aspect=fixed;" parent="1" vertex="1">
          <mxGeometry x="640" y="690" width="40" height="40" as="geometry" />
        </mxCell>
        <mxCell id="jnJ0B8wt9rF5tkjCsLNv-61" style="edgeStyle=none;orthogonalLoop=1;jettySize=auto;html=1;exitX=0.5;exitY=0;exitDx=0;exitDy=0;endArrow=none;endFill=0;fontFamily=Verdana;entryX=0.5;entryY=1;entryDx=0;entryDy=0;" parent="1" source="jnJ0B8wt9rF5tkjCsLNv-60" target="jnJ0B8wt9rF5tkjCsLNv-22" edge="1">
          <mxGeometry relative="1" as="geometry">
            <mxPoint x="720" y="665" as="targetPoint" />
          </mxGeometry>
        </mxCell>
        <mxCell id="jnJ0B8wt9rF5tkjCsLNv-62" style="edgeStyle=none;orthogonalLoop=1;jettySize=auto;html=1;exitX=0.5;exitY=0;exitDx=0;exitDy=0;endArrow=none;endFill=0;entryX=0.5;entryY=1;entryDx=0;entryDy=0;" parent="1" source="jnJ0B8wt9rF5tkjCsLNv-59" target="jnJ0B8wt9rF5tkjCsLNv-22" edge="1">
          <mxGeometry relative="1" as="geometry">
            <mxPoint x="720" y="665" as="targetPoint" />
          </mxGeometry>
        </mxCell>
        <mxCell id="jnJ0B8wt9rF5tkjCsLNv-63" value=";" style="ellipse;whiteSpace=wrap;html=1;aspect=fixed;" parent="1" vertex="1">
          <mxGeometry x="700" y="690" width="40" height="40" as="geometry" />
        </mxCell>
        <mxCell id="jnJ0B8wt9rF5tkjCsLNv-64" style="edgeStyle=none;orthogonalLoop=1;jettySize=auto;html=1;exitX=0.5;exitY=0;exitDx=0;exitDy=0;endArrow=none;endFill=0;fontFamily=Verdana;entryX=0.5;entryY=1;entryDx=0;entryDy=0;" parent="1" source="jnJ0B8wt9rF5tkjCsLNv-63" target="jnJ0B8wt9rF5tkjCsLNv-22" edge="1">
          <mxGeometry relative="1" as="geometry">
            <mxPoint x="720" y="665" as="targetPoint" />
          </mxGeometry>
        </mxCell>
        <mxCell id="jnJ0B8wt9rF5tkjCsLNv-65" value="(" style="ellipse;whiteSpace=wrap;html=1;aspect=fixed;" parent="1" vertex="1">
          <mxGeometry x="580" y="750" width="40" height="40" as="geometry" />
        </mxCell>
        <mxCell id="jnJ0B8wt9rF5tkjCsLNv-66" value="E" style="ellipse;whiteSpace=wrap;html=1;aspect=fixed;" parent="1" vertex="1">
          <mxGeometry x="640" y="750" width="40" height="40" as="geometry" />
        </mxCell>
        <mxCell id="jnJ0B8wt9rF5tkjCsLNv-67" style="edgeStyle=none;orthogonalLoop=1;jettySize=auto;html=1;exitX=0.5;exitY=0;exitDx=0;exitDy=0;endArrow=none;endFill=0;fontFamily=Verdana;" parent="1" source="jnJ0B8wt9rF5tkjCsLNv-66" edge="1">
          <mxGeometry relative="1" as="geometry">
            <mxPoint x="660" y="730" as="targetPoint" />
          </mxGeometry>
        </mxCell>
        <mxCell id="jnJ0B8wt9rF5tkjCsLNv-68" style="edgeStyle=none;orthogonalLoop=1;jettySize=auto;html=1;exitX=0.5;exitY=0;exitDx=0;exitDy=0;endArrow=none;endFill=0;entryX=0.5;entryY=1;entryDx=0;entryDy=0;" parent="1" source="jnJ0B8wt9rF5tkjCsLNv-65" edge="1">
          <mxGeometry relative="1" as="geometry">
            <mxPoint x="660" y="730" as="targetPoint" />
          </mxGeometry>
        </mxCell>
        <mxCell id="jnJ0B8wt9rF5tkjCsLNv-69" value=")" style="ellipse;whiteSpace=wrap;html=1;aspect=fixed;" parent="1" vertex="1">
          <mxGeometry x="700" y="750" width="40" height="40" as="geometry" />
        </mxCell>
        <mxCell id="jnJ0B8wt9rF5tkjCsLNv-70" style="edgeStyle=none;orthogonalLoop=1;jettySize=auto;html=1;exitX=0.5;exitY=0;exitDx=0;exitDy=0;endArrow=none;endFill=0;fontFamily=Verdana;entryX=0.5;entryY=1;entryDx=0;entryDy=0;" parent="1" source="jnJ0B8wt9rF5tkjCsLNv-69" edge="1">
          <mxGeometry relative="1" as="geometry">
            <mxPoint x="660" y="730" as="targetPoint" />
          </mxGeometry>
        </mxCell>
        <mxCell id="jnJ0B8wt9rF5tkjCsLNv-71" value="i" style="ellipse;whiteSpace=wrap;html=1;aspect=fixed;" parent="1" vertex="1">
          <mxGeometry x="640" y="810" width="40" height="40" as="geometry" />
        </mxCell>
        <mxCell id="jnJ0B8wt9rF5tkjCsLNv-72" style="edgeStyle=none;orthogonalLoop=1;jettySize=auto;html=1;exitX=0.5;exitY=0;exitDx=0;exitDy=0;endArrow=none;endFill=0;fontFamily=Verdana;" parent="1" source="jnJ0B8wt9rF5tkjCsLNv-71" edge="1">
          <mxGeometry relative="1" as="geometry">
            <mxPoint x="660" y="790" as="targetPoint" />
          </mxGeometry>
        </mxCell>
        <mxCell id="hBHkKKe8f3Y7WgupH7qP-2" value="2" style="ellipse;whiteSpace=wrap;html=1;aspect=fixed;" parent="1" vertex="1">
          <mxGeometry x="217" y="10" width="40" height="40" as="geometry" />
        </mxCell>
        <mxCell id="hBHkKKe8f3Y7WgupH7qP-3" style="edgeStyle=none;orthogonalLoop=1;jettySize=auto;html=1;exitX=0.5;exitY=0;exitDx=0;exitDy=0;endArrow=none;endFill=0;fontFamily=GOSTRUS;entryX=0.5;entryY=1;entryDx=0;entryDy=0;" parent="1" source="hBHkKKe8f3Y7WgupH7qP-4" target="xn_glV_x1WAOgZxVCYEA-44" edge="1">
          <mxGeometry relative="1" as="geometry">
            <mxPoint x="427" y="180" as="targetPoint" />
          </mxGeometry>
        </mxCell>
        <mxCell id="hBHkKKe8f3Y7WgupH7qP-4" value="&lt;p&gt;&lt;font&gt;p&lt;/font&gt;&lt;/p&gt;" style="ellipse;whiteSpace=wrap;html=1;aspect=fixed;fontFamily=GOSTRUS;" parent="1" vertex="1">
          <mxGeometry x="400" y="200" width="40" height="40" as="geometry" />
        </mxCell>
        <mxCell id="hBHkKKe8f3Y7WgupH7qP-5" style="edgeStyle=none;orthogonalLoop=1;jettySize=auto;html=1;exitX=0.5;exitY=0;exitDx=0;exitDy=0;endArrow=none;endFill=0;fontFamily=GOSTRUS;entryX=0.5;entryY=1;entryDx=0;entryDy=0;" parent="1" source="hBHkKKe8f3Y7WgupH7qP-6" target="xn_glV_x1WAOgZxVCYEA-44" edge="1">
          <mxGeometry relative="1" as="geometry">
            <mxPoint x="437" y="180" as="targetPoint" />
          </mxGeometry>
        </mxCell>
        <mxCell id="hBHkKKe8f3Y7WgupH7qP-6" value="&lt;p&gt;&lt;font&gt;E&lt;/font&gt;&lt;/p&gt;" style="ellipse;whiteSpace=wrap;html=1;aspect=fixed;fontFamily=GOSTRUS;" parent="1" vertex="1">
          <mxGeometry x="457" y="200" width="40" height="40" as="geometry" />
        </mxCell>
        <mxCell id="hBHkKKe8f3Y7WgupH7qP-7" style="edgeStyle=none;orthogonalLoop=1;jettySize=auto;html=1;exitX=0.5;exitY=0;exitDx=0;exitDy=0;endArrow=none;endFill=0;fontFamily=GOSTRUS;entryX=0.5;entryY=1;entryDx=0;entryDy=0;" parent="1" source="hBHkKKe8f3Y7WgupH7qP-8" target="xn_glV_x1WAOgZxVCYEA-44" edge="1">
          <mxGeometry relative="1" as="geometry">
            <mxPoint x="437" y="180" as="targetPoint" />
          </mxGeometry>
        </mxCell>
        <mxCell id="hBHkKKe8f3Y7WgupH7qP-8" value=";" style="ellipse;whiteSpace=wrap;html=1;aspect=fixed;fontFamily=GOSTRUS;" parent="1" vertex="1">
          <mxGeometry x="517" y="200" width="40" height="40" as="geometry" />
        </mxCell>
        <mxCell id="hBHkKKe8f3Y7WgupH7qP-9" style="rounded=0;orthogonalLoop=1;jettySize=auto;html=1;exitX=0.5;exitY=0;exitDx=0;exitDy=0;endArrow=none;endFill=0;entryX=0.5;entryY=1;entryDx=0;entryDy=0;" parent="1" source="hBHkKKe8f3Y7WgupH7qP-10" target="xn_glV_x1WAOgZxVCYEA-44" edge="1">
          <mxGeometry relative="1" as="geometry">
            <mxPoint x="437" y="170" as="targetPoint" />
          </mxGeometry>
        </mxCell>
        <mxCell id="hBHkKKe8f3Y7WgupH7qP-10" value="N" style="ellipse;whiteSpace=wrap;html=1;aspect=fixed;fontFamily=GOSTRUS;" parent="1" vertex="1">
          <mxGeometry x="577" y="200" width="40" height="40" as="geometry" />
        </mxCell>
        <mxCell id="hBHkKKe8f3Y7WgupH7qP-11" value=")" style="ellipse;whiteSpace=wrap;html=1;aspect=fixed;fontFamily=GOSTRUS;" parent="1" vertex="1">
          <mxGeometry x="517" y="260" width="40" height="40" as="geometry" />
        </mxCell>
        <mxCell id="hBHkKKe8f3Y7WgupH7qP-12" style="rounded=0;orthogonalLoop=1;jettySize=auto;html=1;exitX=0.5;exitY=0;exitDx=0;exitDy=0;entryX=0.5;entryY=1;entryDx=0;entryDy=0;endArrow=none;endFill=0;" parent="1" source="hBHkKKe8f3Y7WgupH7qP-11" edge="1">
          <mxGeometry relative="1" as="geometry">
            <mxPoint x="477" y="240" as="targetPoint" />
          </mxGeometry>
        </mxCell>
        <mxCell id="hBHkKKe8f3Y7WgupH7qP-13" value="E" style="ellipse;whiteSpace=wrap;html=1;aspect=fixed;fontFamily=GOSTRUS;" parent="1" vertex="1">
          <mxGeometry x="457" y="260" width="40" height="40" as="geometry" />
        </mxCell>
        <mxCell id="hBHkKKe8f3Y7WgupH7qP-14" style="edgeStyle=none;orthogonalLoop=1;jettySize=auto;html=1;exitX=0.5;exitY=0;exitDx=0;exitDy=0;endArrow=none;endFill=0;fontFamily=GOSTRUS;entryX=0.5;entryY=1;entryDx=0;entryDy=0;" parent="1" source="hBHkKKe8f3Y7WgupH7qP-13" edge="1">
          <mxGeometry relative="1" as="geometry">
            <mxPoint x="477" y="240" as="targetPoint" />
          </mxGeometry>
        </mxCell>
        <mxCell id="hBHkKKe8f3Y7WgupH7qP-15" style="edgeStyle=none;orthogonalLoop=1;jettySize=auto;html=1;exitX=0.5;exitY=0;exitDx=0;exitDy=0;entryX=0.5;entryY=1;entryDx=0;entryDy=0;endArrow=none;endFill=0;fontFamily=GOSTRUS;" parent="1" source="hBHkKKe8f3Y7WgupH7qP-16" edge="1">
          <mxGeometry relative="1" as="geometry">
            <mxPoint x="477" y="240" as="targetPoint" />
          </mxGeometry>
        </mxCell>
        <mxCell id="hBHkKKe8f3Y7WgupH7qP-16" value="&lt;p&gt;&lt;font&gt;(&lt;/font&gt;&lt;/p&gt;" style="ellipse;whiteSpace=wrap;html=1;aspect=fixed;fontFamily=GOSTRUS;" parent="1" vertex="1">
          <mxGeometry x="397" y="260" width="40" height="40" as="geometry" />
        </mxCell>
        <mxCell id="hBHkKKe8f3Y7WgupH7qP-17" value="i" style="ellipse;whiteSpace=wrap;html=1;aspect=fixed;fontFamily=GOSTRUS;" parent="1" vertex="1">
          <mxGeometry x="457" y="320" width="40" height="40" as="geometry" />
        </mxCell>
        <mxCell id="hBHkKKe8f3Y7WgupH7qP-18" style="edgeStyle=none;orthogonalLoop=1;jettySize=auto;html=1;exitX=0.5;exitY=0;exitDx=0;exitDy=0;endArrow=none;endFill=0;fontFamily=GOSTRUS;entryX=0.5;entryY=1;entryDx=0;entryDy=0;" parent="1" source="hBHkKKe8f3Y7WgupH7qP-17" target="hBHkKKe8f3Y7WgupH7qP-13" edge="1">
          <mxGeometry relative="1" as="geometry">
            <mxPoint x="400" y="380" as="targetPoint" />
          </mxGeometry>
        </mxCell>
        <mxCell id="hBHkKKe8f3Y7WgupH7qP-19" value="N" style="ellipse;whiteSpace=wrap;html=1;aspect=fixed;" parent="1" vertex="1">
          <mxGeometry x="700" y="260" width="40" height="40" as="geometry" />
        </mxCell>
        <mxCell id="hBHkKKe8f3Y7WgupH7qP-20" style="edgeStyle=none;orthogonalLoop=1;jettySize=auto;html=1;exitX=0.5;exitY=0;exitDx=0;exitDy=0;endArrow=none;endFill=0;entryX=0.5;entryY=1;entryDx=0;entryDy=0;" parent="1" source="hBHkKKe8f3Y7WgupH7qP-19" edge="1">
          <mxGeometry relative="1" as="geometry">
            <mxPoint x="594" y="240" as="targetPoint" />
          </mxGeometry>
        </mxCell>
        <mxCell id="hBHkKKe8f3Y7WgupH7qP-21" style="edgeStyle=none;orthogonalLoop=1;jettySize=auto;html=1;exitX=0.5;exitY=0;exitDx=0;exitDy=0;endArrow=none;endFill=0;entryX=0.5;entryY=1;entryDx=0;entryDy=0;" parent="1" source="hBHkKKe8f3Y7WgupH7qP-22" edge="1">
          <mxGeometry relative="1" as="geometry">
            <mxPoint x="594" y="240" as="targetPoint" />
          </mxGeometry>
        </mxCell>
        <mxCell id="hBHkKKe8f3Y7WgupH7qP-22" value="t" style="ellipse;whiteSpace=wrap;html=1;aspect=fixed;" parent="1" vertex="1">
          <mxGeometry x="637" y="260" width="40" height="40" as="geometry" />
        </mxCell>
        <mxCell id="hBHkKKe8f3Y7WgupH7qP-23" style="edgeStyle=none;orthogonalLoop=1;jettySize=auto;html=1;exitX=0.5;exitY=0;exitDx=0;exitDy=0;endArrow=none;endFill=0;entryX=0.5;entryY=1;entryDx=0;entryDy=0;" parent="1" source="hBHkKKe8f3Y7WgupH7qP-24" target="hBHkKKe8f3Y7WgupH7qP-10" edge="1">
          <mxGeometry relative="1" as="geometry">
            <mxPoint x="600" y="240" as="targetPoint" />
          </mxGeometry>
        </mxCell>
        <mxCell id="hBHkKKe8f3Y7WgupH7qP-24" value="d" style="ellipse;whiteSpace=wrap;html=1;aspect=fixed;" parent="1" vertex="1">
          <mxGeometry x="577" y="260" width="40" height="40" as="geometry" />
        </mxCell>
        <mxCell id="hBHkKKe8f3Y7WgupH7qP-25" style="edgeStyle=none;orthogonalLoop=1;jettySize=auto;html=1;exitX=0.5;exitY=0;exitDx=0;exitDy=0;entryX=0.5;entryY=1;entryDx=0;entryDy=0;endArrow=none;endFill=0;fontFamily=GOSTRUS;" parent="1" source="hBHkKKe8f3Y7WgupH7qP-26" edge="1">
          <mxGeometry relative="1" as="geometry">
            <mxPoint x="719.9999999999999" y="300" as="targetPoint" />
          </mxGeometry>
        </mxCell>
        <mxCell id="hBHkKKe8f3Y7WgupH7qP-26" value="&lt;p&gt;&lt;font&gt;i&lt;/font&gt;&lt;/p&gt;" style="ellipse;whiteSpace=wrap;html=1;aspect=fixed;fontFamily=GOSTRUS;" parent="1" vertex="1">
          <mxGeometry x="580" y="320" width="40" height="40" as="geometry" />
        </mxCell>
        <mxCell id="hBHkKKe8f3Y7WgupH7qP-27" style="edgeStyle=none;orthogonalLoop=1;jettySize=auto;html=1;exitX=0.5;exitY=0;exitDx=0;exitDy=0;entryX=0.5;entryY=1;entryDx=0;entryDy=0;endArrow=none;endFill=0;fontFamily=GOSTRUS;" parent="1" source="hBHkKKe8f3Y7WgupH7qP-28" edge="1">
          <mxGeometry relative="1" as="geometry">
            <mxPoint x="719.9999999999999" y="300" as="targetPoint" />
          </mxGeometry>
        </mxCell>
        <mxCell id="hBHkKKe8f3Y7WgupH7qP-28" value="&lt;p&gt;&lt;font&gt;=&lt;/font&gt;&lt;/p&gt;" style="ellipse;whiteSpace=wrap;html=1;aspect=fixed;fontFamily=GOSTRUS;" parent="1" vertex="1">
          <mxGeometry x="637" y="320" width="40" height="40" as="geometry" />
        </mxCell>
        <mxCell id="hBHkKKe8f3Y7WgupH7qP-29" style="edgeStyle=none;orthogonalLoop=1;jettySize=auto;html=1;exitX=0.5;exitY=0;exitDx=0;exitDy=0;entryX=0.5;entryY=1;entryDx=0;entryDy=0;endArrow=none;endFill=0;fontFamily=GOSTRUS;" parent="1" source="hBHkKKe8f3Y7WgupH7qP-30" edge="1">
          <mxGeometry relative="1" as="geometry">
            <mxPoint x="719.9999999999999" y="300" as="targetPoint" />
          </mxGeometry>
        </mxCell>
        <mxCell id="hBHkKKe8f3Y7WgupH7qP-30" value="E" style="ellipse;whiteSpace=wrap;html=1;aspect=fixed;fontFamily=GOSTRUS;" parent="1" vertex="1">
          <mxGeometry x="700" y="320" width="40" height="40" as="geometry" />
        </mxCell>
        <mxCell id="hBHkKKe8f3Y7WgupH7qP-31" style="rounded=0;orthogonalLoop=1;jettySize=auto;html=1;exitX=0.5;exitY=0;exitDx=0;exitDy=0;entryX=0.5;entryY=1;entryDx=0;entryDy=0;endArrow=none;endFill=0;" parent="1" source="hBHkKKe8f3Y7WgupH7qP-32" edge="1">
          <mxGeometry relative="1" as="geometry">
            <mxPoint x="719.9999999999999" y="300" as="targetPoint" />
          </mxGeometry>
        </mxCell>
        <mxCell id="hBHkKKe8f3Y7WgupH7qP-32" value=";" style="ellipse;whiteSpace=wrap;html=1;aspect=fixed;fontFamily=GOSTRUS;" parent="1" vertex="1">
          <mxGeometry x="757" y="320" width="40" height="40" as="geometry" />
        </mxCell>
        <mxCell id="hBHkKKe8f3Y7WgupH7qP-33" value="" style="endArrow=none;html=1;rounded=0;exitX=0.5;exitY=1;exitDx=0;exitDy=0;entryX=0.5;entryY=0;entryDx=0;entryDy=0;" parent="1" target="hBHkKKe8f3Y7WgupH7qP-34" edge="1">
          <mxGeometry width="50" height="50" relative="1" as="geometry">
            <mxPoint x="719.9999999999999" y="300" as="sourcePoint" />
            <mxPoint x="817" y="320" as="targetPoint" />
          </mxGeometry>
        </mxCell>
        <mxCell id="hBHkKKe8f3Y7WgupH7qP-34" value="N" style="ellipse;whiteSpace=wrap;html=1;aspect=fixed;" parent="1" vertex="1">
          <mxGeometry x="817" y="320" width="40" height="40" as="geometry" />
        </mxCell>
        <mxCell id="hBHkKKe8f3Y7WgupH7qP-35" value="l" style="ellipse;whiteSpace=wrap;html=1;aspect=fixed;" parent="1" vertex="1">
          <mxGeometry x="637" y="380" width="40" height="40" as="geometry" />
        </mxCell>
        <mxCell id="hBHkKKe8f3Y7WgupH7qP-36" value="" style="endArrow=none;html=1;rounded=0;exitX=0.5;exitY=0;exitDx=0;exitDy=0;entryX=0.5;entryY=1;entryDx=0;entryDy=0;" parent="1" source="hBHkKKe8f3Y7WgupH7qP-35" edge="1">
          <mxGeometry width="50" height="50" relative="1" as="geometry">
            <mxPoint x="690" y="470" as="sourcePoint" />
            <mxPoint x="720" y="360" as="targetPoint" />
          </mxGeometry>
        </mxCell>
        <mxCell id="hBHkKKe8f3Y7WgupH7qP-37" value="&lt;p&gt;&lt;font&gt;d&lt;/font&gt;&lt;/p&gt;" style="ellipse;whiteSpace=wrap;html=1;aspect=fixed;fontFamily=GOSTRUS;" parent="1" vertex="1">
          <mxGeometry x="700" y="420" width="40" height="40" as="geometry" />
        </mxCell>
        <mxCell id="hBHkKKe8f3Y7WgupH7qP-38" value="&lt;p&gt;&lt;font&gt;t&lt;/font&gt;&lt;/p&gt;" style="ellipse;whiteSpace=wrap;html=1;aspect=fixed;fontFamily=GOSTRUS;" parent="1" vertex="1">
          <mxGeometry x="760" y="420" width="40" height="40" as="geometry" />
        </mxCell>
        <mxCell id="hBHkKKe8f3Y7WgupH7qP-39" value="N" style="ellipse;whiteSpace=wrap;html=1;aspect=fixed;fontFamily=GOSTRUS;" parent="1" vertex="1">
          <mxGeometry x="817" y="420" width="40" height="40" as="geometry" />
        </mxCell>
        <mxCell id="hBHkKKe8f3Y7WgupH7qP-40" value="" style="endArrow=none;html=1;rounded=0;entryX=0.5;entryY=1;entryDx=0;entryDy=0;exitX=0.5;exitY=0;exitDx=0;exitDy=0;" parent="1" source="hBHkKKe8f3Y7WgupH7qP-37" target="hBHkKKe8f3Y7WgupH7qP-34" edge="1">
          <mxGeometry width="50" height="50" relative="1" as="geometry">
            <mxPoint x="834" y="420" as="sourcePoint" />
            <mxPoint x="884" y="370" as="targetPoint" />
          </mxGeometry>
        </mxCell>
        <mxCell id="hBHkKKe8f3Y7WgupH7qP-41" value="" style="endArrow=none;html=1;rounded=0;exitX=0.5;exitY=0;exitDx=0;exitDy=0;entryX=0.5;entryY=1;entryDx=0;entryDy=0;" parent="1" source="hBHkKKe8f3Y7WgupH7qP-38" target="hBHkKKe8f3Y7WgupH7qP-34" edge="1">
          <mxGeometry width="50" height="50" relative="1" as="geometry">
            <mxPoint x="814" y="310" as="sourcePoint" />
            <mxPoint x="914" y="280" as="targetPoint" />
          </mxGeometry>
        </mxCell>
        <mxCell id="hBHkKKe8f3Y7WgupH7qP-42" value="" style="endArrow=none;html=1;rounded=0;exitX=0.5;exitY=0;exitDx=0;exitDy=0;entryX=0.5;entryY=1;entryDx=0;entryDy=0;" parent="1" source="hBHkKKe8f3Y7WgupH7qP-39" target="hBHkKKe8f3Y7WgupH7qP-34" edge="1">
          <mxGeometry width="50" height="50" relative="1" as="geometry">
            <mxPoint x="807" y="310" as="sourcePoint" />
            <mxPoint x="914" y="280" as="targetPoint" />
          </mxGeometry>
        </mxCell>
        <mxCell id="hBHkKKe8f3Y7WgupH7qP-43" style="edgeStyle=none;orthogonalLoop=1;jettySize=auto;html=1;exitX=0.5;exitY=0;exitDx=0;exitDy=0;endArrow=none;endFill=0;fontFamily=GOSTRUS;" parent="1" source="hBHkKKe8f3Y7WgupH7qP-44" edge="1">
          <mxGeometry relative="1" as="geometry">
            <mxPoint x="837" y="460" as="targetPoint" />
          </mxGeometry>
        </mxCell>
        <mxCell id="hBHkKKe8f3Y7WgupH7qP-44" value="&lt;p&gt;&lt;font&gt;i&lt;/font&gt;&lt;/p&gt;" style="ellipse;whiteSpace=wrap;html=1;aspect=fixed;fontFamily=GOSTRUS;" parent="1" vertex="1">
          <mxGeometry x="697" y="490" width="40" height="40" as="geometry" />
        </mxCell>
        <mxCell id="hBHkKKe8f3Y7WgupH7qP-45" style="edgeStyle=none;orthogonalLoop=1;jettySize=auto;html=1;exitX=0.5;exitY=0;exitDx=0;exitDy=0;endArrow=none;endFill=0;fontFamily=GOSTRUS;" parent="1" source="hBHkKKe8f3Y7WgupH7qP-46" edge="1">
          <mxGeometry relative="1" as="geometry">
            <mxPoint x="837" y="460" as="targetPoint" />
          </mxGeometry>
        </mxCell>
        <mxCell id="hBHkKKe8f3Y7WgupH7qP-46" value="&lt;p&gt;&lt;font&gt;=&lt;/font&gt;&lt;/p&gt;" style="ellipse;whiteSpace=wrap;html=1;aspect=fixed;fontFamily=GOSTRUS;" parent="1" vertex="1">
          <mxGeometry x="757" y="490" width="40" height="40" as="geometry" />
        </mxCell>
        <mxCell id="hBHkKKe8f3Y7WgupH7qP-47" style="edgeStyle=none;orthogonalLoop=1;jettySize=auto;html=1;exitX=0.5;exitY=0;exitDx=0;exitDy=0;endArrow=none;endFill=0;fontFamily=GOSTRUS;" parent="1" source="hBHkKKe8f3Y7WgupH7qP-48" edge="1">
          <mxGeometry relative="1" as="geometry">
            <mxPoint x="837" y="460" as="targetPoint" />
          </mxGeometry>
        </mxCell>
        <mxCell id="hBHkKKe8f3Y7WgupH7qP-48" value="E" style="ellipse;whiteSpace=wrap;html=1;aspect=fixed;fontFamily=GOSTRUS;" parent="1" vertex="1">
          <mxGeometry x="817" y="490" width="40" height="40" as="geometry" />
        </mxCell>
        <mxCell id="hBHkKKe8f3Y7WgupH7qP-49" style="rounded=0;orthogonalLoop=1;jettySize=auto;html=1;exitX=0.5;exitY=0;exitDx=0;exitDy=0;endArrow=none;endFill=0;" parent="1" source="hBHkKKe8f3Y7WgupH7qP-50" edge="1">
          <mxGeometry relative="1" as="geometry">
            <mxPoint x="837" y="460" as="targetPoint" />
          </mxGeometry>
        </mxCell>
        <mxCell id="hBHkKKe8f3Y7WgupH7qP-50" value=";" style="ellipse;whiteSpace=wrap;html=1;aspect=fixed;fontFamily=GOSTRUS;" parent="1" vertex="1">
          <mxGeometry x="877" y="490" width="40" height="40" as="geometry" />
        </mxCell>
        <mxCell id="hBHkKKe8f3Y7WgupH7qP-51" value="" style="endArrow=none;html=1;rounded=0;exitX=0.5;exitY=1;exitDx=0;exitDy=0;entryX=0.5;entryY=0;entryDx=0;entryDy=0;" parent="1" target="hBHkKKe8f3Y7WgupH7qP-52" edge="1">
          <mxGeometry width="50" height="50" relative="1" as="geometry">
            <mxPoint x="837" y="460" as="sourcePoint" />
            <mxPoint x="937" y="490" as="targetPoint" />
          </mxGeometry>
        </mxCell>
        <mxCell id="hBHkKKe8f3Y7WgupH7qP-52" value="N" style="ellipse;whiteSpace=wrap;html=1;aspect=fixed;" parent="1" vertex="1">
          <mxGeometry x="937" y="490" width="40" height="40" as="geometry" />
        </mxCell>
        <mxCell id="hBHkKKe8f3Y7WgupH7qP-53" value="l" style="ellipse;whiteSpace=wrap;html=1;aspect=fixed;" parent="1" vertex="1">
          <mxGeometry x="817" y="550" width="40" height="40" as="geometry" />
        </mxCell>
        <mxCell id="hBHkKKe8f3Y7WgupH7qP-54" value="" style="endArrow=none;html=1;rounded=0;exitX=0.5;exitY=0;exitDx=0;exitDy=0;entryX=0.5;entryY=1;entryDx=0;entryDy=0;" parent="1" source="hBHkKKe8f3Y7WgupH7qP-53" edge="1">
          <mxGeometry width="50" height="50" relative="1" as="geometry">
            <mxPoint x="807" y="640" as="sourcePoint" />
            <mxPoint x="837" y="530" as="targetPoint" />
          </mxGeometry>
        </mxCell>
        <mxCell id="hBHkKKe8f3Y7WgupH7qP-55" value=";" style="ellipse;whiteSpace=wrap;html=1;aspect=fixed;" parent="1" vertex="1">
          <mxGeometry x="997" y="550" width="40" height="40" as="geometry" />
        </mxCell>
        <mxCell id="hBHkKKe8f3Y7WgupH7qP-56" value="E" style="ellipse;whiteSpace=wrap;html=1;aspect=fixed;" parent="1" vertex="1">
          <mxGeometry x="937" y="550" width="40" height="40" as="geometry" />
        </mxCell>
        <mxCell id="hBHkKKe8f3Y7WgupH7qP-57" value="" style="endArrow=none;html=1;rounded=0;entryX=0.5;entryY=1;entryDx=0;entryDy=0;" parent="1" target="hBHkKKe8f3Y7WgupH7qP-58" edge="1">
          <mxGeometry width="50" height="50" relative="1" as="geometry">
            <mxPoint x="897" y="570" as="sourcePoint" />
            <mxPoint x="897" y="530" as="targetPoint" />
          </mxGeometry>
        </mxCell>
        <mxCell id="hBHkKKe8f3Y7WgupH7qP-58" value="p" style="ellipse;whiteSpace=wrap;html=1;aspect=fixed;" parent="1" vertex="1">
          <mxGeometry x="877" y="550" width="40" height="40" as="geometry" />
        </mxCell>
        <mxCell id="hBHkKKe8f3Y7WgupH7qP-59" value="N" style="ellipse;whiteSpace=wrap;html=1;aspect=fixed;" parent="1" vertex="1">
          <mxGeometry x="1057" y="550" width="40" height="40" as="geometry" />
        </mxCell>
        <mxCell id="hBHkKKe8f3Y7WgupH7qP-60" value=")" style="ellipse;whiteSpace=wrap;html=1;aspect=fixed;fontFamily=GOSTRUS;" parent="1" vertex="1">
          <mxGeometry x="994" y="610" width="40" height="40" as="geometry" />
        </mxCell>
        <mxCell id="hBHkKKe8f3Y7WgupH7qP-61" style="rounded=0;orthogonalLoop=1;jettySize=auto;html=1;exitX=0.5;exitY=0;exitDx=0;exitDy=0;entryX=0.5;entryY=1;entryDx=0;entryDy=0;endArrow=none;endFill=0;" parent="1" source="hBHkKKe8f3Y7WgupH7qP-60" edge="1">
          <mxGeometry relative="1" as="geometry">
            <mxPoint x="954" y="590" as="targetPoint" />
          </mxGeometry>
        </mxCell>
        <mxCell id="hBHkKKe8f3Y7WgupH7qP-62" value="E" style="ellipse;whiteSpace=wrap;html=1;aspect=fixed;fontFamily=GOSTRUS;" parent="1" vertex="1">
          <mxGeometry x="934" y="610" width="40" height="40" as="geometry" />
        </mxCell>
        <mxCell id="hBHkKKe8f3Y7WgupH7qP-63" style="edgeStyle=none;orthogonalLoop=1;jettySize=auto;html=1;exitX=0.5;exitY=0;exitDx=0;exitDy=0;endArrow=none;endFill=0;fontFamily=GOSTRUS;entryX=0.5;entryY=1;entryDx=0;entryDy=0;" parent="1" source="hBHkKKe8f3Y7WgupH7qP-62" edge="1">
          <mxGeometry relative="1" as="geometry">
            <mxPoint x="954" y="590" as="targetPoint" />
          </mxGeometry>
        </mxCell>
        <mxCell id="hBHkKKe8f3Y7WgupH7qP-64" style="edgeStyle=none;orthogonalLoop=1;jettySize=auto;html=1;exitX=0.5;exitY=0;exitDx=0;exitDy=0;entryX=0.5;entryY=1;entryDx=0;entryDy=0;endArrow=none;endFill=0;fontFamily=GOSTRUS;" parent="1" source="hBHkKKe8f3Y7WgupH7qP-65" edge="1">
          <mxGeometry relative="1" as="geometry">
            <mxPoint x="954" y="590" as="targetPoint" />
          </mxGeometry>
        </mxCell>
        <mxCell id="hBHkKKe8f3Y7WgupH7qP-65" value="&lt;p&gt;&lt;font&gt;(&lt;/font&gt;&lt;/p&gt;" style="ellipse;whiteSpace=wrap;html=1;aspect=fixed;fontFamily=GOSTRUS;" parent="1" vertex="1">
          <mxGeometry x="874" y="610" width="40" height="40" as="geometry" />
        </mxCell>
        <mxCell id="hBHkKKe8f3Y7WgupH7qP-66" value="i" style="ellipse;whiteSpace=wrap;html=1;aspect=fixed;fontFamily=GOSTRUS;" parent="1" vertex="1">
          <mxGeometry x="934" y="670" width="40" height="40" as="geometry" />
        </mxCell>
        <mxCell id="hBHkKKe8f3Y7WgupH7qP-67" style="edgeStyle=none;orthogonalLoop=1;jettySize=auto;html=1;exitX=0.5;exitY=0;exitDx=0;exitDy=0;endArrow=none;endFill=0;fontFamily=GOSTRUS;entryX=0.5;entryY=1;entryDx=0;entryDy=0;" parent="1" source="hBHkKKe8f3Y7WgupH7qP-66" edge="1">
          <mxGeometry relative="1" as="geometry">
            <mxPoint x="953.76" y="650" as="targetPoint" />
            <mxPoint x="953.76" y="670" as="sourcePoint" />
          </mxGeometry>
        </mxCell>
        <mxCell id="hBHkKKe8f3Y7WgupH7qP-68" value="" style="endArrow=none;html=1;rounded=0;entryX=0.5;entryY=1;entryDx=0;entryDy=0;exitX=0.5;exitY=0;exitDx=0;exitDy=0;" parent="1" source="hBHkKKe8f3Y7WgupH7qP-56" target="hBHkKKe8f3Y7WgupH7qP-52" edge="1">
          <mxGeometry width="50" height="50" relative="1" as="geometry">
            <mxPoint x="967" y="550" as="sourcePoint" />
            <mxPoint x="897" y="520" as="targetPoint" />
          </mxGeometry>
        </mxCell>
        <mxCell id="hBHkKKe8f3Y7WgupH7qP-69" value="" style="endArrow=none;html=1;rounded=0;exitX=0.5;exitY=0;exitDx=0;exitDy=0;" parent="1" source="hBHkKKe8f3Y7WgupH7qP-58" edge="1">
          <mxGeometry width="50" height="50" relative="1" as="geometry">
            <mxPoint x="977" y="560" as="sourcePoint" />
            <mxPoint x="957" y="530" as="targetPoint" />
          </mxGeometry>
        </mxCell>
        <mxCell id="hBHkKKe8f3Y7WgupH7qP-70" value="" style="endArrow=none;html=1;rounded=0;exitX=0.5;exitY=0;exitDx=0;exitDy=0;" parent="1" source="hBHkKKe8f3Y7WgupH7qP-55" edge="1">
          <mxGeometry width="50" height="50" relative="1" as="geometry">
            <mxPoint x="916" y="560" as="sourcePoint" />
            <mxPoint x="957" y="530" as="targetPoint" />
          </mxGeometry>
        </mxCell>
        <mxCell id="hBHkKKe8f3Y7WgupH7qP-71" value="" style="endArrow=none;html=1;rounded=0;exitX=0.5;exitY=0;exitDx=0;exitDy=0;entryX=0.5;entryY=1;entryDx=0;entryDy=0;" parent="1" source="hBHkKKe8f3Y7WgupH7qP-59" target="hBHkKKe8f3Y7WgupH7qP-52" edge="1">
          <mxGeometry width="50" height="50" relative="1" as="geometry">
            <mxPoint x="1036" y="560" as="sourcePoint" />
            <mxPoint x="897" y="520" as="targetPoint" />
          </mxGeometry>
        </mxCell>
        <mxCell id="hBHkKKe8f3Y7WgupH7qP-72" value=";" style="ellipse;whiteSpace=wrap;html=1;aspect=fixed;" parent="1" vertex="1">
          <mxGeometry x="1174" y="610" width="40" height="40" as="geometry" />
        </mxCell>
        <mxCell id="hBHkKKe8f3Y7WgupH7qP-73" value="E" style="ellipse;whiteSpace=wrap;html=1;aspect=fixed;" parent="1" vertex="1">
          <mxGeometry x="1114" y="610" width="40" height="40" as="geometry" />
        </mxCell>
        <mxCell id="hBHkKKe8f3Y7WgupH7qP-74" value="" style="endArrow=none;html=1;rounded=0;entryX=0.5;entryY=1;entryDx=0;entryDy=0;" parent="1" target="hBHkKKe8f3Y7WgupH7qP-75" edge="1">
          <mxGeometry width="50" height="50" relative="1" as="geometry">
            <mxPoint x="1074" y="630" as="sourcePoint" />
            <mxPoint x="1074" y="590" as="targetPoint" />
          </mxGeometry>
        </mxCell>
        <mxCell id="hBHkKKe8f3Y7WgupH7qP-75" value="p" style="ellipse;whiteSpace=wrap;html=1;aspect=fixed;" parent="1" vertex="1">
          <mxGeometry x="1054" y="610" width="40" height="40" as="geometry" />
        </mxCell>
        <mxCell id="hBHkKKe8f3Y7WgupH7qP-76" value="N" style="ellipse;whiteSpace=wrap;html=1;aspect=fixed;" parent="1" vertex="1">
          <mxGeometry x="1234" y="610" width="40" height="40" as="geometry" />
        </mxCell>
        <mxCell id="hBHkKKe8f3Y7WgupH7qP-77" value=")" style="ellipse;whiteSpace=wrap;html=1;aspect=fixed;fontFamily=GOSTRUS;" parent="1" vertex="1">
          <mxGeometry x="1174" y="670" width="40" height="40" as="geometry" />
        </mxCell>
        <mxCell id="hBHkKKe8f3Y7WgupH7qP-78" style="rounded=0;orthogonalLoop=1;jettySize=auto;html=1;exitX=0.5;exitY=0;exitDx=0;exitDy=0;entryX=0.5;entryY=1;entryDx=0;entryDy=0;endArrow=none;endFill=0;" parent="1" source="hBHkKKe8f3Y7WgupH7qP-77" edge="1">
          <mxGeometry relative="1" as="geometry">
            <mxPoint x="1134" y="650" as="targetPoint" />
          </mxGeometry>
        </mxCell>
        <mxCell id="hBHkKKe8f3Y7WgupH7qP-79" value="E" style="ellipse;whiteSpace=wrap;html=1;aspect=fixed;fontFamily=GOSTRUS;" parent="1" vertex="1">
          <mxGeometry x="1114" y="670" width="40" height="40" as="geometry" />
        </mxCell>
        <mxCell id="hBHkKKe8f3Y7WgupH7qP-80" style="edgeStyle=none;orthogonalLoop=1;jettySize=auto;html=1;exitX=0.5;exitY=0;exitDx=0;exitDy=0;endArrow=none;endFill=0;fontFamily=GOSTRUS;entryX=0.5;entryY=1;entryDx=0;entryDy=0;" parent="1" source="hBHkKKe8f3Y7WgupH7qP-79" edge="1">
          <mxGeometry relative="1" as="geometry">
            <mxPoint x="1134" y="650" as="targetPoint" />
          </mxGeometry>
        </mxCell>
        <mxCell id="hBHkKKe8f3Y7WgupH7qP-81" style="edgeStyle=none;orthogonalLoop=1;jettySize=auto;html=1;exitX=0.5;exitY=0;exitDx=0;exitDy=0;entryX=0.5;entryY=1;entryDx=0;entryDy=0;endArrow=none;endFill=0;fontFamily=GOSTRUS;" parent="1" source="hBHkKKe8f3Y7WgupH7qP-82" edge="1">
          <mxGeometry relative="1" as="geometry">
            <mxPoint x="1134" y="650" as="targetPoint" />
          </mxGeometry>
        </mxCell>
        <mxCell id="hBHkKKe8f3Y7WgupH7qP-82" value="&lt;p&gt;&lt;font&gt;(&lt;/font&gt;&lt;/p&gt;" style="ellipse;whiteSpace=wrap;html=1;aspect=fixed;fontFamily=GOSTRUS;" parent="1" vertex="1">
          <mxGeometry x="1054" y="670" width="40" height="40" as="geometry" />
        </mxCell>
        <mxCell id="hBHkKKe8f3Y7WgupH7qP-83" value="l" style="ellipse;whiteSpace=wrap;html=1;aspect=fixed;fontFamily=GOSTRUS;" parent="1" vertex="1">
          <mxGeometry x="1114" y="730" width="40" height="40" as="geometry" />
        </mxCell>
        <mxCell id="hBHkKKe8f3Y7WgupH7qP-84" style="edgeStyle=none;orthogonalLoop=1;jettySize=auto;html=1;exitX=0.5;exitY=0;exitDx=0;exitDy=0;endArrow=none;endFill=0;fontFamily=GOSTRUS;entryX=0.5;entryY=1;entryDx=0;entryDy=0;" parent="1" source="hBHkKKe8f3Y7WgupH7qP-83" edge="1">
          <mxGeometry relative="1" as="geometry">
            <mxPoint x="1134" y="710" as="targetPoint" />
          </mxGeometry>
        </mxCell>
        <mxCell id="hBHkKKe8f3Y7WgupH7qP-85" value="" style="endArrow=none;html=1;rounded=0;entryX=0.5;entryY=1;entryDx=0;entryDy=0;exitX=0.5;exitY=0;exitDx=0;exitDy=0;" parent="1" source="hBHkKKe8f3Y7WgupH7qP-73" edge="1">
          <mxGeometry width="50" height="50" relative="1" as="geometry">
            <mxPoint x="1144" y="610" as="sourcePoint" />
            <mxPoint x="1074" y="590" as="targetPoint" />
          </mxGeometry>
        </mxCell>
        <mxCell id="hBHkKKe8f3Y7WgupH7qP-86" value="" style="endArrow=none;html=1;rounded=0;exitX=0.5;exitY=0;exitDx=0;exitDy=0;entryX=0.5;entryY=1;entryDx=0;entryDy=0;" parent="1" source="hBHkKKe8f3Y7WgupH7qP-75" edge="1">
          <mxGeometry width="50" height="50" relative="1" as="geometry">
            <mxPoint x="1154" y="620" as="sourcePoint" />
            <mxPoint x="1074" y="590" as="targetPoint" />
          </mxGeometry>
        </mxCell>
        <mxCell id="hBHkKKe8f3Y7WgupH7qP-87" value="" style="endArrow=none;html=1;rounded=0;exitX=0.5;exitY=0;exitDx=0;exitDy=0;" parent="1" source="hBHkKKe8f3Y7WgupH7qP-72" edge="1">
          <mxGeometry width="50" height="50" relative="1" as="geometry">
            <mxPoint x="1093" y="620" as="sourcePoint" />
            <mxPoint x="1074" y="590" as="targetPoint" />
          </mxGeometry>
        </mxCell>
        <mxCell id="hBHkKKe8f3Y7WgupH7qP-88" value="" style="endArrow=none;html=1;rounded=0;exitX=0.5;exitY=0;exitDx=0;exitDy=0;" parent="1" source="hBHkKKe8f3Y7WgupH7qP-76" edge="1">
          <mxGeometry width="50" height="50" relative="1" as="geometry">
            <mxPoint x="1213" y="620" as="sourcePoint" />
            <mxPoint x="1074" y="590" as="targetPoint" />
          </mxGeometry>
        </mxCell>
        <mxCell id="hBHkKKe8f3Y7WgupH7qP-89" value="3" style="ellipse;whiteSpace=wrap;html=1;aspect=fixed;fontFamily=GOSTRUS;" parent="1" vertex="1">
          <mxGeometry x="1234" y="670" width="40" height="40" as="geometry" />
        </mxCell>
        <mxCell id="hBHkKKe8f3Y7WgupH7qP-90" style="edgeStyle=none;orthogonalLoop=1;jettySize=auto;html=1;exitX=0.5;exitY=0;exitDx=0;exitDy=0;endArrow=none;endFill=0;fontFamily=GOSTRUS;entryX=0.5;entryY=1;entryDx=0;entryDy=0;" parent="1" source="hBHkKKe8f3Y7WgupH7qP-89" edge="1">
          <mxGeometry relative="1" as="geometry">
            <mxPoint x="1254" y="650" as="targetPoint" />
          </mxGeometry>
        </mxCell>
        <mxCell id="xn_glV_x1WAOgZxVCYEA-32" value="N" style="ellipse;whiteSpace=wrap;html=1;aspect=fixed;" parent="1" vertex="1">
          <mxGeometry x="277" y="70" width="40" height="40" as="geometry" />
        </mxCell>
        <mxCell id="xn_glV_x1WAOgZxVCYEA-33" value="t" style="ellipse;whiteSpace=wrap;html=1;aspect=fixed;" parent="1" vertex="1">
          <mxGeometry x="217" y="70" width="40" height="40" as="geometry" />
        </mxCell>
        <mxCell id="xn_glV_x1WAOgZxVCYEA-34" value="d" style="ellipse;whiteSpace=wrap;html=1;aspect=fixed;" parent="1" vertex="1">
          <mxGeometry x="160" y="70" width="40" height="40" as="geometry" />
        </mxCell>
        <mxCell id="xn_glV_x1WAOgZxVCYEA-35" style="edgeStyle=none;orthogonalLoop=1;jettySize=auto;html=1;exitX=0.5;exitY=0;exitDx=0;exitDy=0;entryX=0.5;entryY=1;entryDx=0;entryDy=0;endArrow=none;endFill=0;fontFamily=GOSTRUS;" parent="1" source="xn_glV_x1WAOgZxVCYEA-36" edge="1">
          <mxGeometry relative="1" as="geometry">
            <mxPoint x="300" y="110" as="targetPoint" />
          </mxGeometry>
        </mxCell>
        <mxCell id="xn_glV_x1WAOgZxVCYEA-36" value="&lt;p&gt;&lt;font&gt;i&lt;/font&gt;&lt;/p&gt;" style="ellipse;whiteSpace=wrap;html=1;aspect=fixed;fontFamily=GOSTRUS;" parent="1" vertex="1">
          <mxGeometry x="160" y="130" width="40" height="40" as="geometry" />
        </mxCell>
        <mxCell id="xn_glV_x1WAOgZxVCYEA-37" style="edgeStyle=none;orthogonalLoop=1;jettySize=auto;html=1;exitX=0.5;exitY=0;exitDx=0;exitDy=0;entryX=0.5;entryY=1;entryDx=0;entryDy=0;endArrow=none;endFill=0;fontFamily=GOSTRUS;" parent="1" source="xn_glV_x1WAOgZxVCYEA-38" edge="1">
          <mxGeometry relative="1" as="geometry">
            <mxPoint x="300" y="110" as="targetPoint" />
          </mxGeometry>
        </mxCell>
        <mxCell id="xn_glV_x1WAOgZxVCYEA-38" value="&lt;p&gt;&lt;font&gt;=&lt;/font&gt;&lt;/p&gt;" style="ellipse;whiteSpace=wrap;html=1;aspect=fixed;fontFamily=GOSTRUS;" parent="1" vertex="1">
          <mxGeometry x="220" y="130" width="40" height="40" as="geometry" />
        </mxCell>
        <mxCell id="xn_glV_x1WAOgZxVCYEA-39" style="edgeStyle=none;orthogonalLoop=1;jettySize=auto;html=1;exitX=0.5;exitY=0;exitDx=0;exitDy=0;entryX=0.5;entryY=1;entryDx=0;entryDy=0;endArrow=none;endFill=0;fontFamily=GOSTRUS;" parent="1" source="xn_glV_x1WAOgZxVCYEA-40" edge="1">
          <mxGeometry relative="1" as="geometry">
            <mxPoint x="300" y="110" as="targetPoint" />
          </mxGeometry>
        </mxCell>
        <mxCell id="xn_glV_x1WAOgZxVCYEA-40" value="E" style="ellipse;whiteSpace=wrap;html=1;aspect=fixed;fontFamily=GOSTRUS;" parent="1" vertex="1">
          <mxGeometry x="280" y="130" width="40" height="40" as="geometry" />
        </mxCell>
        <mxCell id="xn_glV_x1WAOgZxVCYEA-41" style="rounded=0;orthogonalLoop=1;jettySize=auto;html=1;exitX=0.5;exitY=0;exitDx=0;exitDy=0;entryX=0.5;entryY=1;entryDx=0;entryDy=0;endArrow=none;endFill=0;" parent="1" source="xn_glV_x1WAOgZxVCYEA-42" edge="1">
          <mxGeometry relative="1" as="geometry">
            <mxPoint x="300" y="110" as="targetPoint" />
          </mxGeometry>
        </mxCell>
        <mxCell id="xn_glV_x1WAOgZxVCYEA-42" value=";" style="ellipse;whiteSpace=wrap;html=1;aspect=fixed;fontFamily=GOSTRUS;" parent="1" vertex="1">
          <mxGeometry x="340" y="130" width="40" height="40" as="geometry" />
        </mxCell>
        <mxCell id="xn_glV_x1WAOgZxVCYEA-43" value="" style="endArrow=none;html=1;rounded=0;exitX=0.5;exitY=1;exitDx=0;exitDy=0;entryX=0.5;entryY=0;entryDx=0;entryDy=0;" parent="1" target="xn_glV_x1WAOgZxVCYEA-44" edge="1">
          <mxGeometry width="50" height="50" relative="1" as="geometry">
            <mxPoint x="300" y="110" as="sourcePoint" />
            <mxPoint x="400" y="130" as="targetPoint" />
          </mxGeometry>
        </mxCell>
        <mxCell id="xn_glV_x1WAOgZxVCYEA-44" value="N" style="ellipse;whiteSpace=wrap;html=1;aspect=fixed;" parent="1" vertex="1">
          <mxGeometry x="400" y="130" width="40" height="40" as="geometry" />
        </mxCell>
        <mxCell id="xn_glV_x1WAOgZxVCYEA-45" value="" style="endArrow=none;html=1;rounded=0;exitX=0.5;exitY=0;exitDx=0;exitDy=0;entryX=0.5;entryY=1;entryDx=0;entryDy=0;" parent="1" source="xn_glV_x1WAOgZxVCYEA-33" target="hBHkKKe8f3Y7WgupH7qP-2" edge="1">
          <mxGeometry width="50" height="50" relative="1" as="geometry">
            <mxPoint x="207" y="220" as="sourcePoint" />
            <mxPoint x="180" y="50" as="targetPoint" />
          </mxGeometry>
        </mxCell>
        <mxCell id="xn_glV_x1WAOgZxVCYEA-46" value="" style="endArrow=none;html=1;rounded=0;entryX=0.5;entryY=1;entryDx=0;entryDy=0;exitX=0.5;exitY=0;exitDx=0;exitDy=0;" parent="1" source="xn_glV_x1WAOgZxVCYEA-34" target="hBHkKKe8f3Y7WgupH7qP-2" edge="1">
          <mxGeometry width="50" height="50" relative="1" as="geometry">
            <mxPoint x="207" y="220" as="sourcePoint" />
            <mxPoint x="180" y="50" as="targetPoint" />
          </mxGeometry>
        </mxCell>
        <mxCell id="xn_glV_x1WAOgZxVCYEA-47" value="W" style="ellipse;whiteSpace=wrap;html=1;aspect=fixed;" parent="1" vertex="1">
          <mxGeometry x="280" y="200" width="40" height="40" as="geometry" />
        </mxCell>
        <mxCell id="xn_glV_x1WAOgZxVCYEA-48" value="(" style="ellipse;whiteSpace=wrap;html=1;aspect=fixed;" parent="1" vertex="1">
          <mxGeometry x="220" y="200" width="40" height="40" as="geometry" />
        </mxCell>
        <mxCell id="xn_glV_x1WAOgZxVCYEA-49" value="i" style="ellipse;whiteSpace=wrap;html=1;aspect=fixed;" parent="1" vertex="1">
          <mxGeometry x="160" y="200" width="40" height="40" as="geometry" />
        </mxCell>
        <mxCell id="xn_glV_x1WAOgZxVCYEA-50" value="" style="endArrow=none;html=1;rounded=0;exitX=0.5;exitY=0;exitDx=0;exitDy=0;" parent="1" source="xn_glV_x1WAOgZxVCYEA-48" edge="1">
          <mxGeometry width="50" height="50" relative="1" as="geometry">
            <mxPoint x="210" y="290" as="sourcePoint" />
            <mxPoint x="300" y="170" as="targetPoint" />
          </mxGeometry>
        </mxCell>
        <mxCell id="xn_glV_x1WAOgZxVCYEA-51" value="" style="endArrow=none;html=1;rounded=0;exitX=0.5;exitY=0;exitDx=0;exitDy=0;entryX=0.5;entryY=1;entryDx=0;entryDy=0;" parent="1" source="xn_glV_x1WAOgZxVCYEA-49" target="xn_glV_x1WAOgZxVCYEA-40" edge="1">
          <mxGeometry width="50" height="50" relative="1" as="geometry">
            <mxPoint x="210" y="290" as="sourcePoint" />
            <mxPoint x="300" y="171" as="targetPoint" />
          </mxGeometry>
        </mxCell>
        <mxCell id="xn_glV_x1WAOgZxVCYEA-52" value="" style="endArrow=none;html=1;rounded=0;entryX=0.5;entryY=1;entryDx=0;entryDy=0;exitX=0.5;exitY=0;exitDx=0;exitDy=0;" parent="1" source="xn_glV_x1WAOgZxVCYEA-47" target="xn_glV_x1WAOgZxVCYEA-40" edge="1">
          <mxGeometry width="50" height="50" relative="1" as="geometry">
            <mxPoint x="200" y="200" as="sourcePoint" />
            <mxPoint x="250" y="150" as="targetPoint" />
          </mxGeometry>
        </mxCell>
        <mxCell id="xn_glV_x1WAOgZxVCYEA-53" value=")" style="ellipse;whiteSpace=wrap;html=1;aspect=fixed;" parent="1" vertex="1">
          <mxGeometry x="340" y="200" width="40" height="40" as="geometry" />
        </mxCell>
        <mxCell id="xn_glV_x1WAOgZxVCYEA-54" value="" style="endArrow=none;html=1;rounded=0;entryX=0.5;entryY=1;entryDx=0;entryDy=0;exitX=0.5;exitY=0;exitDx=0;exitDy=0;" parent="1" source="xn_glV_x1WAOgZxVCYEA-53" target="xn_glV_x1WAOgZxVCYEA-40" edge="1">
          <mxGeometry width="50" height="50" relative="1" as="geometry">
            <mxPoint x="310" y="210" as="sourcePoint" />
            <mxPoint x="310" y="180" as="targetPoint" />
          </mxGeometry>
        </mxCell>
        <mxCell id="xn_glV_x1WAOgZxVCYEA-55" value="" style="endArrow=none;html=1;rounded=0;exitX=0.5;exitY=0;exitDx=0;exitDy=0;entryX=0.5;entryY=1;entryDx=0;entryDy=0;" parent="1" source="xn_glV_x1WAOgZxVCYEA-56" target="xn_glV_x1WAOgZxVCYEA-57" edge="1">
          <mxGeometry width="50" height="50" relative="1" as="geometry">
            <mxPoint x="270" y="420" as="sourcePoint" />
            <mxPoint x="420" y="300" as="targetPoint" />
          </mxGeometry>
        </mxCell>
        <mxCell id="xn_glV_x1WAOgZxVCYEA-56" value="l" style="ellipse;whiteSpace=wrap;html=1;aspect=fixed;" parent="1" vertex="1">
          <mxGeometry x="280" y="330" width="40" height="40" as="geometry" />
        </mxCell>
        <mxCell id="xn_glV_x1WAOgZxVCYEA-57" value="W" style="ellipse;whiteSpace=wrap;html=1;aspect=fixed;" parent="1" vertex="1">
          <mxGeometry x="280" y="270" width="40" height="40" as="geometry" />
        </mxCell>
        <mxCell id="xn_glV_x1WAOgZxVCYEA-58" value="" style="endArrow=none;html=1;rounded=0;exitX=0.5;exitY=0;exitDx=0;exitDy=0;" parent="1" source="xn_glV_x1WAOgZxVCYEA-57" edge="1">
          <mxGeometry width="50" height="50" relative="1" as="geometry">
            <mxPoint x="250" y="280" as="sourcePoint" />
            <mxPoint x="300" y="240" as="targetPoint" />
          </mxGeometry>
        </mxCell>
        <mxCell id="xn_glV_x1WAOgZxVCYEA-59" value="" style="endArrow=none;html=1;rounded=0;exitX=0.5;exitY=0;exitDx=0;exitDy=0;" parent="1" source="xn_glV_x1WAOgZxVCYEA-60" edge="1">
          <mxGeometry width="50" height="50" relative="1" as="geometry">
            <mxPoint x="140" y="270" as="sourcePoint" />
            <mxPoint x="300" y="240" as="targetPoint" />
          </mxGeometry>
        </mxCell>
        <mxCell id="xn_glV_x1WAOgZxVCYEA-60" value="," style="ellipse;whiteSpace=wrap;html=1;aspect=fixed;" parent="1" vertex="1">
          <mxGeometry x="220" y="270" width="40" height="40" as="geometry" />
        </mxCell>
        <mxCell id="xn_glV_x1WAOgZxVCYEA-61" value="" style="endArrow=none;html=1;rounded=0;exitX=0.5;exitY=0;exitDx=0;exitDy=0;entryX=0.5;entryY=1;entryDx=0;entryDy=0;" parent="1" source="xn_glV_x1WAOgZxVCYEA-62" edge="1">
          <mxGeometry width="50" height="50" relative="1" as="geometry">
            <mxPoint x="150" y="360" as="sourcePoint" />
            <mxPoint x="300" y="240" as="targetPoint" />
          </mxGeometry>
        </mxCell>
        <mxCell id="xn_glV_x1WAOgZxVCYEA-62" value="l" style="ellipse;whiteSpace=wrap;html=1;aspect=fixed;" parent="1" vertex="1">
          <mxGeometry x="160" y="270" width="40" height="40" as="geometry" />
        </mxCell>
        <mxCell id="ReoNthQvIvO-nrnfd7j9-1" value="" style="endArrow=none;html=1;rounded=0;entryX=0.5;entryY=1;entryDx=0;entryDy=0;" parent="1" target="hBHkKKe8f3Y7WgupH7qP-2" edge="1">
          <mxGeometry width="50" height="50" relative="1" as="geometry">
            <mxPoint x="300" y="70" as="sourcePoint" />
            <mxPoint x="460" y="50" as="targetPoint" />
          </mxGeometry>
        </mxCell>
        <mxCell id="VXuj6XGNed2jv8V5BaK4-2" value="}" style="ellipse;whiteSpace=wrap;html=1;aspect=fixed;" parent="1" vertex="1">
          <mxGeometry x="700" y="625" width="40" height="40" as="geometry" />
        </mxCell>
        <mxCell id="VXuj6XGNed2jv8V5BaK4-3" value="N" style="ellipse;whiteSpace=wrap;html=1;aspect=fixed;" parent="1" vertex="1">
          <mxGeometry x="760" y="625" width="40" height="40" as="geometry" />
        </mxCell>
        <mxCell id="VXuj6XGNed2jv8V5BaK4-4" value="" style="endArrow=none;html=1;rounded=0;entryX=0.5;entryY=0;entryDx=0;entryDy=0;exitX=0.5;exitY=1;exitDx=0;exitDy=0;" parent="1" source="jnJ0B8wt9rF5tkjCsLNv-3" target="VXuj6XGNed2jv8V5BaK4-2" edge="1">
          <mxGeometry width="50" height="50" relative="1" as="geometry">
            <mxPoint x="743" y="715" as="sourcePoint" />
            <mxPoint x="793" y="665" as="targetPoint" />
          </mxGeometry>
        </mxCell>
        <mxCell id="VXuj6XGNed2jv8V5BaK4-5" value="" style="endArrow=none;html=1;rounded=0;entryX=0.5;entryY=0;entryDx=0;entryDy=0;" parent="1" target="VXuj6XGNed2jv8V5BaK4-3" edge="1">
          <mxGeometry width="50" height="50" relative="1" as="geometry">
            <mxPoint x="553" y="585" as="sourcePoint" />
            <mxPoint x="793" y="665" as="targetPoint" />
          </mxGeometry>
        </mxCell>
        <mxCell id="YECHp5Fc08Ntth6VZtjB-1" value="p" style="ellipse;whiteSpace=wrap;html=1;aspect=fixed;" parent="1" vertex="1">
          <mxGeometry x="754" y="690" width="40" height="40" as="geometry" />
        </mxCell>
        <mxCell id="YECHp5Fc08Ntth6VZtjB-2" value="E" style="ellipse;whiteSpace=wrap;html=1;aspect=fixed;" parent="1" vertex="1">
          <mxGeometry x="814" y="690" width="40" height="40" as="geometry" />
        </mxCell>
        <mxCell id="YECHp5Fc08Ntth6VZtjB-3" style="edgeStyle=none;orthogonalLoop=1;jettySize=auto;html=1;exitX=0.5;exitY=0;exitDx=0;exitDy=0;endArrow=none;endFill=0;fontFamily=Verdana;entryX=0.5;entryY=1;entryDx=0;entryDy=0;" parent="1" source="YECHp5Fc08Ntth6VZtjB-2" target="VXuj6XGNed2jv8V5BaK4-3" edge="1">
          <mxGeometry relative="1" as="geometry">
            <mxPoint x="834" y="670" as="targetPoint" />
          </mxGeometry>
        </mxCell>
        <mxCell id="YECHp5Fc08Ntth6VZtjB-4" style="edgeStyle=none;orthogonalLoop=1;jettySize=auto;html=1;exitX=0.5;exitY=0;exitDx=0;exitDy=0;endArrow=none;endFill=0;entryX=0.5;entryY=1;entryDx=0;entryDy=0;" parent="1" source="YECHp5Fc08Ntth6VZtjB-1" target="VXuj6XGNed2jv8V5BaK4-3" edge="1">
          <mxGeometry relative="1" as="geometry">
            <mxPoint x="834" y="670" as="targetPoint" />
          </mxGeometry>
        </mxCell>
        <mxCell id="YECHp5Fc08Ntth6VZtjB-5" value=";" style="ellipse;whiteSpace=wrap;html=1;aspect=fixed;" parent="1" vertex="1">
          <mxGeometry x="874" y="690" width="40" height="40" as="geometry" />
        </mxCell>
        <mxCell id="YECHp5Fc08Ntth6VZtjB-6" style="edgeStyle=none;orthogonalLoop=1;jettySize=auto;html=1;exitX=0.5;exitY=0;exitDx=0;exitDy=0;endArrow=none;endFill=0;fontFamily=Verdana;entryX=0.5;entryY=1;entryDx=0;entryDy=0;" parent="1" source="YECHp5Fc08Ntth6VZtjB-5" target="VXuj6XGNed2jv8V5BaK4-3" edge="1">
          <mxGeometry relative="1" as="geometry">
            <mxPoint x="834" y="670" as="targetPoint" />
          </mxGeometry>
        </mxCell>
        <mxCell id="YECHp5Fc08Ntth6VZtjB-7" value="(" style="ellipse;whiteSpace=wrap;html=1;aspect=fixed;" parent="1" vertex="1">
          <mxGeometry x="754" y="750" width="40" height="40" as="geometry" />
        </mxCell>
        <mxCell id="YECHp5Fc08Ntth6VZtjB-8" value="E" style="ellipse;whiteSpace=wrap;html=1;aspect=fixed;" parent="1" vertex="1">
          <mxGeometry x="814" y="750" width="40" height="40" as="geometry" />
        </mxCell>
        <mxCell id="YECHp5Fc08Ntth6VZtjB-9" style="edgeStyle=none;orthogonalLoop=1;jettySize=auto;html=1;exitX=0.5;exitY=0;exitDx=0;exitDy=0;endArrow=none;endFill=0;fontFamily=Verdana;" parent="1" source="YECHp5Fc08Ntth6VZtjB-8" edge="1">
          <mxGeometry relative="1" as="geometry">
            <mxPoint x="834" y="730" as="targetPoint" />
          </mxGeometry>
        </mxCell>
        <mxCell id="YECHp5Fc08Ntth6VZtjB-10" style="edgeStyle=none;orthogonalLoop=1;jettySize=auto;html=1;exitX=0.5;exitY=0;exitDx=0;exitDy=0;endArrow=none;endFill=0;entryX=0.5;entryY=1;entryDx=0;entryDy=0;" parent="1" source="YECHp5Fc08Ntth6VZtjB-7" edge="1">
          <mxGeometry relative="1" as="geometry">
            <mxPoint x="834" y="730" as="targetPoint" />
          </mxGeometry>
        </mxCell>
        <mxCell id="YECHp5Fc08Ntth6VZtjB-11" value=")" style="ellipse;whiteSpace=wrap;html=1;aspect=fixed;" parent="1" vertex="1">
          <mxGeometry x="874" y="750" width="40" height="40" as="geometry" />
        </mxCell>
        <mxCell id="YECHp5Fc08Ntth6VZtjB-12" style="edgeStyle=none;orthogonalLoop=1;jettySize=auto;html=1;exitX=0.5;exitY=0;exitDx=0;exitDy=0;endArrow=none;endFill=0;fontFamily=Verdana;entryX=0.5;entryY=1;entryDx=0;entryDy=0;" parent="1" source="YECHp5Fc08Ntth6VZtjB-11" edge="1">
          <mxGeometry relative="1" as="geometry">
            <mxPoint x="834" y="730" as="targetPoint" />
          </mxGeometry>
        </mxCell>
        <mxCell id="YECHp5Fc08Ntth6VZtjB-13" value="i" style="ellipse;whiteSpace=wrap;html=1;aspect=fixed;" parent="1" vertex="1">
          <mxGeometry x="814" y="810" width="40" height="40" as="geometry" />
        </mxCell>
        <mxCell id="YECHp5Fc08Ntth6VZtjB-14" style="edgeStyle=none;orthogonalLoop=1;jettySize=auto;html=1;exitX=0.5;exitY=0;exitDx=0;exitDy=0;endArrow=none;endFill=0;fontFamily=Verdana;" parent="1" source="YECHp5Fc08Ntth6VZtjB-13" edge="1">
          <mxGeometry relative="1" as="geometry">
            <mxPoint x="834" y="790" as="targetPoint" />
          </mxGeometry>
        </mxCell>
        <mxCell id="BVoVwzFmF9M3Bv-2OYL5-2" value="l" style="ellipse;whiteSpace=wrap;html=1;aspect=fixed;" vertex="1" parent="1">
          <mxGeometry x="220" y="690" width="40" height="40" as="geometry" />
        </mxCell>
        <mxCell id="BVoVwzFmF9M3Bv-2OYL5-3" value="" style="endArrow=none;html=1;rounded=0;entryX=0.5;entryY=1;entryDx=0;entryDy=0;exitX=0.5;exitY=0;exitDx=0;exitDy=0;" edge="1" parent="1" source="BVoVwzFmF9M3Bv-2OYL5-2" target="jnJ0B8wt9rF5tkjCsLNv-8">
          <mxGeometry width="50" height="50" relative="1" as="geometry">
            <mxPoint x="360" y="760" as="sourcePoint" />
            <mxPoint x="410" y="710" as="targetPoint" />
          </mxGeometry>
        </mxCell>
      </root>
    </mxGraphModel>
  </diagram>
</mxfile>
